%TF.GenerationSoftware,KiCad,Pcbnew,10.0.5*%
%TF.CreationDate,2026-10-01T19:38:56+08:00*%
%TF.ProjectId,PANDA-EPD0426-SPI-EVT,50414e44-412d-4455-9044-303432362d53,R6-EVT-A*%
%TF.SameCoordinates,Original*%
%TF.FileFunction,Soldermask,Bot*%
%TF.FilePolarity,Negative*%
%FSLAX46Y46*%
G04 Gerber Fmt 4.6, Leading zero omitted, Abs format (unit mm)*
G04 Created by KiCad (PCBNEW 10.0.5) date 2026-10-01 19:38:56*
%MOMM*%
%LPD*%
G01*
G04 APERTURE LIST*
G04 Aperture macros list*
%AMRoundRect*
0 Rectangle with rounded corners*
0 $1 Rounding radius*
0 $2 $3 $4 $5 $6 $7 $8 $9 X,Y pos of 4 corners*
0 Add a 4 corners polygon primitive as box body*
4,1,4,$2,$3,$4,$5,$6,$7,$8,$9,$2,$3,0*
0 Add four circle primitives for the rounded corners*
1,1,$1+$1,$2,$3*
1,1,$1+$1,$4,$5*
1,1,$1+$1,$6,$7*
1,1,$1+$1,$8,$9*
0 Add four rect primitives between the rounded corners*
20,1,$1+$1,$2,$3,$4,$5,0*
20,1,$1+$1,$4,$5,$6,$7,0*
20,1,$1+$1,$6,$7,$8,$9,0*
20,1,$1+$1,$8,$9,$2,$3,0*%
G04 Aperture macros list end*
%ADD10RoundRect,0.057500X-0.057500X-0.272500X0.057500X-0.272500X0.057500X0.272500X-0.057500X0.272500X0*%
%ADD11R,0.350000X0.660000*%
G04 APERTURE END LIST*
D10*
%TO.C,J1*%
X17200000Y-5355000D03*
X17200000Y-2645000D03*
X17600000Y-5355000D03*
X17600000Y-2645000D03*
X18000000Y-5355000D03*
X18000000Y-2645000D03*
X18400000Y-5355000D03*
X18400000Y-2645000D03*
X18800000Y-5355000D03*
X18800000Y-2645000D03*
X19200000Y-5355000D03*
X19200000Y-2645000D03*
X19600000Y-5355000D03*
X19600000Y-2645000D03*
X20000000Y-5355000D03*
X20000000Y-2645000D03*
X20400000Y-5355000D03*
X20400000Y-2645000D03*
X20800000Y-5355000D03*
X20800000Y-2645000D03*
X21200000Y-5355000D03*
X21200000Y-2645000D03*
X21600000Y-5355000D03*
X21600000Y-2645000D03*
X22000000Y-5355000D03*
X22000000Y-2645000D03*
X22400000Y-5355000D03*
X22400000Y-2645000D03*
X22800000Y-5355000D03*
X22800000Y-2645000D03*
X23200000Y-5355000D03*
X23200000Y-2645000D03*
X23600000Y-5355000D03*
X23600000Y-2645000D03*
X24000000Y-5355000D03*
X24000000Y-2645000D03*
X24400000Y-5355000D03*
X24400000Y-2645000D03*
X24800000Y-5355000D03*
X24800000Y-2645000D03*
X25200000Y-5355000D03*
X25200000Y-2645000D03*
X25600000Y-5355000D03*
X25600000Y-2645000D03*
X26000000Y-5355000D03*
X26000000Y-2645000D03*
X26400000Y-5355000D03*
X26400000Y-2645000D03*
X26800000Y-5355000D03*
X26800000Y-2645000D03*
X27200000Y-5355000D03*
X27200000Y-2645000D03*
X27600000Y-5355000D03*
X27600000Y-2645000D03*
X28000000Y-5355000D03*
X28000000Y-2645000D03*
X28400000Y-5355000D03*
X28400000Y-2645000D03*
X28800000Y-5355000D03*
X28800000Y-2645000D03*
D11*
X16725000Y-2645000D03*
X16725000Y-5355000D03*
X29275000Y-2645000D03*
X29275000Y-5355000D03*
%TD*%
M02*
