%TF.GenerationSoftware,KiCad,Pcbnew,10.0.5*%
%TF.CreationDate,2026-10-01T19:17:51+08:00*%
%TF.ProjectId,PANDA-EPD0426-SPI-EVT,50414e44-412d-4455-9044-303432362d53,R6-EVT-A*%
%TF.SameCoordinates,Original*%
%TF.FileFunction,Copper,L2,Bot*%
%TF.FilePolarity,Positive*%
%FSLAX46Y46*%
G04 Gerber Fmt 4.6, Leading zero omitted, Abs format (unit mm)*
G04 Created by KiCad (PCBNEW 10.0.5) date 2026-10-01 19:17:51*
%MOMM*%
%LPD*%
G01*
G04 APERTURE LIST*
G04 Aperture macros list*
%AMRoundRect*
0 Rectangle with rounded corners*
0 $1 Rounding radius*
0 $2 $3 $4 $5 $6 $7 $8 $9 X,Y pos of 4 corners*
0 Add a 4 corners polygon primitive as box body*
4,1,4,$2,$3,$4,$5,$6,$7,$8,$9,$2,$3,0*
0 Add four circle primitives for the rounded corners*
1,1,$1+$1,$2,$3*
1,1,$1+$1,$4,$5*
1,1,$1+$1,$6,$7*
1,1,$1+$1,$8,$9*
0 Add four rect primitives between the rounded corners*
20,1,$1+$1,$2,$3,$4,$5,0*
20,1,$1+$1,$4,$5,$6,$7,0*
20,1,$1+$1,$6,$7,$8,$9,0*
20,1,$1+$1,$8,$9,$2,$3,0*%
G04 Aperture macros list end*
%TA.AperFunction,SMDPad,CuDef*%
%ADD10RoundRect,0.057500X-0.057500X-0.272500X0.057500X-0.272500X0.057500X0.272500X-0.057500X0.272500X0*%
%TD*%
%TA.AperFunction,SMDPad,CuDef*%
%ADD11R,0.350000X0.660000*%
%TD*%
%TA.AperFunction,ViaPad*%
%ADD12C,0.600000*%
%TD*%
%TA.AperFunction,Conductor*%
%ADD13C,0.150000*%
%TD*%
%TA.AperFunction,Conductor*%
%ADD14C,0.600000*%
%TD*%
G04 APERTURE END LIST*
D10*
%TO.P,J1,1,Pin_1_1*%
%TO.N,/HOST_SCLK*%
X17200000Y-5355000D03*
%TO.P,J1,2,Pin_2_2*%
%TO.N,/GND*%
X17200000Y-2645000D03*
%TO.P,J1,3,Pin_3_3*%
%TO.N,/HOST_MOSI*%
X17600000Y-5355000D03*
%TO.P,J1,4,Pin_4_4*%
%TO.N,/GND*%
X17600000Y-2645000D03*
%TO.P,J1,5,Pin_5_5*%
%TO.N,/HOST_CS*%
X18000000Y-5355000D03*
%TO.P,J1,6,Pin_6_6*%
%TO.N,/GND*%
X18000000Y-2645000D03*
%TO.P,J1,7,Pin_7_7*%
%TO.N,/HOST_DC*%
X18400000Y-5355000D03*
%TO.P,J1,8,Pin_8_8*%
%TO.N,/GND*%
X18400000Y-2645000D03*
%TO.P,J1,9,Pin_9_9*%
%TO.N,/HOST_RESET*%
X18800000Y-5355000D03*
%TO.P,J1,10,Pin_10_10*%
%TO.N,/GND*%
X18800000Y-2645000D03*
%TO.P,J1,11,Pin_11_11*%
%TO.N,/HOST_BUSY*%
X19200000Y-5355000D03*
%TO.P,J1,12,Pin_12_12*%
%TO.N,/GND*%
X19200000Y-2645000D03*
%TO.P,J1,13,Pin_13_13*%
%TO.N,unconnected-(J1-Pin_13-Pad13)*%
X19600000Y-5355000D03*
%TO.P,J1,14,Pin_14_14*%
%TO.N,/GND*%
X19600000Y-2645000D03*
%TO.P,J1,15,Pin_15_15*%
%TO.N,unconnected-(J1-Pin_15-Pad15)*%
X20000000Y-5355000D03*
%TO.P,J1,16,Pin_16_16*%
%TO.N,/GND*%
X20000000Y-2645000D03*
%TO.P,J1,17,Pin_17_17*%
%TO.N,unconnected-(J1-Pin_17-Pad17)*%
X20400000Y-5355000D03*
%TO.P,J1,18,Pin_18_18*%
%TO.N,/GND*%
X20400000Y-2645000D03*
%TO.P,J1,19,Pin_19_19*%
%TO.N,unconnected-(J1-Pin_19-Pad19)*%
X20800000Y-5355000D03*
%TO.P,J1,20,Pin_20_20*%
%TO.N,/GND*%
X20800000Y-2645000D03*
%TO.P,J1,21,Pin_21_21*%
%TO.N,unconnected-(J1-Pin_21-Pad21)*%
X21200000Y-5355000D03*
%TO.P,J1,22,Pin_22_22*%
%TO.N,/GND*%
X21200000Y-2645000D03*
%TO.P,J1,23,Pin_23_23*%
%TO.N,unconnected-(J1-Pin_23-Pad23)*%
X21600000Y-5355000D03*
%TO.P,J1,24,Pin_24_24*%
%TO.N,/GND*%
X21600000Y-2645000D03*
%TO.P,J1,25,Pin_25_25*%
%TO.N,unconnected-(J1-Pin_25-Pad25)*%
X22000000Y-5355000D03*
%TO.P,J1,26,Pin_26_26*%
%TO.N,/GND*%
X22000000Y-2645000D03*
%TO.P,J1,27,Pin_27_27*%
%TO.N,unconnected-(J1-Pin_27-Pad27)*%
X22400000Y-5355000D03*
%TO.P,J1,28,Pin_28_28*%
%TO.N,/GND*%
X22400000Y-2645000D03*
%TO.P,J1,29,Pin_29_29*%
%TO.N,unconnected-(J1-Pin_29-Pad29)*%
X22800000Y-5355000D03*
%TO.P,J1,30,Pin_30_30*%
%TO.N,/GND*%
X22800000Y-2645000D03*
%TO.P,J1,31,Pin_31_31*%
%TO.N,unconnected-(J1-Pin_31-Pad31)*%
X23200000Y-5355000D03*
%TO.P,J1,32,Pin_32_32*%
%TO.N,/GND*%
X23200000Y-2645000D03*
%TO.P,J1,33,Pin_33_33*%
%TO.N,unconnected-(J1-Pin_33-Pad33)*%
X23600000Y-5355000D03*
%TO.P,J1,34,Pin_34_34*%
%TO.N,/GND*%
X23600000Y-2645000D03*
%TO.P,J1,35,Pin_35_35*%
%TO.N,/EPD_3V3*%
X24000000Y-5355000D03*
%TO.P,J1,36,Pin_36_36*%
X24000000Y-2645000D03*
%TO.P,J1,37,Pin_37_37*%
%TO.N,unconnected-(J1-Pin_37-Pad37)*%
X24400000Y-5355000D03*
%TO.P,J1,38,Pin_38_38*%
%TO.N,unconnected-(J1-Pin_38-Pad38)*%
X24400000Y-2645000D03*
%TO.P,J1,39,Pin_39_39*%
%TO.N,unconnected-(J1-Pin_39-Pad39)*%
X24800000Y-5355000D03*
%TO.P,J1,40,Pin_40_40*%
%TO.N,unconnected-(J1-Pin_40-Pad40)*%
X24800000Y-2645000D03*
%TO.P,J1,41,Pin_41_41*%
%TO.N,unconnected-(J1-Pin_41-Pad41)*%
X25200000Y-5355000D03*
%TO.P,J1,42,Pin_42_42*%
%TO.N,unconnected-(J1-Pin_42-Pad42)*%
X25200000Y-2645000D03*
%TO.P,J1,43,Pin_43_43*%
%TO.N,unconnected-(J1-Pin_43-Pad43)*%
X25600000Y-5355000D03*
%TO.P,J1,44,Pin_44_44*%
%TO.N,unconnected-(J1-Pin_44-Pad44)*%
X25600000Y-2645000D03*
%TO.P,J1,45,Pin_45_45*%
%TO.N,unconnected-(J1-Pin_45-Pad45)*%
X26000000Y-5355000D03*
%TO.P,J1,46,Pin_46_46*%
%TO.N,unconnected-(J1-Pin_46-Pad46)*%
X26000000Y-2645000D03*
%TO.P,J1,47,Pin_47_47*%
%TO.N,unconnected-(J1-Pin_47-Pad47)*%
X26400000Y-5355000D03*
%TO.P,J1,48,Pin_48_48*%
%TO.N,unconnected-(J1-Pin_48-Pad48)*%
X26400000Y-2645000D03*
%TO.P,J1,49,Pin_49_49*%
%TO.N,unconnected-(J1-Pin_49-Pad49)*%
X26800000Y-5355000D03*
%TO.P,J1,50,Pin_50_50*%
%TO.N,unconnected-(J1-Pin_50-Pad50)*%
X26800000Y-2645000D03*
%TO.P,J1,51,Pin_51_51*%
%TO.N,unconnected-(J1-Pin_51-Pad51)*%
X27200000Y-5355000D03*
%TO.P,J1,52,Pin_52_52*%
%TO.N,unconnected-(J1-Pin_52-Pad52)*%
X27200000Y-2645000D03*
%TO.P,J1,53,Pin_53_53*%
%TO.N,unconnected-(J1-Pin_53-Pad53)*%
X27600000Y-5355000D03*
%TO.P,J1,54,Pin_54_54*%
%TO.N,unconnected-(J1-Pin_54-Pad54)*%
X27600000Y-2645000D03*
%TO.P,J1,55,Pin_55_55*%
%TO.N,/GND*%
X28000000Y-5355000D03*
%TO.P,J1,56,Pin_56_56*%
X28000000Y-2645000D03*
%TO.P,J1,57,Pin_57_57*%
X28400000Y-5355000D03*
%TO.P,J1,58,Pin_58_58*%
X28400000Y-2645000D03*
%TO.P,J1,59,Pin_59_59*%
X28800000Y-5355000D03*
%TO.P,J1,60,Pin_60_60*%
X28800000Y-2645000D03*
D11*
%TO.P,J1,MP*%
%TO.N,N/C*%
X16725000Y-2645000D03*
X16725000Y-5355000D03*
X29275000Y-2645000D03*
X29275000Y-5355000D03*
%TD*%
D12*
%TO.N,/HOST_RESET*%
X30645300Y-12915900D03*
X30656500Y-7857500D03*
%TO.N,/GND*%
X11010000Y-9650000D03*
X10500000Y-15000000D03*
X5775000Y-3750000D03*
X24041900Y-17059500D03*
X6250000Y-21000000D03*
X17800000Y-18000000D03*
X11650000Y-19500000D03*
X16479900Y-19834000D03*
%TO.N,/BUF_DC*%
X25000000Y-19285600D03*
X26338900Y-10473600D03*
%TO.N,/EPD_3V3*%
X32000000Y-8725300D03*
X24510000Y-6203100D03*
%TO.N,/VGL*%
X3014800Y-27518000D03*
X29431000Y-27518000D03*
%TO.N,/HOST_CS*%
X23490000Y-8841100D03*
%TO.N,/HOST_MOSI*%
X19490000Y-7064500D03*
X18602200Y-14459300D03*
%TO.N,/RESET*%
X27830900Y-22577300D03*
X16573700Y-26928200D03*
%TO.N,/HOST_BUSY*%
X29297200Y-16474000D03*
%TO.N,/HOST_SCLK*%
X15829300Y-6775400D03*
%TO.N,/HOST_DC*%
X21570000Y-7429800D03*
%TO.N,/BUF_CS*%
X22330600Y-20433500D03*
X26856100Y-11257500D03*
%TO.N,/BUSY*%
X21250000Y-25819300D03*
X29000000Y-20784100D03*
%TO.N,/VGH*%
X14610400Y-21339200D03*
X27631200Y-24055200D03*
%TO.N,/CS*%
X12427900Y-22794600D03*
X22319500Y-19623800D03*
%TO.N,/SCLK*%
X22619800Y-21777800D03*
X19948900Y-20428000D03*
%TO.N,/MOSI*%
X11663900Y-21647900D03*
X21000000Y-16475600D03*
%TD*%
%TO.N,/HOST_RESET*%
D13*
X30645300Y-7857500D02*
X30293700Y-7505900D01*
X30645300Y-7857500D02*
X30645300Y-12915900D01*
X19020000Y-6030000D02*
X18800000Y-5810000D01*
X18800000Y-5810000D02*
X18800000Y-5355000D01*
X22474700Y-7505900D02*
X20998800Y-6030000D01*
X20998800Y-6030000D02*
X19020000Y-6030000D01*
X30293700Y-7505900D02*
X22474700Y-7505900D01*
X30656500Y-7857500D02*
X30645300Y-7857500D01*
%TO.N,/GND*%
X22400000Y-2645000D02*
X22000000Y-2645000D01*
X18740500Y-17059500D02*
X24041900Y-17059500D01*
X23200000Y-2645000D02*
X22800000Y-2645000D01*
D14*
X5775000Y-10275000D02*
X10500000Y-15000000D01*
D13*
X23600000Y-2645000D02*
X23200000Y-2645000D01*
D14*
X10150000Y-21000000D02*
X11650000Y-19500000D01*
D13*
X28400000Y-2645000D02*
X28400000Y-3290000D01*
X28400000Y-2645000D02*
X28000000Y-2645000D01*
X21600000Y-2645000D02*
X21200000Y-2645000D01*
X28800000Y-5355000D02*
X28400000Y-5355000D01*
D14*
X5775000Y-3750000D02*
X5775000Y-10275000D01*
D13*
X16145900Y-19500000D02*
X16479900Y-19834000D01*
X20000000Y-2645000D02*
X19600000Y-2645000D01*
X17600000Y-2645000D02*
X17200000Y-2645000D01*
X23600000Y-3053400D02*
X23600000Y-2645000D01*
D14*
X11010000Y-14490000D02*
X10500000Y-15000000D01*
D13*
X19600000Y-2645000D02*
X19200000Y-2645000D01*
X18000000Y-2645000D02*
X17600000Y-2645000D01*
X17200000Y-2645000D02*
X17200000Y-3071900D01*
X23836600Y-3290000D02*
X23600000Y-3053400D01*
X18400000Y-2645000D02*
X18000000Y-2645000D01*
D14*
X17800000Y-18000000D02*
X16300000Y-19500000D01*
D13*
X21200000Y-2645000D02*
X20800000Y-2645000D01*
X28800000Y-2645000D02*
X28400000Y-2645000D01*
X20800000Y-2645000D02*
X20400000Y-2645000D01*
D14*
X11650000Y-16149999D02*
X11650000Y-19500000D01*
D13*
X28400000Y-3290000D02*
X23836600Y-3290000D01*
D14*
X10500000Y-15000000D02*
X11650000Y-16149999D01*
D13*
X17200000Y-3071900D02*
X16521900Y-3750000D01*
X16521900Y-3750000D02*
X5775000Y-3750000D01*
X28400000Y-5355000D02*
X28000000Y-5355000D01*
X22800000Y-2645000D02*
X22400000Y-2645000D01*
X18800000Y-2645000D02*
X18400000Y-2645000D01*
X17800000Y-18000000D02*
X18740500Y-17059500D01*
X20400000Y-2645000D02*
X20000000Y-2645000D01*
D14*
X16300000Y-19500000D02*
X11650000Y-19500000D01*
D13*
X28400000Y-3290000D02*
X28400000Y-5355000D01*
X22000000Y-2645000D02*
X21600000Y-2645000D01*
D14*
X6250000Y-21000000D02*
X10150000Y-21000000D01*
X11010000Y-9650000D02*
X11010000Y-14490000D01*
D13*
X19200000Y-2645000D02*
X18800000Y-2645000D01*
%TO.N,/BUF_DC*%
X29493100Y-17599100D02*
X30226300Y-16865900D01*
X30226300Y-16865900D02*
X30226300Y-15939900D01*
X26686500Y-17599100D02*
X29493100Y-17599100D01*
X25000000Y-19285600D02*
X26686500Y-17599100D01*
X30226300Y-15939900D02*
X26279300Y-11992900D01*
X26279300Y-10533200D02*
X26338900Y-10473600D01*
X26279300Y-11992900D02*
X26279300Y-10533200D01*
%TO.N,/EPD_3V3*%
X29576300Y-5996600D02*
X29612900Y-5960000D01*
X29760200Y-5812700D02*
X29760200Y-2219700D01*
X32000000Y-8347100D02*
X32000000Y-8725300D01*
X24510000Y-5996600D02*
X29576300Y-5996600D01*
X24000000Y-5821700D02*
X24000000Y-5355000D01*
X24510000Y-5996600D02*
X24174900Y-5996600D01*
X29612900Y-5960000D02*
X32000000Y-8347100D01*
X24000000Y-2224400D02*
X24000000Y-2645000D01*
X29760200Y-2219700D02*
X29535800Y-1995300D01*
X29612900Y-5960000D02*
X29760200Y-5812700D01*
X29535800Y-1995300D02*
X24229100Y-1995300D01*
X24174900Y-5996600D02*
X24000000Y-5821700D01*
X24510000Y-5996600D02*
X24510000Y-6203100D01*
X24229100Y-1995300D02*
X24000000Y-2224400D01*
%TO.N,/VGL*%
X29431000Y-27518000D02*
X3014800Y-27518000D01*
%TO.N,/HOST_CS*%
X16473600Y-4706600D02*
X15181600Y-5998600D01*
X15181600Y-5998600D02*
X15181600Y-6977100D01*
X18000000Y-4949700D02*
X17756900Y-4706600D01*
X15181600Y-6977100D02*
X17045600Y-8841100D01*
X18000000Y-5355000D02*
X18000000Y-4949700D01*
X17756900Y-4706600D02*
X16473600Y-4706600D01*
X17045600Y-8841100D02*
X23490000Y-8841100D01*
%TO.N,/HOST_MOSI*%
X17600000Y-5791600D02*
X18872900Y-7064500D01*
X29874600Y-16720200D02*
X29347400Y-17247400D01*
X23689700Y-8207700D02*
X25752600Y-10270600D01*
X20041700Y-15898800D02*
X18602200Y-14459300D01*
X25688100Y-15898800D02*
X20041700Y-15898800D01*
X25752600Y-10270600D02*
X25752600Y-11963600D01*
X17600000Y-5355000D02*
X17600000Y-5791600D01*
X29874600Y-16085600D02*
X29874600Y-16720200D01*
X27036700Y-17247400D02*
X25688100Y-15898800D01*
X20633200Y-8207700D02*
X23689700Y-8207700D01*
X29347400Y-17247400D02*
X27036700Y-17247400D01*
X25752600Y-11963600D02*
X29874600Y-16085600D01*
X19490000Y-7064500D02*
X20633200Y-8207700D01*
X18872900Y-7064500D02*
X19490000Y-7064500D01*
%TO.N,/RESET*%
X28559700Y-23306100D02*
X27830900Y-22577300D01*
X28559700Y-24471600D02*
X28559700Y-23306100D01*
X26103100Y-26928200D02*
X28559700Y-24471600D01*
X16573700Y-26928200D02*
X26103100Y-26928200D01*
%TO.N,/HOST_BUSY*%
X18577500Y-4311900D02*
X19200000Y-4934400D01*
X22488600Y-14818300D02*
X14795000Y-7124700D01*
X14795000Y-5887800D02*
X16370900Y-4311900D01*
X14795000Y-7124700D02*
X14795000Y-5887800D01*
X27641500Y-14818300D02*
X22488600Y-14818300D01*
X29297200Y-16474000D02*
X27641500Y-14818300D01*
X16370900Y-4311900D02*
X18577500Y-4311900D01*
X19200000Y-4934400D02*
X19200000Y-5355000D01*
%TO.N,/HOST_SCLK*%
X15829300Y-6775400D02*
X16243900Y-6775400D01*
X17200000Y-5819300D02*
X17200000Y-5355000D01*
X16243900Y-6775400D02*
X17200000Y-5819300D01*
%TO.N,/HOST_DC*%
X18880600Y-6434900D02*
X20575100Y-6434900D01*
X18400000Y-5954300D02*
X18880600Y-6434900D01*
X18400000Y-5355000D02*
X18400000Y-5954300D01*
X20575100Y-6434900D02*
X21570000Y-7429800D01*
%TO.N,/BUF_CS*%
X30578000Y-17011600D02*
X30578000Y-14979400D01*
X22330600Y-20433500D02*
X27156100Y-20433500D01*
X30578000Y-14979400D02*
X26856100Y-11257500D01*
X27156100Y-20433500D02*
X30578000Y-17011600D01*
%TO.N,/BUSY*%
X27254100Y-22323400D02*
X27254100Y-22861700D01*
X27254100Y-22861700D02*
X28208000Y-23815600D01*
X28208000Y-23815600D02*
X28208000Y-24325900D01*
X28208000Y-24325900D02*
X26714600Y-25819300D01*
X26714600Y-25819300D02*
X21250000Y-25819300D01*
X29000000Y-20784100D02*
X28793400Y-20784100D01*
X28793400Y-20784100D02*
X27254100Y-22323400D01*
%TO.N,/VGH*%
X14610400Y-21339200D02*
X17326400Y-24055200D01*
X17326400Y-24055200D02*
X27631200Y-24055200D01*
%TO.N,/CS*%
X17341800Y-20762400D02*
X14318300Y-20762400D01*
X22319500Y-19623800D02*
X18480400Y-19623800D01*
X12427900Y-22652800D02*
X12427900Y-22794600D01*
X14318300Y-20762400D02*
X12427900Y-22652800D01*
X18480400Y-19623800D02*
X17341800Y-20762400D01*
%TO.N,/SCLK*%
X21298700Y-21777800D02*
X19948900Y-20428000D01*
X22619800Y-21777800D02*
X21298700Y-21777800D01*
%TO.N,/MOSI*%
X24621900Y-17337800D02*
X24621900Y-16823700D01*
X17019500Y-20410700D02*
X18754500Y-18675700D01*
X24621900Y-16823700D02*
X24273800Y-16475600D01*
X24273800Y-16475600D02*
X21000000Y-16475600D01*
X23284000Y-18675700D02*
X24621900Y-17337800D01*
X12901100Y-20410700D02*
X17019500Y-20410700D01*
X11663900Y-21647900D02*
X12901100Y-20410700D01*
X18754500Y-18675700D02*
X23284000Y-18675700D01*
%TD*%
M02*
