M48
; DRILL file KiCad 10.0.5 date 2026-10-01T19:38:56
; FORMAT={-:-/ absolute / metric / decimal}
; #@! TF.CreationDate,2026-10-01T19:38:56+08:00
; #@! TF.GenerationSoftware,Kicad,Pcbnew,10.0.5
; #@! TF.FileFunction,Plated,1,2,PTH
FMAT,2
METRIC
; #@! TA.AperFunction,Plated,PTH,ViaDrill
T1C0.300
%
G90
G05
T1
X3.015Y-27.518
X5.775Y-3.75
X6.25Y-21.0
X10.5Y-15.0
X11.01Y-9.65
X11.65Y-19.5
X11.664Y-21.648
X12.428Y-22.795
X14.61Y-21.339
X15.829Y-6.775
X16.48Y-19.834
X16.574Y-26.928
X17.8Y-18.0
X18.602Y-14.459
X19.49Y-7.064
X19.949Y-20.428
X21.0Y-16.476
X21.25Y-25.819
X21.57Y-7.43
X22.319Y-19.624
X22.331Y-20.433
X22.62Y-21.778
X23.49Y-8.841
X24.042Y-17.059
X24.51Y-6.203
X25.0Y-19.286
X26.339Y-10.474
X26.856Y-11.258
X27.631Y-24.055
X27.831Y-22.577
X29.0Y-20.784
X29.297Y-16.474
X29.431Y-27.518
X30.645Y-12.916
X30.656Y-7.857
X32.0Y-8.725
M30
