%TF.GenerationSoftware,KiCad,Pcbnew,10.0.5*%
%TF.CreationDate,2026-10-01T19:17:51+08:00*%
%TF.ProjectId,PANDA-EPD0426-SPI-EVT,50414e44-412d-4455-9044-303432362d53,R6-EVT-A*%
%TF.SameCoordinates,Original*%
%TF.FileFunction,Legend,Bot*%
%TF.FilePolarity,Positive*%
%FSLAX46Y46*%
G04 Gerber Fmt 4.6, Leading zero omitted, Abs format (unit mm)*
G04 Created by KiCad (PCBNEW 10.0.5) date 2026-10-01 19:17:51*
%MOMM*%
%LPD*%
G01*
G04 APERTURE LIST*
G04 Aperture macros list*
%AMRoundRect*
0 Rectangle with rounded corners*
0 $1 Rounding radius*
0 $2 $3 $4 $5 $6 $7 $8 $9 X,Y pos of 4 corners*
0 Add a 4 corners polygon primitive as box body*
4,1,4,$2,$3,$4,$5,$6,$7,$8,$9,$2,$3,0*
0 Add four circle primitives for the rounded corners*
1,1,$1+$1,$2,$3*
1,1,$1+$1,$4,$5*
1,1,$1+$1,$6,$7*
1,1,$1+$1,$8,$9*
0 Add four rect primitives between the rounded corners*
20,1,$1+$1,$2,$3,$4,$5,0*
20,1,$1+$1,$4,$5,$6,$7,0*
20,1,$1+$1,$6,$7,$8,$9,0*
20,1,$1+$1,$8,$9,$2,$3,0*%
G04 Aperture macros list end*
%ADD10C,0.100000*%
%ADD11C,0.120000*%
%ADD12RoundRect,0.057500X-0.057500X-0.272500X0.057500X-0.272500X0.057500X0.272500X-0.057500X0.272500X0*%
%ADD13R,0.350000X0.660000*%
G04 APERTURE END LIST*
D10*
X23266666Y-7124895D02*
X23266666Y-7696323D01*
X23266666Y-7696323D02*
X23304761Y-7810609D01*
X23304761Y-7810609D02*
X23380952Y-7886800D01*
X23380952Y-7886800D02*
X23495237Y-7924895D01*
X23495237Y-7924895D02*
X23571428Y-7924895D01*
X22466666Y-7924895D02*
X22923809Y-7924895D01*
X22695237Y-7924895D02*
X22695237Y-7124895D01*
X22695237Y-7124895D02*
X22771428Y-7239180D01*
X22771428Y-7239180D02*
X22847618Y-7315371D01*
X22847618Y-7315371D02*
X22923809Y-7353466D01*
%TO.C,J1*%
D11*
X16130000Y-2965000D02*
X16130000Y-5035000D01*
X16130000Y-5035000D02*
X16290000Y-5035000D01*
X16290000Y-2965000D02*
X16130000Y-2965000D01*
X16983494Y-6400000D02*
X17200000Y-6025000D01*
X17200000Y-6025000D02*
X17416506Y-6400000D01*
X17416506Y-6400000D02*
X16983494Y-6400000D01*
X29710000Y-5035000D02*
X29870000Y-5035000D01*
X29870000Y-2965000D02*
X29710000Y-2965000D01*
X29870000Y-5035000D02*
X29870000Y-2965000D01*
%TD*%
%LPC*%
D12*
%TO.C,J1*%
X17200000Y-5355000D03*
X17200000Y-2645000D03*
X17600000Y-5355000D03*
X17600000Y-2645000D03*
X18000000Y-5355000D03*
X18000000Y-2645000D03*
X18400000Y-5355000D03*
X18400000Y-2645000D03*
X18800000Y-5355000D03*
X18800000Y-2645000D03*
X19200000Y-5355000D03*
X19200000Y-2645000D03*
X19600000Y-5355000D03*
X19600000Y-2645000D03*
X20000000Y-5355000D03*
X20000000Y-2645000D03*
X20400000Y-5355000D03*
X20400000Y-2645000D03*
X20800000Y-5355000D03*
X20800000Y-2645000D03*
X21200000Y-5355000D03*
X21200000Y-2645000D03*
X21600000Y-5355000D03*
X21600000Y-2645000D03*
X22000000Y-5355000D03*
X22000000Y-2645000D03*
X22400000Y-5355000D03*
X22400000Y-2645000D03*
X22800000Y-5355000D03*
X22800000Y-2645000D03*
X23200000Y-5355000D03*
X23200000Y-2645000D03*
X23600000Y-5355000D03*
X23600000Y-2645000D03*
X24000000Y-5355000D03*
X24000000Y-2645000D03*
X24400000Y-5355000D03*
X24400000Y-2645000D03*
X24800000Y-5355000D03*
X24800000Y-2645000D03*
X25200000Y-5355000D03*
X25200000Y-2645000D03*
X25600000Y-5355000D03*
X25600000Y-2645000D03*
X26000000Y-5355000D03*
X26000000Y-2645000D03*
X26400000Y-5355000D03*
X26400000Y-2645000D03*
X26800000Y-5355000D03*
X26800000Y-2645000D03*
X27200000Y-5355000D03*
X27200000Y-2645000D03*
X27600000Y-5355000D03*
X27600000Y-2645000D03*
X28000000Y-5355000D03*
X28000000Y-2645000D03*
X28400000Y-5355000D03*
X28400000Y-2645000D03*
X28800000Y-5355000D03*
X28800000Y-2645000D03*
D13*
X16725000Y-2645000D03*
X16725000Y-5355000D03*
X29275000Y-2645000D03*
X29275000Y-5355000D03*
%TD*%
%LPD*%
M02*
