%TF.GenerationSoftware,KiCad,Pcbnew,10.0.5*%
%TF.CreationDate,2026-10-01T09:33:23+08:00*%
%TF.ProjectId,PANDA-STD-CORE-EVT-quilter-j501-merged,50414e44-412d-4535-9444-2d434f52452d,thin17-132-placement-unrouted*%
%TF.SameCoordinates,Original*%
%TF.FileFunction,Legend,Bot*%
%TF.FilePolarity,Positive*%
%FSLAX46Y46*%
G04 Gerber Fmt 4.6, Leading zero omitted, Abs format (unit mm)*
G04 Created by KiCad (PCBNEW 10.0.5) date 2026-10-01 09:33:23*
%MOMM*%
%LPD*%
G01*
G04 APERTURE LIST*
%ADD10C,0.120000*%
G04 APERTURE END LIST*
%TO.C,R804*%
D10*
X12846359Y-60620000D02*
X13153641Y-60620000D01*
X12846359Y-61380000D02*
X13153641Y-61380000D01*
%TO.C,TP805*%
X91950000Y-46000000D02*
G75*
G02*
X90050000Y-46000000I-950000J0D01*
G01*
X90050000Y-46000000D02*
G75*
G02*
X91950000Y-46000000I950000J0D01*
G01*
%TO.C,R512*%
X93120000Y-45846359D02*
X93120000Y-46153641D01*
X93880000Y-45846359D02*
X93880000Y-46153641D01*
%TO.C,TP802*%
X19450000Y-50500000D02*
G75*
G02*
X17550000Y-50500000I-950000J0D01*
G01*
X17550000Y-50500000D02*
G75*
G02*
X19450000Y-50500000I950000J0D01*
G01*
%TO.C,TP804*%
X15950000Y-56500000D02*
G75*
G02*
X14050000Y-56500000I-950000J0D01*
G01*
X14050000Y-56500000D02*
G75*
G02*
X15950000Y-56500000I950000J0D01*
G01*
%TO.C,TPG5*%
X6950000Y-5000000D02*
G75*
G02*
X5050000Y-5000000I-950000J0D01*
G01*
X5050000Y-5000000D02*
G75*
G02*
X6950000Y-5000000I950000J0D01*
G01*
%TO.C,R812*%
X86120000Y-42846359D02*
X86120000Y-43153641D01*
X86880000Y-42846359D02*
X86880000Y-43153641D01*
%TO.C,TP16*%
X15450000Y-11500000D02*
G75*
G02*
X13550000Y-11500000I-950000J0D01*
G01*
X13550000Y-11500000D02*
G75*
G02*
X15450000Y-11500000I950000J0D01*
G01*
%TO.C,J503*%
X15095000Y-5730000D02*
X15095000Y-6365000D01*
X15730000Y-5730000D02*
X15095000Y-5730000D01*
%TO.C,TP13*%
X19450000Y-22000000D02*
G75*
G02*
X17550000Y-22000000I-950000J0D01*
G01*
X17550000Y-22000000D02*
G75*
G02*
X19450000Y-22000000I950000J0D01*
G01*
%TO.C,TPG2*%
X19450000Y-62000000D02*
G75*
G02*
X17550000Y-62000000I-950000J0D01*
G01*
X17550000Y-62000000D02*
G75*
G02*
X19450000Y-62000000I950000J0D01*
G01*
%TO.C,TP801*%
X19450000Y-58500000D02*
G75*
G02*
X17550000Y-58500000I-950000J0D01*
G01*
X17550000Y-58500000D02*
G75*
G02*
X19450000Y-58500000I950000J0D01*
G01*
%TO.C,R616*%
X18262742Y-17477500D02*
X18737258Y-17477500D01*
X18262742Y-18522500D02*
X18737258Y-18522500D01*
%TO.C,TP803*%
X15950000Y-53000000D02*
G75*
G02*
X14050000Y-53000000I-950000J0D01*
G01*
X14050000Y-53000000D02*
G75*
G02*
X15950000Y-53000000I950000J0D01*
G01*
%TO.C,TP14*%
X11950000Y-6500000D02*
G75*
G02*
X10050000Y-6500000I-950000J0D01*
G01*
X10050000Y-6500000D02*
G75*
G02*
X11950000Y-6500000I950000J0D01*
G01*
%TO.C,TP5*%
X15950000Y-23500000D02*
G75*
G02*
X14050000Y-23500000I-950000J0D01*
G01*
X14050000Y-23500000D02*
G75*
G02*
X15950000Y-23500000I950000J0D01*
G01*
%TO.C,TP11*%
X19450000Y-54000000D02*
G75*
G02*
X17550000Y-54000000I-950000J0D01*
G01*
X17550000Y-54000000D02*
G75*
G02*
X19450000Y-54000000I950000J0D01*
G01*
%TO.C,TP7*%
X6950000Y-17000000D02*
G75*
G02*
X5050000Y-17000000I-950000J0D01*
G01*
X5050000Y-17000000D02*
G75*
G02*
X6950000Y-17000000I950000J0D01*
G01*
%TO.C,TP12*%
X18950000Y-12500000D02*
G75*
G02*
X17050000Y-12500000I-950000J0D01*
G01*
X17050000Y-12500000D02*
G75*
G02*
X18950000Y-12500000I950000J0D01*
G01*
%TO.C,R803*%
X12846359Y-58620000D02*
X13153641Y-58620000D01*
X12846359Y-59380000D02*
X13153641Y-59380000D01*
%TO.C,C511*%
X14990000Y-61140580D02*
X14990000Y-60859420D01*
X16010000Y-61140580D02*
X16010000Y-60859420D01*
%TO.C,TP806*%
X88450000Y-46000000D02*
G75*
G02*
X86550000Y-46000000I-950000J0D01*
G01*
X86550000Y-46000000D02*
G75*
G02*
X88450000Y-46000000I950000J0D01*
G01*
%TO.C,R801*%
X11846359Y-55620000D02*
X12153641Y-55620000D01*
X11846359Y-56380000D02*
X12153641Y-56380000D01*
%TO.C,R802*%
X15346359Y-50120000D02*
X15653641Y-50120000D01*
X15346359Y-50880000D02*
X15653641Y-50880000D01*
%TO.C,TP8*%
X7950000Y-25500000D02*
G75*
G02*
X6050000Y-25500000I-950000J0D01*
G01*
X6050000Y-25500000D02*
G75*
G02*
X7950000Y-25500000I950000J0D01*
G01*
%TO.C,R615*%
X18262742Y-14977500D02*
X18737258Y-14977500D01*
X18262742Y-16022500D02*
X18737258Y-16022500D01*
%TO.C,R302*%
X14846359Y-18620000D02*
X15153641Y-18620000D01*
X14846359Y-19380000D02*
X15153641Y-19380000D01*
%TD*%
%LPC*%
G36*
X33571342Y-65338060D02*
G01*
X33684381Y-65403323D01*
X33776677Y-65495619D01*
X33841940Y-65608658D01*
X33875722Y-65734737D01*
X33880000Y-65800000D01*
X33880000Y-67000000D01*
X33875722Y-67065263D01*
X33841940Y-67191342D01*
X33776677Y-67304381D01*
X33684381Y-67396677D01*
X33571342Y-67461940D01*
X33445263Y-67495722D01*
X33314737Y-67495722D01*
X33188658Y-67461940D01*
X33075619Y-67396677D01*
X32983323Y-67304381D01*
X32918060Y-67191342D01*
X32884278Y-67065263D01*
X32880000Y-67000000D01*
X32880000Y-65800000D01*
X32884278Y-65734737D01*
X32918060Y-65608658D01*
X32983323Y-65495619D01*
X33075619Y-65403323D01*
X33188658Y-65338060D01*
X33314737Y-65304278D01*
X33445263Y-65304278D01*
X33571342Y-65338060D01*
G37*
G36*
X44811342Y-65338060D02*
G01*
X44924381Y-65403323D01*
X45016677Y-65495619D01*
X45081940Y-65608658D01*
X45115722Y-65734737D01*
X45120000Y-65800000D01*
X45120000Y-67000000D01*
X45115722Y-67065263D01*
X45081940Y-67191342D01*
X45016677Y-67304381D01*
X44924381Y-67396677D01*
X44811342Y-67461940D01*
X44685263Y-67495722D01*
X44554737Y-67495722D01*
X44428658Y-67461940D01*
X44315619Y-67396677D01*
X44223323Y-67304381D01*
X44158060Y-67191342D01*
X44124278Y-67065263D01*
X44120000Y-67000000D01*
X44120000Y-65800000D01*
X44124278Y-65734737D01*
X44158060Y-65608658D01*
X44223323Y-65495619D01*
X44315619Y-65403323D01*
X44428658Y-65338060D01*
X44554737Y-65304278D01*
X44685263Y-65304278D01*
X44811342Y-65338060D01*
G37*
G36*
X33571342Y-61538060D02*
G01*
X33684381Y-61603323D01*
X33776677Y-61695619D01*
X33841940Y-61808658D01*
X33875722Y-61934737D01*
X33880000Y-62000000D01*
X33880000Y-62800000D01*
X33875722Y-62865263D01*
X33841940Y-62991342D01*
X33776677Y-63104381D01*
X33684381Y-63196677D01*
X33571342Y-63261940D01*
X33445263Y-63295722D01*
X33314737Y-63295722D01*
X33188658Y-63261940D01*
X33075619Y-63196677D01*
X32983323Y-63104381D01*
X32918060Y-62991342D01*
X32884278Y-62865263D01*
X32880000Y-62800000D01*
X32880000Y-62000000D01*
X32884278Y-61934737D01*
X32918060Y-61808658D01*
X32983323Y-61695619D01*
X33075619Y-61603323D01*
X33188658Y-61538060D01*
X33314737Y-61504278D01*
X33445263Y-61504278D01*
X33571342Y-61538060D01*
G37*
G36*
X44811342Y-61538060D02*
G01*
X44924381Y-61603323D01*
X45016677Y-61695619D01*
X45081940Y-61808658D01*
X45115722Y-61934737D01*
X45120000Y-62000000D01*
X45120000Y-62800000D01*
X45115722Y-62865263D01*
X45081940Y-62991342D01*
X45016677Y-63104381D01*
X44924381Y-63196677D01*
X44811342Y-63261940D01*
X44685263Y-63295722D01*
X44554737Y-63295722D01*
X44428658Y-63261940D01*
X44315619Y-63196677D01*
X44223323Y-63104381D01*
X44158060Y-62991342D01*
X44124278Y-62865263D01*
X44120000Y-62800000D01*
X44120000Y-62000000D01*
X44124278Y-61934737D01*
X44158060Y-61808658D01*
X44223323Y-61695619D01*
X44315619Y-61603323D01*
X44428658Y-61538060D01*
X44554737Y-61504278D01*
X44685263Y-61504278D01*
X44811342Y-61538060D01*
G37*
G36*
X18717714Y-61282295D02*
G01*
X18853548Y-61338559D01*
X18975795Y-61420242D01*
X19079758Y-61524205D01*
X19161441Y-61646452D01*
X19217705Y-61782286D01*
X19246389Y-61926487D01*
X19246389Y-62073513D01*
X19217705Y-62217714D01*
X19161441Y-62353548D01*
X19079758Y-62475795D01*
X18975795Y-62579758D01*
X18853548Y-62661441D01*
X18717714Y-62717705D01*
X18573513Y-62746389D01*
X18426487Y-62746389D01*
X18282286Y-62717705D01*
X18146452Y-62661441D01*
X18024205Y-62579758D01*
X17920242Y-62475795D01*
X17838559Y-62353548D01*
X17782295Y-62217714D01*
X17753611Y-62073513D01*
X17753611Y-61926487D01*
X17782295Y-61782286D01*
X17838559Y-61646452D01*
X17920242Y-61524205D01*
X18024205Y-61420242D01*
X18146452Y-61338559D01*
X18282286Y-61282295D01*
X18426487Y-61253611D01*
X18573513Y-61253611D01*
X18717714Y-61282295D01*
G37*
G36*
X15836104Y-61342127D02*
G01*
X15909099Y-61390901D01*
X15957873Y-61463896D01*
X15975000Y-61550000D01*
X15975000Y-62000000D01*
X15957873Y-62086104D01*
X15909099Y-62159099D01*
X15836104Y-62207873D01*
X15750000Y-62225000D01*
X15250000Y-62225000D01*
X15163896Y-62207873D01*
X15090901Y-62159099D01*
X15042127Y-62086104D01*
X15025000Y-62000000D01*
X15025000Y-61550000D01*
X15042127Y-61463896D01*
X15090901Y-61390901D01*
X15163896Y-61342127D01*
X15250000Y-61325000D01*
X15750000Y-61325000D01*
X15836104Y-61342127D01*
G37*
G36*
X12676662Y-60690276D02*
G01*
X12720459Y-60719541D01*
X12749724Y-60763338D01*
X12760000Y-60815000D01*
X12760000Y-61185000D01*
X12749724Y-61236662D01*
X12720459Y-61280459D01*
X12676662Y-61309724D01*
X12625000Y-61320000D01*
X12355000Y-61320000D01*
X12303338Y-61309724D01*
X12259541Y-61280459D01*
X12230276Y-61236662D01*
X12220000Y-61185000D01*
X12220000Y-60815000D01*
X12230276Y-60763338D01*
X12259541Y-60719541D01*
X12303338Y-60690276D01*
X12355000Y-60680000D01*
X12625000Y-60680000D01*
X12676662Y-60690276D01*
G37*
G36*
X13696662Y-60690276D02*
G01*
X13740459Y-60719541D01*
X13769724Y-60763338D01*
X13780000Y-60815000D01*
X13780000Y-61185000D01*
X13769724Y-61236662D01*
X13740459Y-61280459D01*
X13696662Y-61309724D01*
X13645000Y-61320000D01*
X13375000Y-61320000D01*
X13323338Y-61309724D01*
X13279541Y-61280459D01*
X13250276Y-61236662D01*
X13240000Y-61185000D01*
X13240000Y-60815000D01*
X13250276Y-60763338D01*
X13279541Y-60719541D01*
X13323338Y-60690276D01*
X13375000Y-60680000D01*
X13645000Y-60680000D01*
X13696662Y-60690276D01*
G37*
G36*
X15836104Y-59792127D02*
G01*
X15909099Y-59840901D01*
X15957873Y-59913896D01*
X15975000Y-60000000D01*
X15975000Y-60450000D01*
X15957873Y-60536104D01*
X15909099Y-60609099D01*
X15836104Y-60657873D01*
X15750000Y-60675000D01*
X15250000Y-60675000D01*
X15163896Y-60657873D01*
X15090901Y-60609099D01*
X15042127Y-60536104D01*
X15025000Y-60450000D01*
X15025000Y-60000000D01*
X15042127Y-59913896D01*
X15090901Y-59840901D01*
X15163896Y-59792127D01*
X15250000Y-59775000D01*
X15750000Y-59775000D01*
X15836104Y-59792127D01*
G37*
G36*
X12676662Y-58690276D02*
G01*
X12720459Y-58719541D01*
X12749724Y-58763338D01*
X12760000Y-58815000D01*
X12760000Y-59185000D01*
X12749724Y-59236662D01*
X12720459Y-59280459D01*
X12676662Y-59309724D01*
X12625000Y-59320000D01*
X12355000Y-59320000D01*
X12303338Y-59309724D01*
X12259541Y-59280459D01*
X12230276Y-59236662D01*
X12220000Y-59185000D01*
X12220000Y-58815000D01*
X12230276Y-58763338D01*
X12259541Y-58719541D01*
X12303338Y-58690276D01*
X12355000Y-58680000D01*
X12625000Y-58680000D01*
X12676662Y-58690276D01*
G37*
G36*
X13696662Y-58690276D02*
G01*
X13740459Y-58719541D01*
X13769724Y-58763338D01*
X13780000Y-58815000D01*
X13780000Y-59185000D01*
X13769724Y-59236662D01*
X13740459Y-59280459D01*
X13696662Y-59309724D01*
X13645000Y-59320000D01*
X13375000Y-59320000D01*
X13323338Y-59309724D01*
X13279541Y-59280459D01*
X13250276Y-59236662D01*
X13240000Y-59185000D01*
X13240000Y-58815000D01*
X13250276Y-58763338D01*
X13279541Y-58719541D01*
X13323338Y-58690276D01*
X13375000Y-58680000D01*
X13645000Y-58680000D01*
X13696662Y-58690276D01*
G37*
G36*
X18717714Y-57782295D02*
G01*
X18853548Y-57838559D01*
X18975795Y-57920242D01*
X19079758Y-58024205D01*
X19161441Y-58146452D01*
X19217705Y-58282286D01*
X19246389Y-58426487D01*
X19246389Y-58573513D01*
X19217705Y-58717714D01*
X19161441Y-58853548D01*
X19079758Y-58975795D01*
X18975795Y-59079758D01*
X18853548Y-59161441D01*
X18717714Y-59217705D01*
X18573513Y-59246389D01*
X18426487Y-59246389D01*
X18282286Y-59217705D01*
X18146452Y-59161441D01*
X18024205Y-59079758D01*
X17920242Y-58975795D01*
X17838559Y-58853548D01*
X17782295Y-58717714D01*
X17753611Y-58573513D01*
X17753611Y-58426487D01*
X17782295Y-58282286D01*
X17838559Y-58146452D01*
X17920242Y-58024205D01*
X18024205Y-57920242D01*
X18146452Y-57838559D01*
X18282286Y-57782295D01*
X18426487Y-57753611D01*
X18573513Y-57753611D01*
X18717714Y-57782295D01*
G37*
G36*
X15217714Y-55782295D02*
G01*
X15353548Y-55838559D01*
X15475795Y-55920242D01*
X15579758Y-56024205D01*
X15661441Y-56146452D01*
X15717705Y-56282286D01*
X15746389Y-56426487D01*
X15746389Y-56573513D01*
X15717705Y-56717714D01*
X15661441Y-56853548D01*
X15579758Y-56975795D01*
X15475795Y-57079758D01*
X15353548Y-57161441D01*
X15217714Y-57217705D01*
X15073513Y-57246389D01*
X14926487Y-57246389D01*
X14782286Y-57217705D01*
X14646452Y-57161441D01*
X14524205Y-57079758D01*
X14420242Y-56975795D01*
X14338559Y-56853548D01*
X14282295Y-56717714D01*
X14253611Y-56573513D01*
X14253611Y-56426487D01*
X14282295Y-56282286D01*
X14338559Y-56146452D01*
X14420242Y-56024205D01*
X14524205Y-55920242D01*
X14646452Y-55838559D01*
X14782286Y-55782295D01*
X14926487Y-55753611D01*
X15073513Y-55753611D01*
X15217714Y-55782295D01*
G37*
G36*
X11676662Y-55690276D02*
G01*
X11720459Y-55719541D01*
X11749724Y-55763338D01*
X11760000Y-55815000D01*
X11760000Y-56185000D01*
X11749724Y-56236662D01*
X11720459Y-56280459D01*
X11676662Y-56309724D01*
X11625000Y-56320000D01*
X11355000Y-56320000D01*
X11303338Y-56309724D01*
X11259541Y-56280459D01*
X11230276Y-56236662D01*
X11220000Y-56185000D01*
X11220000Y-55815000D01*
X11230276Y-55763338D01*
X11259541Y-55719541D01*
X11303338Y-55690276D01*
X11355000Y-55680000D01*
X11625000Y-55680000D01*
X11676662Y-55690276D01*
G37*
G36*
X12696662Y-55690276D02*
G01*
X12740459Y-55719541D01*
X12769724Y-55763338D01*
X12780000Y-55815000D01*
X12780000Y-56185000D01*
X12769724Y-56236662D01*
X12740459Y-56280459D01*
X12696662Y-56309724D01*
X12645000Y-56320000D01*
X12375000Y-56320000D01*
X12323338Y-56309724D01*
X12279541Y-56280459D01*
X12250276Y-56236662D01*
X12240000Y-56185000D01*
X12240000Y-55815000D01*
X12250276Y-55763338D01*
X12279541Y-55719541D01*
X12323338Y-55690276D01*
X12375000Y-55680000D01*
X12645000Y-55680000D01*
X12696662Y-55690276D01*
G37*
G36*
X18717714Y-53282295D02*
G01*
X18853548Y-53338559D01*
X18975795Y-53420242D01*
X19079758Y-53524205D01*
X19161441Y-53646452D01*
X19217705Y-53782286D01*
X19246389Y-53926487D01*
X19246389Y-54073513D01*
X19217705Y-54217714D01*
X19161441Y-54353548D01*
X19079758Y-54475795D01*
X18975795Y-54579758D01*
X18853548Y-54661441D01*
X18717714Y-54717705D01*
X18573513Y-54746389D01*
X18426487Y-54746389D01*
X18282286Y-54717705D01*
X18146452Y-54661441D01*
X18024205Y-54579758D01*
X17920242Y-54475795D01*
X17838559Y-54353548D01*
X17782295Y-54217714D01*
X17753611Y-54073513D01*
X17753611Y-53926487D01*
X17782295Y-53782286D01*
X17838559Y-53646452D01*
X17920242Y-53524205D01*
X18024205Y-53420242D01*
X18146452Y-53338559D01*
X18282286Y-53282295D01*
X18426487Y-53253611D01*
X18573513Y-53253611D01*
X18717714Y-53282295D01*
G37*
G36*
X15217714Y-52282295D02*
G01*
X15353548Y-52338559D01*
X15475795Y-52420242D01*
X15579758Y-52524205D01*
X15661441Y-52646452D01*
X15717705Y-52782286D01*
X15746389Y-52926487D01*
X15746389Y-53073513D01*
X15717705Y-53217714D01*
X15661441Y-53353548D01*
X15579758Y-53475795D01*
X15475795Y-53579758D01*
X15353548Y-53661441D01*
X15217714Y-53717705D01*
X15073513Y-53746389D01*
X14926487Y-53746389D01*
X14782286Y-53717705D01*
X14646452Y-53661441D01*
X14524205Y-53579758D01*
X14420242Y-53475795D01*
X14338559Y-53353548D01*
X14282295Y-53217714D01*
X14253611Y-53073513D01*
X14253611Y-52926487D01*
X14282295Y-52782286D01*
X14338559Y-52646452D01*
X14420242Y-52524205D01*
X14524205Y-52420242D01*
X14646452Y-52338559D01*
X14782286Y-52282295D01*
X14926487Y-52253611D01*
X15073513Y-52253611D01*
X15217714Y-52282295D01*
G37*
G36*
X18717714Y-49782295D02*
G01*
X18853548Y-49838559D01*
X18975795Y-49920242D01*
X19079758Y-50024205D01*
X19161441Y-50146452D01*
X19217705Y-50282286D01*
X19246389Y-50426487D01*
X19246389Y-50573513D01*
X19217705Y-50717714D01*
X19161441Y-50853548D01*
X19079758Y-50975795D01*
X18975795Y-51079758D01*
X18853548Y-51161441D01*
X18717714Y-51217705D01*
X18573513Y-51246389D01*
X18426487Y-51246389D01*
X18282286Y-51217705D01*
X18146452Y-51161441D01*
X18024205Y-51079758D01*
X17920242Y-50975795D01*
X17838559Y-50853548D01*
X17782295Y-50717714D01*
X17753611Y-50573513D01*
X17753611Y-50426487D01*
X17782295Y-50282286D01*
X17838559Y-50146452D01*
X17920242Y-50024205D01*
X18024205Y-49920242D01*
X18146452Y-49838559D01*
X18282286Y-49782295D01*
X18426487Y-49753611D01*
X18573513Y-49753611D01*
X18717714Y-49782295D01*
G37*
G36*
X15176662Y-50190276D02*
G01*
X15220459Y-50219541D01*
X15249724Y-50263338D01*
X15260000Y-50315000D01*
X15260000Y-50685000D01*
X15249724Y-50736662D01*
X15220459Y-50780459D01*
X15176662Y-50809724D01*
X15125000Y-50820000D01*
X14855000Y-50820000D01*
X14803338Y-50809724D01*
X14759541Y-50780459D01*
X14730276Y-50736662D01*
X14720000Y-50685000D01*
X14720000Y-50315000D01*
X14730276Y-50263338D01*
X14759541Y-50219541D01*
X14803338Y-50190276D01*
X14855000Y-50180000D01*
X15125000Y-50180000D01*
X15176662Y-50190276D01*
G37*
G36*
X16196662Y-50190276D02*
G01*
X16240459Y-50219541D01*
X16269724Y-50263338D01*
X16280000Y-50315000D01*
X16280000Y-50685000D01*
X16269724Y-50736662D01*
X16240459Y-50780459D01*
X16196662Y-50809724D01*
X16145000Y-50820000D01*
X15875000Y-50820000D01*
X15823338Y-50809724D01*
X15779541Y-50780459D01*
X15750276Y-50736662D01*
X15740000Y-50685000D01*
X15740000Y-50315000D01*
X15750276Y-50263338D01*
X15779541Y-50219541D01*
X15823338Y-50190276D01*
X15875000Y-50180000D01*
X16145000Y-50180000D01*
X16196662Y-50190276D01*
G37*
G36*
X93736662Y-46250276D02*
G01*
X93780459Y-46279541D01*
X93809724Y-46323338D01*
X93820000Y-46375000D01*
X93820000Y-46645000D01*
X93809724Y-46696662D01*
X93780459Y-46740459D01*
X93736662Y-46769724D01*
X93685000Y-46780000D01*
X93315000Y-46780000D01*
X93263338Y-46769724D01*
X93219541Y-46740459D01*
X93190276Y-46696662D01*
X93180000Y-46645000D01*
X93180000Y-46375000D01*
X93190276Y-46323338D01*
X93219541Y-46279541D01*
X93263338Y-46250276D01*
X93315000Y-46240000D01*
X93685000Y-46240000D01*
X93736662Y-46250276D01*
G37*
G36*
X87717714Y-45282295D02*
G01*
X87853548Y-45338559D01*
X87975795Y-45420242D01*
X88079758Y-45524205D01*
X88161441Y-45646452D01*
X88217705Y-45782286D01*
X88246389Y-45926487D01*
X88246389Y-46073513D01*
X88217705Y-46217714D01*
X88161441Y-46353548D01*
X88079758Y-46475795D01*
X87975795Y-46579758D01*
X87853548Y-46661441D01*
X87717714Y-46717705D01*
X87573513Y-46746389D01*
X87426487Y-46746389D01*
X87282286Y-46717705D01*
X87146452Y-46661441D01*
X87024205Y-46579758D01*
X86920242Y-46475795D01*
X86838559Y-46353548D01*
X86782295Y-46217714D01*
X86753611Y-46073513D01*
X86753611Y-45926487D01*
X86782295Y-45782286D01*
X86838559Y-45646452D01*
X86920242Y-45524205D01*
X87024205Y-45420242D01*
X87146452Y-45338559D01*
X87282286Y-45282295D01*
X87426487Y-45253611D01*
X87573513Y-45253611D01*
X87717714Y-45282295D01*
G37*
G36*
X91217714Y-45282295D02*
G01*
X91353548Y-45338559D01*
X91475795Y-45420242D01*
X91579758Y-45524205D01*
X91661441Y-45646452D01*
X91717705Y-45782286D01*
X91746389Y-45926487D01*
X91746389Y-46073513D01*
X91717705Y-46217714D01*
X91661441Y-46353548D01*
X91579758Y-46475795D01*
X91475795Y-46579758D01*
X91353548Y-46661441D01*
X91217714Y-46717705D01*
X91073513Y-46746389D01*
X90926487Y-46746389D01*
X90782286Y-46717705D01*
X90646452Y-46661441D01*
X90524205Y-46579758D01*
X90420242Y-46475795D01*
X90338559Y-46353548D01*
X90282295Y-46217714D01*
X90253611Y-46073513D01*
X90253611Y-45926487D01*
X90282295Y-45782286D01*
X90338559Y-45646452D01*
X90420242Y-45524205D01*
X90524205Y-45420242D01*
X90646452Y-45338559D01*
X90782286Y-45282295D01*
X90926487Y-45253611D01*
X91073513Y-45253611D01*
X91217714Y-45282295D01*
G37*
G36*
X93736662Y-45230276D02*
G01*
X93780459Y-45259541D01*
X93809724Y-45303338D01*
X93820000Y-45355000D01*
X93820000Y-45625000D01*
X93809724Y-45676662D01*
X93780459Y-45720459D01*
X93736662Y-45749724D01*
X93685000Y-45760000D01*
X93315000Y-45760000D01*
X93263338Y-45749724D01*
X93219541Y-45720459D01*
X93190276Y-45676662D01*
X93180000Y-45625000D01*
X93180000Y-45355000D01*
X93190276Y-45303338D01*
X93219541Y-45259541D01*
X93263338Y-45230276D01*
X93315000Y-45220000D01*
X93685000Y-45220000D01*
X93736662Y-45230276D01*
G37*
G36*
X86736662Y-43250276D02*
G01*
X86780459Y-43279541D01*
X86809724Y-43323338D01*
X86820000Y-43375000D01*
X86820000Y-43645000D01*
X86809724Y-43696662D01*
X86780459Y-43740459D01*
X86736662Y-43769724D01*
X86685000Y-43780000D01*
X86315000Y-43780000D01*
X86263338Y-43769724D01*
X86219541Y-43740459D01*
X86190276Y-43696662D01*
X86180000Y-43645000D01*
X86180000Y-43375000D01*
X86190276Y-43323338D01*
X86219541Y-43279541D01*
X86263338Y-43250276D01*
X86315000Y-43240000D01*
X86685000Y-43240000D01*
X86736662Y-43250276D01*
G37*
G36*
X86736662Y-42230276D02*
G01*
X86780459Y-42259541D01*
X86809724Y-42303338D01*
X86820000Y-42355000D01*
X86820000Y-42625000D01*
X86809724Y-42676662D01*
X86780459Y-42720459D01*
X86736662Y-42749724D01*
X86685000Y-42760000D01*
X86315000Y-42760000D01*
X86263338Y-42749724D01*
X86219541Y-42720459D01*
X86190276Y-42676662D01*
X86180000Y-42625000D01*
X86180000Y-42355000D01*
X86190276Y-42303338D01*
X86219541Y-42259541D01*
X86263338Y-42230276D01*
X86315000Y-42220000D01*
X86685000Y-42220000D01*
X86736662Y-42230276D01*
G37*
G36*
X3232228Y-33234448D02*
G01*
X3377117Y-33294463D01*
X3507515Y-33381592D01*
X3618408Y-33492485D01*
X3705537Y-33622883D01*
X3765552Y-33767772D01*
X3796148Y-33921586D01*
X3796148Y-34078414D01*
X3765552Y-34232228D01*
X3705537Y-34377117D01*
X3618408Y-34507515D01*
X3507515Y-34618408D01*
X3377117Y-34705537D01*
X3232228Y-34765552D01*
X3078414Y-34796148D01*
X2921586Y-34796148D01*
X2767772Y-34765552D01*
X2622883Y-34705537D01*
X2492485Y-34618408D01*
X2381592Y-34507515D01*
X2294463Y-34377117D01*
X2234448Y-34232228D01*
X2203852Y-34078414D01*
X2203852Y-33921586D01*
X2234448Y-33767772D01*
X2294463Y-33622883D01*
X2381592Y-33492485D01*
X2492485Y-33381592D01*
X2622883Y-33294463D01*
X2767772Y-33234448D01*
X2921586Y-33203852D01*
X3078414Y-33203852D01*
X3232228Y-33234448D01*
G37*
G36*
X93232228Y-33234448D02*
G01*
X93377117Y-33294463D01*
X93507515Y-33381592D01*
X93618408Y-33492485D01*
X93705537Y-33622883D01*
X93765552Y-33767772D01*
X93796148Y-33921586D01*
X93796148Y-34078414D01*
X93765552Y-34232228D01*
X93705537Y-34377117D01*
X93618408Y-34507515D01*
X93507515Y-34618408D01*
X93377117Y-34705537D01*
X93232228Y-34765552D01*
X93078414Y-34796148D01*
X92921586Y-34796148D01*
X92767772Y-34765552D01*
X92622883Y-34705537D01*
X92492485Y-34618408D01*
X92381592Y-34507515D01*
X92294463Y-34377117D01*
X92234448Y-34232228D01*
X92203852Y-34078414D01*
X92203852Y-33921586D01*
X92234448Y-33767772D01*
X92294463Y-33622883D01*
X92381592Y-33492485D01*
X92492485Y-33381592D01*
X92622883Y-33294463D01*
X92767772Y-33234448D01*
X92921586Y-33203852D01*
X93078414Y-33203852D01*
X93232228Y-33234448D01*
G37*
G36*
X7217714Y-24782295D02*
G01*
X7353548Y-24838559D01*
X7475795Y-24920242D01*
X7579758Y-25024205D01*
X7661441Y-25146452D01*
X7717705Y-25282286D01*
X7746389Y-25426487D01*
X7746389Y-25573513D01*
X7717705Y-25717714D01*
X7661441Y-25853548D01*
X7579758Y-25975795D01*
X7475795Y-26079758D01*
X7353548Y-26161441D01*
X7217714Y-26217705D01*
X7073513Y-26246389D01*
X6926487Y-26246389D01*
X6782286Y-26217705D01*
X6646452Y-26161441D01*
X6524205Y-26079758D01*
X6420242Y-25975795D01*
X6338559Y-25853548D01*
X6282295Y-25717714D01*
X6253611Y-25573513D01*
X6253611Y-25426487D01*
X6282295Y-25282286D01*
X6338559Y-25146452D01*
X6420242Y-25024205D01*
X6524205Y-24920242D01*
X6646452Y-24838559D01*
X6782286Y-24782295D01*
X6926487Y-24753611D01*
X7073513Y-24753611D01*
X7217714Y-24782295D01*
G37*
G36*
X15217714Y-22782295D02*
G01*
X15353548Y-22838559D01*
X15475795Y-22920242D01*
X15579758Y-23024205D01*
X15661441Y-23146452D01*
X15717705Y-23282286D01*
X15746389Y-23426487D01*
X15746389Y-23573513D01*
X15717705Y-23717714D01*
X15661441Y-23853548D01*
X15579758Y-23975795D01*
X15475795Y-24079758D01*
X15353548Y-24161441D01*
X15217714Y-24217705D01*
X15073513Y-24246389D01*
X14926487Y-24246389D01*
X14782286Y-24217705D01*
X14646452Y-24161441D01*
X14524205Y-24079758D01*
X14420242Y-23975795D01*
X14338559Y-23853548D01*
X14282295Y-23717714D01*
X14253611Y-23573513D01*
X14253611Y-23426487D01*
X14282295Y-23282286D01*
X14338559Y-23146452D01*
X14420242Y-23024205D01*
X14524205Y-22920242D01*
X14646452Y-22838559D01*
X14782286Y-22782295D01*
X14926487Y-22753611D01*
X15073513Y-22753611D01*
X15217714Y-22782295D01*
G37*
G36*
X18717714Y-21282295D02*
G01*
X18853548Y-21338559D01*
X18975795Y-21420242D01*
X19079758Y-21524205D01*
X19161441Y-21646452D01*
X19217705Y-21782286D01*
X19246389Y-21926487D01*
X19246389Y-22073513D01*
X19217705Y-22217714D01*
X19161441Y-22353548D01*
X19079758Y-22475795D01*
X18975795Y-22579758D01*
X18853548Y-22661441D01*
X18717714Y-22717705D01*
X18573513Y-22746389D01*
X18426487Y-22746389D01*
X18282286Y-22717705D01*
X18146452Y-22661441D01*
X18024205Y-22579758D01*
X17920242Y-22475795D01*
X17838559Y-22353548D01*
X17782295Y-22217714D01*
X17753611Y-22073513D01*
X17753611Y-21926487D01*
X17782295Y-21782286D01*
X17838559Y-21646452D01*
X17920242Y-21524205D01*
X18024205Y-21420242D01*
X18146452Y-21338559D01*
X18282286Y-21282295D01*
X18426487Y-21253611D01*
X18573513Y-21253611D01*
X18717714Y-21282295D01*
G37*
G36*
X14676662Y-18690276D02*
G01*
X14720459Y-18719541D01*
X14749724Y-18763338D01*
X14760000Y-18815000D01*
X14760000Y-19185000D01*
X14749724Y-19236662D01*
X14720459Y-19280459D01*
X14676662Y-19309724D01*
X14625000Y-19320000D01*
X14355000Y-19320000D01*
X14303338Y-19309724D01*
X14259541Y-19280459D01*
X14230276Y-19236662D01*
X14220000Y-19185000D01*
X14220000Y-18815000D01*
X14230276Y-18763338D01*
X14259541Y-18719541D01*
X14303338Y-18690276D01*
X14355000Y-18680000D01*
X14625000Y-18680000D01*
X14676662Y-18690276D01*
G37*
G36*
X15696662Y-18690276D02*
G01*
X15740459Y-18719541D01*
X15769724Y-18763338D01*
X15780000Y-18815000D01*
X15780000Y-19185000D01*
X15769724Y-19236662D01*
X15740459Y-19280459D01*
X15696662Y-19309724D01*
X15645000Y-19320000D01*
X15375000Y-19320000D01*
X15323338Y-19309724D01*
X15279541Y-19280459D01*
X15250276Y-19236662D01*
X15240000Y-19185000D01*
X15240000Y-18815000D01*
X15250276Y-18763338D01*
X15279541Y-18719541D01*
X15323338Y-18690276D01*
X15375000Y-18680000D01*
X15645000Y-18680000D01*
X15696662Y-18690276D01*
G37*
G36*
X17951537Y-17540224D02*
G01*
X18016421Y-17583579D01*
X18059776Y-17648463D01*
X18075000Y-17725000D01*
X18075000Y-18275000D01*
X18059776Y-18351537D01*
X18016421Y-18416421D01*
X17951537Y-18459776D01*
X17875000Y-18475000D01*
X17475000Y-18475000D01*
X17398463Y-18459776D01*
X17333579Y-18416421D01*
X17290224Y-18351537D01*
X17275000Y-18275000D01*
X17275000Y-17725000D01*
X17290224Y-17648463D01*
X17333579Y-17583579D01*
X17398463Y-17540224D01*
X17475000Y-17525000D01*
X17875000Y-17525000D01*
X17951537Y-17540224D01*
G37*
G36*
X19601537Y-17540224D02*
G01*
X19666421Y-17583579D01*
X19709776Y-17648463D01*
X19725000Y-17725000D01*
X19725000Y-18275000D01*
X19709776Y-18351537D01*
X19666421Y-18416421D01*
X19601537Y-18459776D01*
X19525000Y-18475000D01*
X19125000Y-18475000D01*
X19048463Y-18459776D01*
X18983579Y-18416421D01*
X18940224Y-18351537D01*
X18925000Y-18275000D01*
X18925000Y-17725000D01*
X18940224Y-17648463D01*
X18983579Y-17583579D01*
X19048463Y-17540224D01*
X19125000Y-17525000D01*
X19525000Y-17525000D01*
X19601537Y-17540224D01*
G37*
G36*
X6217714Y-16282295D02*
G01*
X6353548Y-16338559D01*
X6475795Y-16420242D01*
X6579758Y-16524205D01*
X6661441Y-16646452D01*
X6717705Y-16782286D01*
X6746389Y-16926487D01*
X6746389Y-17073513D01*
X6717705Y-17217714D01*
X6661441Y-17353548D01*
X6579758Y-17475795D01*
X6475795Y-17579758D01*
X6353548Y-17661441D01*
X6217714Y-17717705D01*
X6073513Y-17746389D01*
X5926487Y-17746389D01*
X5782286Y-17717705D01*
X5646452Y-17661441D01*
X5524205Y-17579758D01*
X5420242Y-17475795D01*
X5338559Y-17353548D01*
X5282295Y-17217714D01*
X5253611Y-17073513D01*
X5253611Y-16926487D01*
X5282295Y-16782286D01*
X5338559Y-16646452D01*
X5420242Y-16524205D01*
X5524205Y-16420242D01*
X5646452Y-16338559D01*
X5782286Y-16282295D01*
X5926487Y-16253611D01*
X6073513Y-16253611D01*
X6217714Y-16282295D01*
G37*
G36*
X17951537Y-15040224D02*
G01*
X18016421Y-15083579D01*
X18059776Y-15148463D01*
X18075000Y-15225000D01*
X18075000Y-15775000D01*
X18059776Y-15851537D01*
X18016421Y-15916421D01*
X17951537Y-15959776D01*
X17875000Y-15975000D01*
X17475000Y-15975000D01*
X17398463Y-15959776D01*
X17333579Y-15916421D01*
X17290224Y-15851537D01*
X17275000Y-15775000D01*
X17275000Y-15225000D01*
X17290224Y-15148463D01*
X17333579Y-15083579D01*
X17398463Y-15040224D01*
X17475000Y-15025000D01*
X17875000Y-15025000D01*
X17951537Y-15040224D01*
G37*
G36*
X19601537Y-15040224D02*
G01*
X19666421Y-15083579D01*
X19709776Y-15148463D01*
X19725000Y-15225000D01*
X19725000Y-15775000D01*
X19709776Y-15851537D01*
X19666421Y-15916421D01*
X19601537Y-15959776D01*
X19525000Y-15975000D01*
X19125000Y-15975000D01*
X19048463Y-15959776D01*
X18983579Y-15916421D01*
X18940224Y-15851537D01*
X18925000Y-15775000D01*
X18925000Y-15225000D01*
X18940224Y-15148463D01*
X18983579Y-15083579D01*
X19048463Y-15040224D01*
X19125000Y-15025000D01*
X19525000Y-15025000D01*
X19601537Y-15040224D01*
G37*
G36*
X18217714Y-11782295D02*
G01*
X18353548Y-11838559D01*
X18475795Y-11920242D01*
X18579758Y-12024205D01*
X18661441Y-12146452D01*
X18717705Y-12282286D01*
X18746389Y-12426487D01*
X18746389Y-12573513D01*
X18717705Y-12717714D01*
X18661441Y-12853548D01*
X18579758Y-12975795D01*
X18475795Y-13079758D01*
X18353548Y-13161441D01*
X18217714Y-13217705D01*
X18073513Y-13246389D01*
X17926487Y-13246389D01*
X17782286Y-13217705D01*
X17646452Y-13161441D01*
X17524205Y-13079758D01*
X17420242Y-12975795D01*
X17338559Y-12853548D01*
X17282295Y-12717714D01*
X17253611Y-12573513D01*
X17253611Y-12426487D01*
X17282295Y-12282286D01*
X17338559Y-12146452D01*
X17420242Y-12024205D01*
X17524205Y-11920242D01*
X17646452Y-11838559D01*
X17782286Y-11782295D01*
X17926487Y-11753611D01*
X18073513Y-11753611D01*
X18217714Y-11782295D01*
G37*
G36*
X14717714Y-10782295D02*
G01*
X14853548Y-10838559D01*
X14975795Y-10920242D01*
X15079758Y-11024205D01*
X15161441Y-11146452D01*
X15217705Y-11282286D01*
X15246389Y-11426487D01*
X15246389Y-11573513D01*
X15217705Y-11717714D01*
X15161441Y-11853548D01*
X15079758Y-11975795D01*
X14975795Y-12079758D01*
X14853548Y-12161441D01*
X14717714Y-12217705D01*
X14573513Y-12246389D01*
X14426487Y-12246389D01*
X14282286Y-12217705D01*
X14146452Y-12161441D01*
X14024205Y-12079758D01*
X13920242Y-11975795D01*
X13838559Y-11853548D01*
X13782295Y-11717714D01*
X13753611Y-11573513D01*
X13753611Y-11426487D01*
X13782295Y-11282286D01*
X13838559Y-11146452D01*
X13920242Y-11024205D01*
X14024205Y-10920242D01*
X14146452Y-10838559D01*
X14282286Y-10782295D01*
X14426487Y-10753611D01*
X14573513Y-10753611D01*
X14717714Y-10782295D01*
G37*
G36*
X19729543Y-7558402D02*
G01*
X19841520Y-7623052D01*
X19932948Y-7714480D01*
X19997598Y-7826457D01*
X20031063Y-7951350D01*
X20031063Y-8080650D01*
X19997598Y-8205543D01*
X19932948Y-8317520D01*
X19841520Y-8408948D01*
X19729543Y-8473598D01*
X19604650Y-8507063D01*
X19475350Y-8507063D01*
X19350457Y-8473598D01*
X19238480Y-8408948D01*
X19147052Y-8317520D01*
X19082402Y-8205543D01*
X19048937Y-8080650D01*
X19048937Y-7951350D01*
X19082402Y-7826457D01*
X19147052Y-7714480D01*
X19238480Y-7623052D01*
X19350457Y-7558402D01*
X19475350Y-7524937D01*
X19604650Y-7524937D01*
X19729543Y-7558402D01*
G37*
G36*
X15880662Y-7271269D02*
G01*
X15969669Y-7322657D01*
X16042343Y-7395331D01*
X16093731Y-7484338D01*
X16120332Y-7583612D01*
X16120332Y-7686388D01*
X16093731Y-7785662D01*
X16042343Y-7874669D01*
X15969669Y-7947343D01*
X15880662Y-7998731D01*
X15781388Y-8025332D01*
X15678612Y-8025332D01*
X15579338Y-7998731D01*
X15490331Y-7947343D01*
X15417657Y-7874669D01*
X15366269Y-7785662D01*
X15339668Y-7686388D01*
X15339668Y-7583612D01*
X15366269Y-7484338D01*
X15417657Y-7395331D01*
X15490331Y-7322657D01*
X15579338Y-7271269D01*
X15678612Y-7244668D01*
X15781388Y-7244668D01*
X15880662Y-7271269D01*
G37*
G36*
X17150662Y-7271269D02*
G01*
X17239669Y-7322657D01*
X17312343Y-7395331D01*
X17363731Y-7484338D01*
X17390332Y-7583612D01*
X17390332Y-7686388D01*
X17363731Y-7785662D01*
X17312343Y-7874669D01*
X17239669Y-7947343D01*
X17150662Y-7998731D01*
X17051388Y-8025332D01*
X16948612Y-8025332D01*
X16849338Y-7998731D01*
X16760331Y-7947343D01*
X16687657Y-7874669D01*
X16636269Y-7785662D01*
X16609668Y-7686388D01*
X16609668Y-7583612D01*
X16636269Y-7484338D01*
X16687657Y-7395331D01*
X16760331Y-7322657D01*
X16849338Y-7271269D01*
X16948612Y-7244668D01*
X17051388Y-7244668D01*
X17150662Y-7271269D01*
G37*
G36*
X18420662Y-7271269D02*
G01*
X18509669Y-7322657D01*
X18582343Y-7395331D01*
X18633731Y-7484338D01*
X18660332Y-7583612D01*
X18660332Y-7686388D01*
X18633731Y-7785662D01*
X18582343Y-7874669D01*
X18509669Y-7947343D01*
X18420662Y-7998731D01*
X18321388Y-8025332D01*
X18218612Y-8025332D01*
X18119338Y-7998731D01*
X18030331Y-7947343D01*
X17957657Y-7874669D01*
X17906269Y-7785662D01*
X17879668Y-7686388D01*
X17879668Y-7583612D01*
X17906269Y-7484338D01*
X17957657Y-7395331D01*
X18030331Y-7322657D01*
X18119338Y-7271269D01*
X18218612Y-7244668D01*
X18321388Y-7244668D01*
X18420662Y-7271269D01*
G37*
G36*
X14649543Y-6542402D02*
G01*
X14761520Y-6607052D01*
X14852948Y-6698480D01*
X14917598Y-6810457D01*
X14951063Y-6935350D01*
X14951063Y-7064650D01*
X14917598Y-7189543D01*
X14852948Y-7301520D01*
X14761520Y-7392948D01*
X14649543Y-7457598D01*
X14524650Y-7491063D01*
X14395350Y-7491063D01*
X14270457Y-7457598D01*
X14158480Y-7392948D01*
X14067052Y-7301520D01*
X14002402Y-7189543D01*
X13968937Y-7064650D01*
X13968937Y-6935350D01*
X14002402Y-6810457D01*
X14067052Y-6698480D01*
X14158480Y-6607052D01*
X14270457Y-6542402D01*
X14395350Y-6508937D01*
X14524650Y-6508937D01*
X14649543Y-6542402D01*
G37*
G36*
X11217714Y-5782295D02*
G01*
X11353548Y-5838559D01*
X11475795Y-5920242D01*
X11579758Y-6024205D01*
X11661441Y-6146452D01*
X11717705Y-6282286D01*
X11746389Y-6426487D01*
X11746389Y-6573513D01*
X11717705Y-6717714D01*
X11661441Y-6853548D01*
X11579758Y-6975795D01*
X11475795Y-7079758D01*
X11353548Y-7161441D01*
X11217714Y-7217705D01*
X11073513Y-7246389D01*
X10926487Y-7246389D01*
X10782286Y-7217705D01*
X10646452Y-7161441D01*
X10524205Y-7079758D01*
X10420242Y-6975795D01*
X10338559Y-6853548D01*
X10282295Y-6717714D01*
X10253611Y-6573513D01*
X10253611Y-6426487D01*
X10282295Y-6282286D01*
X10338559Y-6146452D01*
X10420242Y-6024205D01*
X10524205Y-5920242D01*
X10646452Y-5838559D01*
X10782286Y-5782295D01*
X10926487Y-5753611D01*
X11073513Y-5753611D01*
X11217714Y-5782295D01*
G37*
G36*
X15880662Y-6001269D02*
G01*
X15969669Y-6052657D01*
X16042343Y-6125331D01*
X16093731Y-6214338D01*
X16120332Y-6313612D01*
X16120332Y-6416388D01*
X16093731Y-6515662D01*
X16042343Y-6604669D01*
X15969669Y-6677343D01*
X15880662Y-6728731D01*
X15781388Y-6755332D01*
X15678612Y-6755332D01*
X15579338Y-6728731D01*
X15490331Y-6677343D01*
X15417657Y-6604669D01*
X15366269Y-6515662D01*
X15339668Y-6416388D01*
X15339668Y-6313612D01*
X15366269Y-6214338D01*
X15417657Y-6125331D01*
X15490331Y-6052657D01*
X15579338Y-6001269D01*
X15678612Y-5974668D01*
X15781388Y-5974668D01*
X15880662Y-6001269D01*
G37*
G36*
X17150662Y-6001269D02*
G01*
X17239669Y-6052657D01*
X17312343Y-6125331D01*
X17363731Y-6214338D01*
X17390332Y-6313612D01*
X17390332Y-6416388D01*
X17363731Y-6515662D01*
X17312343Y-6604669D01*
X17239669Y-6677343D01*
X17150662Y-6728731D01*
X17051388Y-6755332D01*
X16948612Y-6755332D01*
X16849338Y-6728731D01*
X16760331Y-6677343D01*
X16687657Y-6604669D01*
X16636269Y-6515662D01*
X16609668Y-6416388D01*
X16609668Y-6313612D01*
X16636269Y-6214338D01*
X16687657Y-6125331D01*
X16760331Y-6052657D01*
X16849338Y-6001269D01*
X16948612Y-5974668D01*
X17051388Y-5974668D01*
X17150662Y-6001269D01*
G37*
G36*
X18420662Y-6001269D02*
G01*
X18509669Y-6052657D01*
X18582343Y-6125331D01*
X18633731Y-6214338D01*
X18660332Y-6313612D01*
X18660332Y-6416388D01*
X18633731Y-6515662D01*
X18582343Y-6604669D01*
X18509669Y-6677343D01*
X18420662Y-6728731D01*
X18321388Y-6755332D01*
X18218612Y-6755332D01*
X18119338Y-6728731D01*
X18030331Y-6677343D01*
X17957657Y-6604669D01*
X17906269Y-6515662D01*
X17879668Y-6416388D01*
X17879668Y-6313612D01*
X17906269Y-6214338D01*
X17957657Y-6125331D01*
X18030331Y-6052657D01*
X18119338Y-6001269D01*
X18218612Y-5974668D01*
X18321388Y-5974668D01*
X18420662Y-6001269D01*
G37*
G36*
X19729543Y-5526402D02*
G01*
X19841520Y-5591052D01*
X19932948Y-5682480D01*
X19997598Y-5794457D01*
X20031063Y-5919350D01*
X20031063Y-6048650D01*
X19997598Y-6173543D01*
X19932948Y-6285520D01*
X19841520Y-6376948D01*
X19729543Y-6441598D01*
X19604650Y-6475063D01*
X19475350Y-6475063D01*
X19350457Y-6441598D01*
X19238480Y-6376948D01*
X19147052Y-6285520D01*
X19082402Y-6173543D01*
X19048937Y-6048650D01*
X19048937Y-5919350D01*
X19082402Y-5794457D01*
X19147052Y-5682480D01*
X19238480Y-5591052D01*
X19350457Y-5526402D01*
X19475350Y-5492937D01*
X19604650Y-5492937D01*
X19729543Y-5526402D01*
G37*
G36*
X6217714Y-4282295D02*
G01*
X6353548Y-4338559D01*
X6475795Y-4420242D01*
X6579758Y-4524205D01*
X6661441Y-4646452D01*
X6717705Y-4782286D01*
X6746389Y-4926487D01*
X6746389Y-5073513D01*
X6717705Y-5217714D01*
X6661441Y-5353548D01*
X6579758Y-5475795D01*
X6475795Y-5579758D01*
X6353548Y-5661441D01*
X6217714Y-5717705D01*
X6073513Y-5746389D01*
X5926487Y-5746389D01*
X5782286Y-5717705D01*
X5646452Y-5661441D01*
X5524205Y-5579758D01*
X5420242Y-5475795D01*
X5338559Y-5353548D01*
X5282295Y-5217714D01*
X5253611Y-5073513D01*
X5253611Y-4926487D01*
X5282295Y-4782286D01*
X5338559Y-4646452D01*
X5420242Y-4524205D01*
X5524205Y-4420242D01*
X5646452Y-4338559D01*
X5782286Y-4282295D01*
X5926487Y-4253611D01*
X6073513Y-4253611D01*
X6217714Y-4282295D01*
G37*
G36*
X15232228Y-1234448D02*
G01*
X15377117Y-1294463D01*
X15507515Y-1381592D01*
X15618408Y-1492485D01*
X15705537Y-1622883D01*
X15765552Y-1767772D01*
X15796148Y-1921586D01*
X15796148Y-2078414D01*
X15765552Y-2232228D01*
X15705537Y-2377117D01*
X15618408Y-2507515D01*
X15507515Y-2618408D01*
X15377117Y-2705537D01*
X15232228Y-2765552D01*
X15078414Y-2796148D01*
X14921586Y-2796148D01*
X14767772Y-2765552D01*
X14622883Y-2705537D01*
X14492485Y-2618408D01*
X14381592Y-2507515D01*
X14294463Y-2377117D01*
X14234448Y-2232228D01*
X14203852Y-2078414D01*
X14203852Y-1921586D01*
X14234448Y-1767772D01*
X14294463Y-1622883D01*
X14381592Y-1492485D01*
X14492485Y-1381592D01*
X14622883Y-1294463D01*
X14767772Y-1234448D01*
X14921586Y-1203852D01*
X15078414Y-1203852D01*
X15232228Y-1234448D01*
G37*
G36*
X81232228Y-1234448D02*
G01*
X81377117Y-1294463D01*
X81507515Y-1381592D01*
X81618408Y-1492485D01*
X81705537Y-1622883D01*
X81765552Y-1767772D01*
X81796148Y-1921586D01*
X81796148Y-2078414D01*
X81765552Y-2232228D01*
X81705537Y-2377117D01*
X81618408Y-2507515D01*
X81507515Y-2618408D01*
X81377117Y-2705537D01*
X81232228Y-2765552D01*
X81078414Y-2796148D01*
X80921586Y-2796148D01*
X80767772Y-2765552D01*
X80622883Y-2705537D01*
X80492485Y-2618408D01*
X80381592Y-2507515D01*
X80294463Y-2377117D01*
X80234448Y-2232228D01*
X80203852Y-2078414D01*
X80203852Y-1921586D01*
X80234448Y-1767772D01*
X80294463Y-1622883D01*
X80381592Y-1492485D01*
X80492485Y-1381592D01*
X80622883Y-1294463D01*
X80767772Y-1234448D01*
X80921586Y-1203852D01*
X81078414Y-1203852D01*
X81232228Y-1234448D01*
G37*
%LPD*%
M02*
