%TF.GenerationSoftware,KiCad,Pcbnew,10.0.5*%
%TF.CreationDate,2026-10-01T19:17:48+08:00*%
%TF.ProjectId,PANDA-STD-CORE-EVT-quilter-j501-merged,50414e44-412d-4535-9444-2d434f52452d,thin17-132-placement-unrouted*%
%TF.SameCoordinates,Original*%
%TF.FileFunction,Copper,L3,Inr*%
%TF.FilePolarity,Positive*%
%FSLAX46Y46*%
G04 Gerber Fmt 4.6, Leading zero omitted, Abs format (unit mm)*
G04 Created by KiCad (PCBNEW 10.0.5) date 2026-10-01 19:17:48*
%MOMM*%
%LPD*%
G01*
G04 APERTURE LIST*
%TA.AperFunction,HeatsinkPad*%
%ADD10C,0.600000*%
%TD*%
%TA.AperFunction,ComponentPad*%
%ADD11O,1.000000X1.800000*%
%TD*%
%TA.AperFunction,ComponentPad*%
%ADD12O,1.000000X2.200000*%
%TD*%
%TA.AperFunction,ViaPad*%
%ADD13C,0.450000*%
%TD*%
%TA.AperFunction,ViaPad*%
%ADD14C,0.400000*%
%TD*%
%TA.AperFunction,Conductor*%
%ADD15C,0.200000*%
%TD*%
%TA.AperFunction,Conductor*%
%ADD16C,0.150000*%
%TD*%
G04 APERTURE END LIST*
D10*
%TO.N,GND*%
%TO.C,U501*%
X88500000Y-60010000D03*
X88500000Y-58610000D03*
X87800000Y-60710000D03*
X87800000Y-59310000D03*
X87800000Y-57910000D03*
X87100000Y-60010000D03*
X87100000Y-58610000D03*
X86400000Y-60710000D03*
X86400000Y-59310000D03*
X86400000Y-57910000D03*
X85700000Y-60010000D03*
X85700000Y-58610000D03*
%TD*%
D11*
%TO.N,GND*%
%TO.C,J201*%
X33380000Y-62400000D03*
D12*
X33380000Y-66400000D03*
D11*
X44620000Y-62400000D03*
D12*
X44620000Y-66400000D03*
%TD*%
D13*
%TO.N,SDMMC_D1_CARD*%
X93319200Y-23295000D03*
X58979500Y-26923300D03*
D14*
%TO.N,3V3_SD*%
X25500000Y-15532700D03*
D13*
X34578200Y-15437800D03*
D14*
X30800000Y-15300000D03*
D13*
X34510000Y-23802300D03*
X16045700Y-25589700D03*
X20937700Y-15972200D03*
X29524800Y-23842200D03*
X93301400Y-18276700D03*
%TO.N,USB_DM*%
X68703700Y-62395800D03*
X40487500Y-59978100D03*
X38340000Y-59429300D03*
%TO.N,USB_DM_MCU*%
X70714700Y-61057800D03*
X93217900Y-51790000D03*
%TO.N,SDMMC_D2_CARD*%
X14288100Y-26911000D03*
X13012400Y-18697800D03*
X91715200Y-17084400D03*
%TO.N,SDMMC_D3_CARD*%
X56808500Y-21946900D03*
X18152200Y-16737900D03*
%TO.N,SDMMC_CMD_CARD*%
X92697700Y-18126500D03*
X34608300Y-26926600D03*
%TO.N,GND*%
X36023400Y-4618700D03*
X27378200Y-21240800D03*
X45237900Y-4548200D03*
X45669900Y-31720400D03*
X12188400Y-34650000D03*
X19094200Y-19192000D03*
X15379500Y-39518600D03*
X39106200Y-20250000D03*
X43181700Y-24325500D03*
X14798400Y-57654200D03*
X33678200Y-20461200D03*
X11463900Y-24434300D03*
X32533500Y-58354000D03*
X19544400Y-17068200D03*
X8136300Y-38120000D03*
X51092300Y-7694100D03*
X7377600Y-3977600D03*
X45764700Y-940500D03*
%TO.N,SDMMC_D0_CARD*%
X93310700Y-22245000D03*
X27490000Y-25199100D03*
%TO.N,SD_CD*%
X20357600Y-16795000D03*
X12686700Y-24294600D03*
X88100000Y-14006600D03*
%TO.N,3V3_AON*%
X93204800Y-65760000D03*
X16182700Y-12049700D03*
X16206100Y-61121100D03*
X73274700Y-57010000D03*
X74543600Y-60326000D03*
X27139500Y-9189700D03*
X34821600Y-11791500D03*
X2720100Y-21302500D03*
X15247000Y-14802900D03*
X16252400Y-24651800D03*
X12347300Y-23671900D03*
X1380900Y-25529500D03*
%TO.N,CHIP_PU*%
X56091300Y-3131800D03*
X93220800Y-64490000D03*
X73892900Y-54417900D03*
X16924200Y-3131800D03*
%TO.N,VSYS_FL_IN*%
X3256000Y-58116800D03*
X7097900Y-51000000D03*
%TO.N,FL_VIN*%
X4164600Y-49742100D03*
X5776600Y-57000000D03*
%TO.N,VSYS_RAW*%
X39015900Y-10648100D03*
X35217600Y-19430100D03*
%TO.N,3V3_AON_SRC*%
X54500000Y-5400000D03*
X35367400Y-5704900D03*
%TO.N,EXP_INT*%
X64555500Y-61919100D03*
X15798200Y-21193000D03*
X93221100Y-63220000D03*
X29675400Y-21611600D03*
X21207700Y-22075700D03*
X16899100Y-22848900D03*
X11711800Y-4511800D03*
%TO.N,I2C_SCL*%
X30979200Y-8378500D03*
X48058600Y-9460500D03*
X81257300Y-50665500D03*
X50404500Y-29942900D03*
X24798900Y-20174200D03*
X18347800Y-14326200D03*
X1473000Y-51600000D03*
X14360100Y-54251000D03*
X55792700Y-56073900D03*
X79324200Y-56000000D03*
X883300Y-20725200D03*
X30102000Y-9106300D03*
X60391900Y-56000000D03*
X40755100Y-30630300D03*
%TO.N,I2C_SDA*%
X20271800Y-21158000D03*
X16919300Y-11969700D03*
X4651300Y-37368300D03*
X90675200Y-11039200D03*
X24368500Y-29108100D03*
X39779600Y-30881500D03*
X882700Y-21500700D03*
X51430200Y-7180800D03*
X31055300Y-10648700D03*
X95502500Y-58140000D03*
X50630700Y-11049200D03*
X23993600Y-21620400D03*
%TO.N,RTC_VBACKUP*%
X46602600Y-20303900D03*
X20113400Y-18096000D03*
%TO.N,3V3_TOUCH*%
X43495400Y-12687600D03*
X11546900Y-3146900D03*
X9966300Y-37368300D03*
%TO.N,VSYS_AUDIO*%
X29744600Y-20654500D03*
X13425000Y-29105200D03*
X9574500Y-19975000D03*
%TO.N,3V3_EPD_LOGIC*%
X12717700Y-9287500D03*
%TO.N,3V3_TOUCH_SW*%
X36824200Y-16364200D03*
X43019800Y-16303500D03*
%TO.N,FL_PWM*%
X21389800Y-18907900D03*
X6827200Y-49152000D03*
X12297500Y-56710200D03*
%TO.N,EN_3V3_TOUCH*%
X26930700Y-16696000D03*
X41984700Y-17765700D03*
%TO.N,BQ_CE*%
X41495000Y-1055000D03*
D14*
X51200000Y-6450000D03*
D13*
X31849300Y-13341300D03*
X31271600Y-16557600D03*
%TO.N,EN_3V3_EPD_LOGIC*%
X25819600Y-3755900D03*
X27259000Y-17771500D03*
X22806400Y-30700000D03*
%TO.N,EN_VSYS_AUDIO*%
X29646500Y-16970700D03*
X43324500Y-17014200D03*
%TO.N,FUEL_GPOUT*%
X26240000Y-11156500D03*
X40771600Y-34300000D03*
X37572900Y-16785600D03*
X27154600Y-16047400D03*
D14*
%TO.N,BQ_INT*%
X30000000Y-15550000D03*
D13*
X37476500Y-3631500D03*
D14*
X49100000Y-8050000D03*
D13*
X52034300Y-7092300D03*
X31869900Y-12137700D03*
%TO.N,BQ_STAT*%
X46076200Y-13131500D03*
X47450000Y-10124500D03*
X29644900Y-14942600D03*
%TO.N,BQ_PG*%
X47104600Y-11452000D03*
X25164500Y-15042500D03*
%TO.N,IMU_INT1*%
X21629000Y-15621100D03*
X3090200Y-22939800D03*
%TO.N,PG_3V3_MAIN*%
X14556900Y-10360700D03*
X23990300Y-16601300D03*
%TO.N,FL_HWEN*%
X3500000Y-49955000D03*
X20500500Y-18812500D03*
%TO.N,TOUCH_RST*%
X23921100Y-19215500D03*
X22779700Y-41000000D03*
%TO.N,EPD_D2*%
X35282200Y-58283200D03*
X78002800Y-57844900D03*
X32573700Y-55148500D03*
%TO.N,SGM41513_PMID*%
X44537300Y-6833300D03*
X51017600Y-5881700D03*
%TO.N,BAT_CONN_P*%
X39032200Y-9040100D03*
X48454600Y-20802300D03*
X42614400Y-28910400D03*
%TO.N,BAT_PACKP*%
X39633700Y-9298200D03*
X44581400Y-13925200D03*
X47693700Y-31079300D03*
X48002000Y-4171700D03*
X48313900Y-10391200D03*
%TO.N,SDMMC_D1*%
X90826900Y-53487000D03*
X58411300Y-26267700D03*
%TO.N,VBUS_USB*%
X45430100Y-9146500D03*
X47502300Y-62062800D03*
X36977700Y-60298000D03*
X41468000Y-59919400D03*
%TO.N,SDMMC_D0*%
X93199100Y-59410000D03*
X91025600Y-27751700D03*
X25392200Y-26801600D03*
%TO.N,FUEL_VDD*%
X37825000Y-30125800D03*
X36167000Y-16753200D03*
%TO.N,USB_DP*%
X37449300Y-57700000D03*
X70990000Y-58124700D03*
X38969300Y-59812400D03*
D14*
X39750000Y-61250000D03*
D13*
%TO.N,USB_CC1*%
X53298000Y-61136900D03*
X37820800Y-60171200D03*
X39500000Y-59240300D03*
%TO.N,EPD_D3*%
X75699200Y-59694400D03*
X35740000Y-58738900D03*
%TO.N,BQ_TS*%
X49804600Y-19072700D03*
X39785800Y-21460800D03*
X49837400Y-6050000D03*
X47861100Y-18823100D03*
X39776900Y-29381500D03*
X25775300Y-19079900D03*
%TO.N,BQ_QON*%
X49735200Y-4914800D03*
X6173000Y-11338900D03*
%TO.N,USB_DP_MCU*%
X79721200Y-51494000D03*
X72359800Y-58153300D03*
%TO.N,SGM41513_REGN*%
X43114900Y-9155900D03*
D14*
X45300000Y-7050000D03*
D13*
X20492400Y-8943700D03*
%TO.N,GPIO0*%
X18825600Y-7079400D03*
X59234400Y-9800000D03*
X75718100Y-53665300D03*
%TO.N,SDMMC_CLK*%
X93216800Y-61950000D03*
X63500000Y-28580200D03*
%TO.N,3V3_EPD_LOGIC_SW*%
X23700000Y-29792900D03*
X21684600Y-12012500D03*
%TO.N,KEY_POWER_MCU*%
X36695200Y-13848500D03*
X3731200Y-9331200D03*
X71661100Y-60171300D03*
%TO.N,SPK_P*%
X8534200Y-12653600D03*
X12047400Y-29107500D03*
%TO.N,SPK_N*%
X12101600Y-26275700D03*
X10201000Y-11336200D03*
%TO.N,EPD_D5*%
X81155000Y-48142100D03*
X51348200Y-49921900D03*
%TO.N,SDMMC_CMD*%
X93220400Y-60680000D03*
X40416600Y-59279300D03*
X32256900Y-27917500D03*
%TO.N,I2S_LRCLK*%
X13134300Y-36903000D03*
X81710400Y-46587500D03*
%TO.N,I2S_BCLK*%
X14385000Y-34926800D03*
X81308100Y-46110700D03*
%TO.N,I2S_DIN*%
X17018400Y-36760000D03*
X84812900Y-48116200D03*
%TO.N,FL_W_N*%
X6539400Y-53000000D03*
X8128100Y-44400800D03*
%TO.N,FL_C_N*%
X6819000Y-52400000D03*
X5600000Y-45140900D03*
%TO.N,SDMMC_D2*%
X90045000Y-48139700D03*
X11982300Y-27400000D03*
%TO.N,EPD_LE*%
X92585000Y-48110100D03*
%TO.N,UART0_RX*%
X57067300Y-8935600D03*
X22148600Y-7476600D03*
X75706800Y-62402900D03*
%TO.N,UART0_TX*%
X20262400Y-5048400D03*
X56071300Y-8449000D03*
X75721700Y-63220000D03*
%TO.N,EPD_D2*%
X56125000Y-59450000D03*
%TO.N,EPD_D1*%
X72775000Y-57650000D03*
%TO.N,EPD_D0*%
X75425000Y-56500000D03*
%TO.N,EPD_D5*%
X57725000Y-58650000D03*
X56250000Y-54325000D03*
%TO.N,EPD_D4*%
X75725000Y-60700000D03*
%TO.N,EPD_D3*%
X54250000Y-60150000D03*
%TO.N,3V3_EPD_LOGIC*%
X63075000Y-58650000D03*
X63625000Y-61975000D03*
%TO.N,GND*%
X55400000Y-62075000D03*
X66000000Y-58650000D03*
%TO.N,3V3_EPD_LOGIC*%
X52058100Y-54995000D03*
X31977900Y-52895600D03*
X60650000Y-53450000D03*
%TD*%
%TO.N,SDMMC_D1_CARD*%
D15*
X62607800Y-23295000D02*
X93319200Y-23295000D01*
X58979500Y-26923300D02*
X62607800Y-23295000D01*
%TO.N,3V3_SD*%
X30489000Y-15627600D02*
X34388400Y-15627600D01*
X46892900Y-13529800D02*
X88834700Y-13529800D01*
X88834700Y-13529800D02*
X93301400Y-17996500D01*
X22391500Y-15532700D02*
X25500000Y-15532700D01*
X44984900Y-15437800D02*
X46892900Y-13529800D01*
X30800000Y-15300000D02*
X30489000Y-15627600D01*
X34388400Y-15627600D02*
X34578200Y-15437800D01*
X34470100Y-23842200D02*
X29524800Y-23842200D01*
X29524800Y-23842200D02*
X27610800Y-25756200D01*
X27610800Y-25756200D02*
X16212200Y-25756200D01*
X16212200Y-25756200D02*
X16045700Y-25589700D01*
X34510000Y-23802300D02*
X34470100Y-23842200D01*
X93301400Y-17996500D02*
X93301400Y-18276700D01*
X21826400Y-16097800D02*
X22391500Y-15532700D01*
X20937700Y-15972200D02*
X21063300Y-16097800D01*
X34578200Y-15437800D02*
X44984900Y-15437800D01*
X21063300Y-16097800D02*
X21826400Y-16097800D01*
%TO.N,USB_DM*%
X40889100Y-60747900D02*
X45020000Y-60747900D01*
X40144600Y-60806500D02*
X40830500Y-60806500D01*
X45020000Y-60747900D02*
X46852900Y-62580800D01*
X39209900Y-60747900D02*
X40086000Y-60747900D01*
X38340000Y-59429300D02*
X38340000Y-59878000D01*
X40830500Y-60806500D02*
X40889100Y-60747900D01*
X46852900Y-62580800D02*
X68518700Y-62580800D01*
X40086000Y-60747900D02*
X40144600Y-60806500D01*
X38340000Y-59878000D02*
X39209900Y-60747900D01*
X68518700Y-62580800D02*
X68703700Y-62395800D01*
%TO.N,USB_DM_MCU*%
X70714700Y-61057800D02*
X70860300Y-61203400D01*
X87663000Y-57344900D02*
X93217900Y-51790000D01*
X75925300Y-61203400D02*
X79783800Y-57344900D01*
X70860300Y-61203400D02*
X75925300Y-61203400D01*
X79783800Y-57344900D02*
X87663000Y-57344900D01*
%TO.N,SDMMC_D2_CARD*%
X14575800Y-22351500D02*
X14575800Y-26623300D01*
X14575800Y-22351500D02*
X14575800Y-20261200D01*
X21010400Y-22552400D02*
X29231900Y-22552400D01*
X14575800Y-26623300D02*
X14288100Y-26911000D01*
X29231900Y-22552400D02*
X29360300Y-22424000D01*
X86375600Y-22424000D02*
X91715200Y-17084400D01*
X29360300Y-22424000D02*
X86375600Y-22424000D01*
X20809500Y-22351500D02*
X21010400Y-22552400D01*
X14575800Y-20261200D02*
X13012400Y-18697800D01*
X14575800Y-22351500D02*
X20809500Y-22351500D01*
%TO.N,SDMMC_D3_CARD*%
X19922600Y-18849000D02*
X18152200Y-17078600D01*
X19922600Y-18941300D02*
X19922600Y-18849000D01*
X56808500Y-21946900D02*
X31711100Y-21946900D01*
X29456400Y-19692200D02*
X20673500Y-19692200D01*
X20673500Y-19692200D02*
X19922600Y-18941300D01*
X18152200Y-17078600D02*
X18152200Y-16737900D01*
X31711100Y-21946900D02*
X29456400Y-19692200D01*
%TO.N,SDMMC_CMD_CARD*%
X89983900Y-27400000D02*
X35081700Y-27400000D01*
X93809000Y-23574900D02*
X89983900Y-27400000D01*
X92697700Y-18362900D02*
X93809000Y-19474200D01*
X35081700Y-27400000D02*
X34608300Y-26926600D01*
X92697700Y-18126500D02*
X92697700Y-18362900D01*
X93809000Y-19474200D02*
X93809000Y-23574900D01*
%TO.N,GND*%
X21045900Y-21143700D02*
X19094200Y-19192000D01*
X9534900Y-39518600D02*
X8136300Y-38120000D01*
X33889400Y-20250000D02*
X39106200Y-20250000D01*
X45167400Y-4618700D02*
X45237900Y-4548200D01*
X36023400Y-4618700D02*
X45167400Y-4618700D01*
X14798400Y-57654200D02*
X31833700Y-57654200D01*
X27281100Y-21143700D02*
X21045900Y-21143700D01*
X31833700Y-57654200D02*
X32533500Y-58354000D01*
X27378200Y-21240800D02*
X27281100Y-21143700D01*
X33678200Y-20461200D02*
X33889400Y-20250000D01*
X15379500Y-39518600D02*
X9534900Y-39518600D01*
%TO.N,SDMMC_D0_CARD*%
X27490000Y-25199100D02*
X29840900Y-22848200D01*
X29840900Y-22848200D02*
X92707500Y-22848200D01*
X92707500Y-22848200D02*
X93310700Y-22245000D01*
%TO.N,SD_CD*%
X35417800Y-18345400D02*
X83761200Y-18345400D01*
X83761200Y-18345400D02*
X88100000Y-14006600D01*
X20854900Y-16795000D02*
X22309700Y-18249800D01*
X20357600Y-16795000D02*
X20854900Y-16795000D01*
X22309700Y-18249800D02*
X35322200Y-18249800D01*
X35322200Y-18249800D02*
X35417800Y-18345400D01*
%TO.N,3V3_AON*%
X47659100Y-57794800D02*
X47203200Y-58250700D01*
X27595000Y-9645200D02*
X32675300Y-9645200D01*
X34946600Y-57805300D02*
X31630800Y-61121100D01*
X12347300Y-23671900D02*
X3133700Y-23671900D01*
X2565100Y-21457500D02*
X2720100Y-21302500D01*
X47203200Y-58250700D02*
X43244200Y-58250700D01*
X42175200Y-57181700D02*
X37293600Y-57181700D01*
X55554000Y-57794800D02*
X47659100Y-57794800D01*
X27139500Y-9189700D02*
X27595000Y-9645200D01*
X56338800Y-57010000D02*
X55554000Y-57794800D01*
X2565100Y-23103300D02*
X2565100Y-21457500D01*
X73274700Y-57010000D02*
X56338800Y-57010000D01*
X36670000Y-57805300D02*
X34946600Y-57805300D01*
X32675300Y-9645200D02*
X34821600Y-11791500D01*
X43244200Y-58250700D02*
X42175200Y-57181700D01*
X37293600Y-57181700D02*
X36670000Y-57805300D01*
X3133700Y-23671900D02*
X2565100Y-23103300D01*
X31630800Y-61121100D02*
X16206100Y-61121100D01*
%TO.N,CHIP_PU*%
X56091300Y-3131800D02*
X16924200Y-3131800D01*
%TO.N,3V3_AON_SRC*%
X54500000Y-5400000D02*
X36413500Y-5400000D01*
X36108600Y-5704900D02*
X35367400Y-5704900D01*
X36413500Y-5400000D02*
X36108600Y-5704900D01*
%TO.N,EXP_INT*%
X91920200Y-61919100D02*
X64555500Y-61919100D01*
X29189900Y-22097100D02*
X29675400Y-21611600D01*
X21207700Y-22075700D02*
X21229100Y-22097100D01*
X93221100Y-63220000D02*
X91920200Y-61919100D01*
X21229100Y-22097100D02*
X29189900Y-22097100D01*
%TO.N,I2C_SCL*%
X79324200Y-56000000D02*
X60391900Y-56000000D01*
X1473000Y-51600000D02*
X4124000Y-54251000D01*
X7282300Y-14326200D02*
X883300Y-20725200D01*
X50404500Y-29942900D02*
X41442500Y-29942900D01*
X4124000Y-54251000D02*
X14360100Y-54251000D01*
X47874000Y-9645100D02*
X48058600Y-9460500D01*
X39960900Y-9645100D02*
X47874000Y-9645100D01*
X38464800Y-9206900D02*
X39032800Y-9774900D01*
X39032800Y-9774900D02*
X39831100Y-9774900D01*
X60391900Y-56000000D02*
X55866600Y-56000000D01*
X30102000Y-9106300D02*
X30202600Y-9206900D01*
X30202600Y-9206900D02*
X38464800Y-9206900D01*
X18347800Y-14326200D02*
X7282300Y-14326200D01*
X55866600Y-56000000D02*
X55792700Y-56073900D01*
X41442500Y-29942900D02*
X40755100Y-30630300D01*
X39831100Y-9774900D02*
X39960900Y-9645100D01*
%TO.N,I2C_SDA*%
X18240300Y-10648700D02*
X31055300Y-10648700D01*
X50556800Y-10975300D02*
X46552200Y-10975300D01*
X20704800Y-21591000D02*
X23964200Y-21591000D01*
X44320400Y-13207100D02*
X33613700Y-13207100D01*
X46552200Y-10975300D02*
X44320400Y-13207100D01*
X20271800Y-21158000D02*
X20704800Y-21591000D01*
X26141900Y-30881500D02*
X39779600Y-30881500D01*
X50630700Y-11049200D02*
X50640700Y-11039200D01*
X50640700Y-11039200D02*
X90675200Y-11039200D01*
X23964200Y-21591000D02*
X23993600Y-21620400D01*
X16919300Y-11969700D02*
X18240300Y-10648700D01*
X33613700Y-13207100D02*
X31055300Y-10648700D01*
X24368500Y-29108100D02*
X26141900Y-30881500D01*
X50630700Y-11049200D02*
X50556800Y-10975300D01*
%TO.N,RTC_VBACKUP*%
X45018200Y-18719500D02*
X35294600Y-18719500D01*
X35176600Y-18601500D02*
X21916700Y-18601500D01*
X46602600Y-20303900D02*
X45018200Y-18719500D01*
X21411200Y-18096000D02*
X20113400Y-18096000D01*
X35294600Y-18719500D02*
X35176600Y-18601500D01*
X21916700Y-18601500D02*
X21411200Y-18096000D01*
%TO.N,3V3_TOUCH*%
X19211700Y-10171800D02*
X31837300Y-10171800D01*
X12186800Y-3146900D02*
X19211700Y-10171800D01*
X31837300Y-10171800D02*
X34353100Y-12687600D01*
X11546900Y-3146900D02*
X12186800Y-3146900D01*
X34353100Y-12687600D02*
X43495400Y-12687600D01*
%TO.N,VSYS_AUDIO*%
X19570900Y-19116400D02*
X19570900Y-18994600D01*
X19570900Y-18994600D02*
X18774100Y-18197800D01*
X21109000Y-20654500D02*
X19570900Y-19116400D01*
X29744600Y-20654500D02*
X21109000Y-20654500D01*
X18774100Y-18197800D02*
X11351700Y-18197800D01*
X11351700Y-18197800D02*
X9574500Y-19975000D01*
%TO.N,3V3_TOUCH_SW*%
X36884900Y-16303500D02*
X36824200Y-16364200D01*
X43019800Y-16303500D02*
X36884900Y-16303500D01*
%TO.N,EN_3V3_TOUCH*%
X41764200Y-17986200D02*
X41984700Y-17765700D01*
X35555900Y-17986200D02*
X41764200Y-17986200D01*
X35308800Y-17739100D02*
X35555900Y-17986200D01*
X27973800Y-17739100D02*
X35308800Y-17739100D01*
X26930700Y-16696000D02*
X27973800Y-17739100D01*
%TO.N,EN_VSYS_AUDIO*%
X35826600Y-17584400D02*
X36775700Y-17584400D01*
X43076400Y-17262300D02*
X43324500Y-17014200D01*
X35276500Y-17034300D02*
X35826600Y-17584400D01*
X29710100Y-17034300D02*
X35276500Y-17034300D01*
X36775700Y-17584400D02*
X37097800Y-17262300D01*
X37097800Y-17262300D02*
X43076400Y-17262300D01*
X29646500Y-16970700D02*
X29710100Y-17034300D01*
%TO.N,FUEL_GPOUT*%
X35972200Y-17232700D02*
X34786900Y-16047400D01*
X36630100Y-17232700D02*
X35972200Y-17232700D01*
X37572900Y-16785600D02*
X37077200Y-16785600D01*
X37077200Y-16785600D02*
X36630100Y-17232700D01*
X34786900Y-16047400D02*
X27154600Y-16047400D01*
%TO.N,BQ_INT*%
X55013900Y-5615600D02*
X53537200Y-7092300D01*
X37476500Y-3631500D02*
X53424500Y-3631500D01*
X53537200Y-7092300D02*
X52034300Y-7092300D01*
X55013900Y-5220900D02*
X55013900Y-5615600D01*
X53424500Y-3631500D02*
X55013900Y-5220900D01*
%TO.N,BQ_STAT*%
X44855800Y-14849200D02*
X35926700Y-14849200D01*
X29913400Y-14674100D02*
X29644900Y-14942600D01*
X35751600Y-14674100D02*
X29913400Y-14674100D01*
X35926700Y-14849200D02*
X35751600Y-14674100D01*
X46076200Y-13131500D02*
X46076200Y-13628800D01*
X46076200Y-13628800D02*
X44855800Y-14849200D01*
%TO.N,BQ_PG*%
X36010500Y-14260500D02*
X25946500Y-14260500D01*
X25946500Y-14260500D02*
X25164500Y-15042500D01*
X47039900Y-11452000D02*
X45343500Y-13148400D01*
X45343500Y-13148400D02*
X45343500Y-13864200D01*
X36160000Y-14410000D02*
X36010500Y-14260500D01*
X47104600Y-11452000D02*
X47039900Y-11452000D01*
X45343500Y-13864200D02*
X44797700Y-14410000D01*
X44797700Y-14410000D02*
X36160000Y-14410000D01*
%TO.N,IMU_INT1*%
X10595800Y-15434200D02*
X3090200Y-22939800D01*
X21629000Y-15621100D02*
X21442100Y-15434200D01*
X21442100Y-15434200D02*
X10595800Y-15434200D01*
%TO.N,EPD_D2*%
X37613400Y-58210200D02*
X35355200Y-58210200D01*
X41774700Y-58060100D02*
X37763500Y-58060100D01*
X53932200Y-59605100D02*
X47924700Y-59605100D01*
X66511300Y-59253500D02*
X66158200Y-59606600D01*
X66158200Y-59606600D02*
X53933700Y-59606600D01*
X35355200Y-58210200D02*
X35282200Y-58283200D01*
X53933700Y-59606600D02*
X53932200Y-59605100D01*
X47309000Y-58989400D02*
X42704000Y-58989400D01*
X47924700Y-59605100D02*
X47309000Y-58989400D01*
X75334200Y-59253500D02*
X66511300Y-59253500D01*
X37763500Y-58060100D02*
X37613400Y-58210200D01*
X78002800Y-57844900D02*
X76742800Y-57844900D01*
X76742800Y-57844900D02*
X75334200Y-59253500D01*
X42704000Y-58989400D02*
X41774700Y-58060100D01*
%TO.N,SGM41513_PMID*%
D16*
X44750000Y-6150000D02*
X45850000Y-6150000D01*
X44537300Y-6833300D02*
X44750000Y-6150000D01*
X46050000Y-6833300D02*
X50066000Y-6833300D01*
X45850000Y-6150000D02*
X46050000Y-6833300D01*
D15*
X50066000Y-6833300D02*
X51017600Y-5881700D01*
%TO.N,SDMMC_D0*%
X34742600Y-27751700D02*
X33792500Y-26801600D01*
X91025600Y-27751700D02*
X34742600Y-27751700D01*
X33792500Y-26801600D02*
X25392200Y-26801600D01*
%TO.N,USB_DP*%
X47348900Y-58602300D02*
X47348900Y-58602400D01*
X42814300Y-58602400D02*
X41911900Y-57700000D01*
X41911900Y-57700000D02*
X37449300Y-57700000D01*
X70990000Y-58124700D02*
X70968200Y-58146500D01*
X47348900Y-58602400D02*
X42814300Y-58602400D01*
X47804700Y-58146500D02*
X47348900Y-58602300D01*
X70968200Y-58146500D02*
X47804700Y-58146500D01*
%TO.N,USB_CC1*%
X40743500Y-60396200D02*
X45340800Y-60396200D01*
X39500000Y-59664600D02*
X40290200Y-60454800D01*
X46081500Y-61136900D02*
X53298000Y-61136900D01*
X39500000Y-59240300D02*
X39500000Y-59664600D01*
X45340800Y-60396200D02*
X46081500Y-61136900D01*
X40290200Y-60454800D02*
X40684900Y-60454800D01*
X40684900Y-60454800D02*
X40743500Y-60396200D01*
%TO.N,EPD_D3*%
X41629100Y-58411800D02*
X37909100Y-58411800D01*
X66478600Y-59958300D02*
X53788100Y-59958300D01*
X37582000Y-58738900D02*
X35740000Y-58738900D01*
X66742500Y-59694400D02*
X66478600Y-59958300D01*
X46988200Y-59341100D02*
X42558400Y-59341100D01*
X53788100Y-59958300D02*
X53786600Y-59956800D01*
X42558400Y-59341100D02*
X41629100Y-58411800D01*
X53786600Y-59956800D02*
X47603900Y-59956800D01*
X75699200Y-59694400D02*
X66742500Y-59694400D01*
X47603900Y-59956800D02*
X46988200Y-59341100D01*
X37909100Y-58411800D02*
X37582000Y-58738900D01*
%TO.N,BQ_TS*%
X33498600Y-20955700D02*
X39785800Y-20955700D01*
X39785800Y-20955700D02*
X46736800Y-20955700D01*
X39785800Y-20955700D02*
X39785800Y-21460800D01*
X31622800Y-19079900D02*
X33498600Y-20955700D01*
X48110700Y-19581800D02*
X48110700Y-19072700D01*
X46736800Y-20955700D02*
X48110700Y-19581800D01*
X48110700Y-19072700D02*
X47861100Y-18823100D01*
X25775300Y-19079900D02*
X31622800Y-19079900D01*
X49804600Y-19072700D02*
X48110700Y-19072700D01*
%TO.N,BQ_QON*%
X35268800Y-4538100D02*
X35826100Y-5095400D01*
X36220800Y-5095400D02*
X36278800Y-5037400D01*
X6173000Y-7750400D02*
X11288700Y-2634700D01*
X35826100Y-5095400D02*
X36220800Y-5095400D01*
X13537800Y-2634700D02*
X15441200Y-4538100D01*
X36278800Y-5037400D02*
X49612600Y-5037400D01*
X11288700Y-2634700D02*
X13537800Y-2634700D01*
X49612600Y-5037400D02*
X49735200Y-4914800D01*
X6173000Y-11338900D02*
X6173000Y-7750400D01*
X15441200Y-4538100D02*
X35268800Y-4538100D01*
%TO.N,SGM41513_REGN*%
X20860300Y-8575800D02*
X30502500Y-8575800D01*
X20492400Y-8943700D02*
X20860300Y-8575800D01*
X37564500Y-8855200D02*
X37863900Y-8555800D01*
X42514800Y-8555800D02*
X43114900Y-9155900D01*
X37863900Y-8555800D02*
X42514800Y-8555800D01*
X30502500Y-8575800D02*
X30781900Y-8855200D01*
X30781900Y-8855200D02*
X37564500Y-8855200D01*
%TO.N,GPIO0*%
X18905000Y-7000000D02*
X20975400Y-7000000D01*
X31571500Y-8296700D02*
X37625700Y-8296700D01*
X22403400Y-7977000D02*
X22478600Y-7901800D01*
X47825800Y-8365100D02*
X49260700Y-9800000D01*
X37625700Y-8296700D02*
X37718300Y-8204100D01*
X22478600Y-7901800D02*
X31176600Y-7901800D01*
X20975400Y-7000000D02*
X21952400Y-7977000D01*
X37718300Y-8204100D02*
X43742200Y-8204100D01*
X31176600Y-7901800D02*
X31571500Y-8296700D01*
X43742200Y-8204100D02*
X43903200Y-8365100D01*
X49260700Y-9800000D02*
X59234400Y-9800000D01*
X21952400Y-7977000D02*
X22403400Y-7977000D01*
X43903200Y-8365100D02*
X47825800Y-8365100D01*
X18825600Y-7079400D02*
X18905000Y-7000000D01*
%TO.N,KEY_POWER_MCU*%
X3731200Y-9571100D02*
X3731200Y-9331200D01*
X8008600Y-13848500D02*
X3731200Y-9571100D01*
X36695200Y-13848500D02*
X8008600Y-13848500D01*
%TO.N,EPD_D5*%
X81155000Y-48142100D02*
X60999900Y-48142100D01*
X59627400Y-49514600D02*
X51755500Y-49514600D01*
X60999900Y-48142100D02*
X59627400Y-49514600D01*
X51755500Y-49514600D02*
X51348200Y-49921900D01*
%TO.N,SDMMC_CMD*%
X93220400Y-60680000D02*
X92341900Y-61558500D01*
X53496900Y-60661700D02*
X53495400Y-60660200D01*
X46697000Y-60044500D02*
X42267100Y-60044500D01*
X68697600Y-60661700D02*
X53496900Y-60661700D01*
X42267100Y-60044500D02*
X41944700Y-59722100D01*
X53495400Y-60660200D02*
X47312700Y-60660200D01*
X41944700Y-59722000D02*
X41502000Y-59279300D01*
X92341900Y-61558500D02*
X69594400Y-61558500D01*
X69594400Y-61558500D02*
X68697600Y-60661700D01*
X41944700Y-59722100D02*
X41944700Y-59722000D01*
X41502000Y-59279300D02*
X40416600Y-59279300D01*
X47312700Y-60660200D02*
X46697000Y-60044500D01*
%TO.N,I2S_LRCLK*%
X13438000Y-36903000D02*
X13134300Y-36903000D01*
X81710400Y-46587500D02*
X59903700Y-46587500D01*
X59665400Y-46825800D02*
X23360800Y-46825800D01*
X23360800Y-46825800D02*
X13438000Y-36903000D01*
X59903700Y-46587500D02*
X59665400Y-46825800D01*
%TO.N,I2S_BCLK*%
X81308100Y-46110700D02*
X81069800Y-45872400D01*
X25330600Y-45872400D02*
X14385000Y-34926800D01*
X81069800Y-45872400D02*
X25330600Y-45872400D01*
%TO.N,I2S_DIN*%
X73456700Y-36760000D02*
X17018400Y-36760000D01*
X84812900Y-48116200D02*
X73456700Y-36760000D01*
%TO.N,SDMMC_D2*%
X70008700Y-28103400D02*
X90045000Y-48139700D01*
X33805900Y-27400000D02*
X34509300Y-28103400D01*
X11982300Y-27400000D02*
X33805900Y-27400000D01*
X34509300Y-28103400D02*
X70008700Y-28103400D01*
%TO.N,UART0_RX*%
X37480100Y-7945000D02*
X37572700Y-7852400D01*
X48893600Y-8935600D02*
X57067300Y-8935600D01*
X31248700Y-7476600D02*
X31717100Y-7945000D01*
X22148600Y-7476600D02*
X31248700Y-7476600D01*
X31717100Y-7945000D02*
X37480100Y-7945000D01*
X47971400Y-8013400D02*
X48893600Y-8935600D01*
X43887800Y-7852400D02*
X44048800Y-8013400D01*
X37572700Y-7852400D02*
X43887800Y-7852400D01*
X44048800Y-8013400D02*
X47971400Y-8013400D01*
%TO.N,UART0_TX*%
X44033400Y-7500700D02*
X44194400Y-7661700D01*
D16*
X49550000Y-7400000D02*
X49814100Y-8567400D01*
X44194400Y-7661700D02*
X47800000Y-7661700D01*
D15*
X20262400Y-5048400D02*
X29317800Y-5048400D01*
X55952900Y-8567400D02*
X56071300Y-8449000D01*
X29317800Y-5048400D02*
X31862700Y-7593300D01*
X37427100Y-7500700D02*
X44033400Y-7500700D01*
X49814100Y-8567400D02*
X55952900Y-8567400D01*
X37334500Y-7593300D02*
X37427100Y-7500700D01*
D16*
X47800000Y-7661700D02*
X48200000Y-7400000D01*
D15*
X31862700Y-7593300D02*
X37334500Y-7593300D01*
D16*
X48200000Y-7400000D02*
X49550000Y-7400000D01*
%TO.N,EPD_D5*%
X56250000Y-54325000D02*
X56250000Y-49600000D01*
%TO.N,EPD_D3*%
X54250000Y-60150000D02*
X54250000Y-60050000D01*
%TO.N,3V3_EPD_LOGIC*%
D15*
X31977900Y-52895600D02*
X32682600Y-53600300D01*
X32682600Y-53600300D02*
X50663400Y-53600300D01*
X50663400Y-53600300D02*
X52058100Y-54995000D01*
%TD*%
M02*
