M48
; DRILL file KiCad 10.0.5 date 2026-10-01T19:38:53
; FORMAT={-:-/ absolute / metric / decimal}
; #@! TF.CreationDate,2026-10-01T19:38:53+08:00
; #@! TF.GenerationSoftware,Kicad,Pcbnew,10.0.5
; #@! TF.FileFunction,Plated,1,4,PTH
FMAT,2
METRIC
; #@! TA.AperFunction,Plated,PTH,ViaDrill
T1C0.200
; #@! TA.AperFunction,Plated,PTH,ComponentDrill
T2C0.200
; #@! TA.AperFunction,Plated,PTH,ViaDrill
T3C0.250
; #@! TA.AperFunction,Plated,PTH,ComponentDrill
T4C0.600
%
G90
G05
T1
X25.5Y-15.533
X30.0Y-15.55
X30.8Y-15.3
X39.75Y-61.25
X45.3Y-7.05
X49.1Y-8.05
X51.2Y-6.45
T2
X85.7Y-58.61
X85.7Y-60.01
X86.4Y-57.91
X86.4Y-59.31
X86.4Y-60.71
X87.1Y-58.61
X87.1Y-60.01
X87.8Y-57.91
X87.8Y-59.31
X87.8Y-60.71
X88.5Y-58.61
X88.5Y-60.01
T3
X0.883Y-21.501
X0.883Y-20.725
X1.381Y-25.529
X1.473Y-51.6
X2.72Y-21.302
X3.09Y-22.94
X3.256Y-58.117
X3.5Y-49.955
X3.731Y-9.331
X4.165Y-49.742
X4.651Y-37.368
X5.6Y-45.141
X5.777Y-57.0
X6.173Y-11.339
X6.539Y-53.0
X6.819Y-52.4
X6.827Y-49.152
X7.098Y-51.0
X7.378Y-3.978
X8.128Y-44.401
X8.136Y-38.12
X8.534Y-12.654
X9.575Y-19.975
X9.966Y-37.368
X10.201Y-11.336
X11.464Y-24.434
X11.547Y-3.147
X11.712Y-4.512
X11.982Y-27.4
X12.047Y-29.107
X12.102Y-26.276
X12.188Y-34.65
X12.297Y-56.71
X12.347Y-23.672
X12.687Y-24.295
X12.718Y-9.287
X13.012Y-18.698
X13.134Y-36.903
X13.425Y-29.105
X14.288Y-26.911
X14.36Y-54.251
X14.385Y-34.927
X14.557Y-10.361
X14.798Y-57.654
X15.247Y-14.803
X15.38Y-39.519
X15.798Y-21.193
X16.046Y-25.59
X16.183Y-12.05
X16.206Y-61.121
X16.252Y-24.652
X16.899Y-22.849
X16.919Y-11.97
X16.924Y-3.132
X17.018Y-36.76
X18.152Y-16.738
X18.348Y-14.326
X18.826Y-7.079
X19.094Y-19.192
X19.544Y-17.068
X20.113Y-18.096
X20.262Y-5.048
X20.272Y-21.158
X20.358Y-16.795
X20.492Y-8.944
X20.5Y-18.812
X20.938Y-15.972
X21.208Y-22.076
X21.39Y-18.908
X21.629Y-15.621
X21.685Y-12.012
X22.149Y-7.477
X22.78Y-41.0
X22.806Y-30.7
X23.7Y-29.793
X23.921Y-19.215
X23.99Y-16.601
X23.994Y-21.62
X24.368Y-29.108
X24.799Y-20.174
X25.165Y-15.042
X25.392Y-26.802
X25.775Y-19.08
X25.82Y-3.756
X26.24Y-11.156
X26.931Y-16.696
X27.139Y-9.19
X27.155Y-16.047
X27.259Y-17.771
X27.378Y-21.241
X27.49Y-25.199
X29.525Y-23.842
X29.645Y-14.943
X29.646Y-16.971
X29.675Y-21.612
X29.745Y-20.654
X30.102Y-9.106
X30.979Y-8.378
X31.055Y-10.649
X31.272Y-16.558
X31.849Y-13.341
X31.87Y-12.138
X31.978Y-52.896
X32.257Y-27.918
X32.533Y-58.354
X32.574Y-55.148
X33.678Y-20.461
X34.51Y-23.802
X34.578Y-15.438
X34.608Y-26.927
X34.822Y-11.791
X35.218Y-19.43
X35.282Y-58.283
X35.367Y-5.705
X35.74Y-58.739
X36.023Y-4.619
X36.167Y-16.753
X36.695Y-13.848
X36.824Y-16.364
X36.978Y-60.298
X37.449Y-57.7
X37.477Y-3.631
X37.573Y-16.786
X37.821Y-60.171
X37.825Y-30.126
X38.34Y-59.429
X38.969Y-59.812
X39.016Y-10.648
X39.032Y-9.04
X39.106Y-20.25
X39.5Y-59.24
X39.634Y-9.298
X39.777Y-29.381
X39.78Y-30.881
X39.786Y-21.461
X40.417Y-59.279
X40.487Y-59.978
X40.755Y-30.63
X40.772Y-34.3
X41.468Y-59.919
X41.495Y-1.055
X41.985Y-17.766
X42.614Y-28.91
X43.02Y-16.303
X43.115Y-9.156
X43.182Y-24.325
X43.325Y-17.014
X43.495Y-12.688
X44.537Y-6.833
X44.581Y-13.925
X45.238Y-4.548
X45.43Y-9.146
X45.67Y-31.72
X45.765Y-0.941
X46.076Y-13.131
X46.603Y-20.304
X47.105Y-11.452
X47.45Y-10.124
X47.502Y-62.063
X47.694Y-31.079
X47.861Y-18.823
X48.002Y-4.172
X48.059Y-9.46
X48.314Y-10.391
X48.455Y-20.802
X49.735Y-4.915
X49.805Y-19.073
X49.837Y-6.05
X50.404Y-29.943
X50.631Y-11.049
X51.018Y-5.882
X51.092Y-7.694
X51.348Y-49.922
X51.43Y-7.181
X52.034Y-7.092
X52.058Y-54.995
X53.298Y-61.137
X54.25Y-60.15
X54.5Y-5.4
X55.4Y-62.075
X55.793Y-56.074
X56.071Y-8.449
X56.091Y-3.132
X56.125Y-59.45
X56.25Y-54.325
X56.808Y-21.947
X57.067Y-8.936
X57.725Y-58.65
X58.411Y-26.268
X58.979Y-26.923
X59.234Y-9.8
X60.392Y-56.0
X60.65Y-53.45
X63.075Y-58.65
X63.5Y-28.58
X63.625Y-61.975
X64.555Y-61.919
X66.0Y-58.65
X68.704Y-62.396
X70.715Y-61.058
X70.99Y-58.125
X71.661Y-60.171
X72.36Y-58.153
X72.775Y-57.65
X73.275Y-57.01
X73.893Y-54.418
X74.544Y-60.326
X75.425Y-56.5
X75.699Y-59.694
X75.707Y-62.403
X75.718Y-53.665
X75.722Y-63.22
X75.725Y-60.7
X78.003Y-57.845
X79.324Y-56.0
X79.721Y-51.494
X81.155Y-48.142
X81.257Y-50.665
X81.308Y-46.111
X81.71Y-46.587
X84.813Y-48.116
X88.1Y-14.007
X90.045Y-48.14
X90.675Y-11.039
X90.827Y-53.487
X91.026Y-27.752
X91.715Y-17.084
X92.585Y-48.11
X92.698Y-18.127
X93.199Y-59.41
X93.205Y-65.76
X93.217Y-61.95
X93.218Y-51.79
X93.22Y-60.68
X93.221Y-64.49
X93.221Y-63.22
X93.301Y-18.277
X93.311Y-22.245
X93.319Y-23.295
X95.502Y-58.14
T4
X33.38Y-62.0G85X33.38Y-62.8
G05
X33.38Y-65.8G85X33.38Y-67.0
G05
X44.62Y-62.0G85X44.62Y-62.8
G05
X44.62Y-65.8G85X44.62Y-67.0
G05
M30
