%TF.GenerationSoftware,KiCad,Pcbnew,10.0.5*%
%TF.CreationDate,2026-10-01T19:17:48+08:00*%
%TF.ProjectId,PANDA-STD-CORE-EVT-quilter-j501-merged,50414e44-412d-4535-9444-2d434f52452d,thin17-132-placement-unrouted*%
%TF.SameCoordinates,Original*%
%TF.FileFunction,Copper,L4,Bot*%
%TF.FilePolarity,Positive*%
%FSLAX46Y46*%
G04 Gerber Fmt 4.6, Leading zero omitted, Abs format (unit mm)*
G04 Created by KiCad (PCBNEW 10.0.5) date 2026-10-01 19:17:48*
%MOMM*%
%LPD*%
G01*
G04 APERTURE LIST*
G04 Aperture macros list*
%AMRoundRect*
0 Rectangle with rounded corners*
0 $1 Rounding radius*
0 $2 $3 $4 $5 $6 $7 $8 $9 X,Y pos of 4 corners*
0 Add a 4 corners polygon primitive as box body*
4,1,4,$2,$3,$4,$5,$6,$7,$8,$9,$2,$3,0*
0 Add four circle primitives for the rounded corners*
1,1,$1+$1,$2,$3*
1,1,$1+$1,$4,$5*
1,1,$1+$1,$6,$7*
1,1,$1+$1,$8,$9*
0 Add four rect primitives between the rounded corners*
20,1,$1+$1,$2,$3,$4,$5,0*
20,1,$1+$1,$4,$5,$6,$7,0*
20,1,$1+$1,$6,$7,$8,$9,0*
20,1,$1+$1,$8,$9,$2,$3,0*%
G04 Aperture macros list end*
%TA.AperFunction,SMDPad,CuDef*%
%ADD10RoundRect,0.050000X-0.050000X-0.300000X0.050000X-0.300000X0.050000X0.300000X-0.050000X0.300000X0*%
%TD*%
%TA.AperFunction,HeatsinkPad*%
%ADD11C,0.600000*%
%TD*%
%TA.AperFunction,ComponentPad*%
%ADD12O,1.000000X1.800000*%
%TD*%
%TA.AperFunction,ComponentPad*%
%ADD13O,1.000000X2.200000*%
%TD*%
%TA.AperFunction,SMDPad,CuDef*%
%ADD14RoundRect,0.135000X-0.185000X0.135000X-0.185000X-0.135000X0.185000X-0.135000X0.185000X0.135000X0*%
%TD*%
%TA.AperFunction,SMDPad,CuDef*%
%ADD15C,1.500000*%
%TD*%
%TA.AperFunction,ConnectorPad*%
%ADD16C,0.787400*%
%TD*%
%TA.AperFunction,SMDPad,CuDef*%
%ADD17RoundRect,0.200000X-0.200000X-0.275000X0.200000X-0.275000X0.200000X0.275000X-0.200000X0.275000X0*%
%TD*%
%TA.AperFunction,SMDPad,CuDef*%
%ADD18RoundRect,0.225000X0.250000X-0.225000X0.250000X0.225000X-0.250000X0.225000X-0.250000X-0.225000X0*%
%TD*%
%TA.AperFunction,SMDPad,CuDef*%
%ADD19RoundRect,0.135000X-0.135000X-0.185000X0.135000X-0.185000X0.135000X0.185000X-0.135000X0.185000X0*%
%TD*%
%TA.AperFunction,ViaPad*%
%ADD20C,0.450000*%
%TD*%
%TA.AperFunction,ViaPad*%
%ADD21C,0.400000*%
%TD*%
%TA.AperFunction,Conductor*%
%ADD22C,0.200000*%
%TD*%
%TA.AperFunction,Conductor*%
%ADD23C,0.150000*%
%TD*%
G04 APERTURE END LIST*
D10*
%TO.P,J601,1*%
%TO.N,EPD_D0*%
X55200000Y-60460000D03*
%TO.P,J601,2*%
%TO.N,GND*%
X55200000Y-63540000D03*
%TO.P,J601,3*%
%TO.N,EPD_D1*%
X55600000Y-60460000D03*
%TO.P,J601,4*%
%TO.N,GND*%
X55600000Y-63540000D03*
%TO.P,J601,5*%
%TO.N,EPD_D2*%
X56000000Y-60460000D03*
%TO.P,J601,6*%
%TO.N,GND*%
X56000000Y-63540000D03*
%TO.P,J601,7*%
%TO.N,EPD_D3*%
X56400000Y-60460000D03*
%TO.P,J601,8*%
%TO.N,GND*%
X56400000Y-63540000D03*
%TO.P,J601,9*%
%TO.N,EPD_D4*%
X56800000Y-60460000D03*
%TO.P,J601,10*%
%TO.N,GND*%
X56800000Y-63540000D03*
%TO.P,J601,11*%
%TO.N,EPD_D5*%
X57200000Y-60460000D03*
%TO.P,J601,12*%
%TO.N,GND*%
X57200000Y-63540000D03*
%TO.P,J601,13*%
%TO.N,unconnected-(J601-Pin_13-Pad13)*%
X57600000Y-60460000D03*
%TO.P,J601,14*%
%TO.N,GND*%
X57600000Y-63540000D03*
%TO.P,J601,15*%
%TO.N,unconnected-(J601-Pin_15-Pad15)*%
X58000000Y-60460000D03*
%TO.P,J601,16*%
%TO.N,GND*%
X58000000Y-63540000D03*
%TO.P,J601,17*%
%TO.N,unconnected-(J601-Pin_17-Pad17)*%
X58400000Y-60460000D03*
%TO.P,J601,18*%
%TO.N,GND*%
X58400000Y-63540000D03*
%TO.P,J601,19*%
%TO.N,unconnected-(J601-Pin_19-Pad19)*%
X58800000Y-60460000D03*
%TO.P,J601,20*%
%TO.N,GND*%
X58800000Y-63540000D03*
%TO.P,J601,21*%
%TO.N,unconnected-(J601-Pin_21-Pad21)*%
X59200000Y-60460000D03*
%TO.P,J601,22*%
%TO.N,GND*%
X59200000Y-63540000D03*
%TO.P,J601,23*%
%TO.N,unconnected-(J601-Pin_23-Pad23)*%
X59600000Y-60460000D03*
%TO.P,J601,24*%
%TO.N,GND*%
X59600000Y-63540000D03*
%TO.P,J601,25*%
%TO.N,unconnected-(J601-Pin_25-Pad25)*%
X60000000Y-60460000D03*
%TO.P,J601,26*%
%TO.N,GND*%
X60000000Y-63540000D03*
%TO.P,J601,27*%
%TO.N,unconnected-(J601-Pin_27-Pad27)*%
X60400000Y-60460000D03*
%TO.P,J601,28*%
%TO.N,GND*%
X60400000Y-63540000D03*
%TO.P,J601,29*%
%TO.N,unconnected-(J601-Pin_29-Pad29)*%
X60800000Y-60460000D03*
%TO.P,J601,30*%
%TO.N,GND*%
X60800000Y-63540000D03*
%TO.P,J601,31*%
%TO.N,unconnected-(J601-Pin_31-Pad31)*%
X61200000Y-60460000D03*
%TO.P,J601,32*%
%TO.N,GND*%
X61200000Y-63540000D03*
%TO.P,J601,33*%
%TO.N,unconnected-(J601-Pin_33-Pad33)*%
X61600000Y-60460000D03*
%TO.P,J601,34*%
%TO.N,GND*%
X61600000Y-63540000D03*
%TO.P,J601,35*%
%TO.N,3V3_EPD_LOGIC*%
X62000000Y-60460000D03*
%TO.P,J601,36*%
X62000000Y-63540000D03*
%TO.P,J601,37*%
%TO.N,unconnected-(J601-Pin_37-Pad37)*%
X62400000Y-60460000D03*
%TO.P,J601,38*%
%TO.N,unconnected-(J601-Pin_38-Pad38)*%
X62400000Y-63540000D03*
%TO.P,J601,39*%
%TO.N,unconnected-(J601-Pin_39-Pad39)*%
X62800000Y-60460000D03*
%TO.P,J601,40*%
%TO.N,unconnected-(J601-Pin_40-Pad40)*%
X62800000Y-63540000D03*
%TO.P,J601,41*%
%TO.N,unconnected-(J601-Pin_41-Pad41)*%
X63200000Y-60460000D03*
%TO.P,J601,42*%
%TO.N,unconnected-(J601-Pin_42-Pad42)*%
X63200000Y-63540000D03*
%TO.P,J601,43*%
%TO.N,unconnected-(J601-Pin_43-Pad43)*%
X63600000Y-60460000D03*
%TO.P,J601,44*%
%TO.N,unconnected-(J601-Pin_44-Pad44)*%
X63600000Y-63540000D03*
%TO.P,J601,45*%
%TO.N,unconnected-(J601-Pin_45-Pad45)*%
X64000000Y-60460000D03*
%TO.P,J601,46*%
%TO.N,unconnected-(J601-Pin_46-Pad46)*%
X64000000Y-63540000D03*
%TO.P,J601,47*%
%TO.N,unconnected-(J601-Pin_47-Pad47)*%
X64400000Y-60460000D03*
%TO.P,J601,48*%
%TO.N,unconnected-(J601-Pin_48-Pad48)*%
X64400000Y-63540000D03*
%TO.P,J601,49*%
%TO.N,unconnected-(J601-Pin_49-Pad49)*%
X64800000Y-60460000D03*
%TO.P,J601,50*%
%TO.N,unconnected-(J601-Pin_50-Pad50)*%
X64800000Y-63540000D03*
%TO.P,J601,51*%
%TO.N,unconnected-(J601-Pin_51-Pad51)*%
X65200000Y-60460000D03*
%TO.P,J601,52*%
%TO.N,unconnected-(J601-Pin_52-Pad52)*%
X65200000Y-63540000D03*
%TO.P,J601,53*%
%TO.N,unconnected-(J601-Pin_53-Pad53)*%
X65600000Y-60460000D03*
%TO.P,J601,54*%
%TO.N,unconnected-(J601-Pin_54-Pad54)*%
X65600000Y-63540000D03*
%TO.P,J601,55*%
%TO.N,GND*%
X66000000Y-60460000D03*
%TO.P,J601,56*%
X66000000Y-63540000D03*
%TO.P,J601,57*%
X66400000Y-60460000D03*
%TO.P,J601,58*%
X66400000Y-63540000D03*
%TO.P,J601,59*%
X66800000Y-60460000D03*
%TO.P,J601,60*%
X66800000Y-63540000D03*
%TD*%
D11*
%TO.P,U501,41*%
%TO.N,GND*%
X88500000Y-60010000D03*
X88500000Y-58610000D03*
X87800000Y-60710000D03*
X87800000Y-59310000D03*
X87800000Y-57910000D03*
X87100000Y-60010000D03*
X87100000Y-58610000D03*
X86400000Y-60710000D03*
X86400000Y-59310000D03*
X86400000Y-57910000D03*
X85700000Y-60010000D03*
X85700000Y-58610000D03*
%TD*%
D12*
%TO.P,J201,SH*%
%TO.N,GND*%
X33380000Y-62400000D03*
D13*
X33380000Y-66400000D03*
D12*
X44620000Y-62400000D03*
D13*
X44620000Y-66400000D03*
%TD*%
D14*
%TO.P,R512,1*%
%TO.N,EPD_LE*%
X93500000Y-45490000D03*
%TO.P,R512,2*%
%TO.N,GND*%
X93500000Y-46510000D03*
%TD*%
D15*
%TO.P,TPG5,1*%
%TO.N,GND*%
X6000000Y-5000000D03*
%TD*%
%TO.P,TP16,1*%
%TO.N,PG_3V3_MAIN*%
X14500000Y-11500000D03*
%TD*%
D16*
%TO.P,J503,1*%
%TO.N,CHIP_PU*%
X15730000Y-6365000D03*
%TO.P,J503,2*%
%TO.N,3V3_AON*%
X15730000Y-7635000D03*
%TO.P,J503,3*%
%TO.N,UART0_RX*%
X17000000Y-6365000D03*
%TO.P,J503,4*%
%TO.N,GND*%
X17000000Y-7635000D03*
%TO.P,J503,5*%
%TO.N,UART0_TX*%
X18270000Y-6365000D03*
%TO.P,J503,6*%
%TO.N,GPIO0*%
X18270000Y-7635000D03*
%TD*%
D15*
%TO.P,TP13,1*%
%TO.N,EXP_INT*%
X18500000Y-22000000D03*
%TD*%
%TO.P,TPG2,1*%
%TO.N,GND*%
X18500000Y-62000000D03*
%TD*%
D17*
%TO.P,R616,1*%
%TO.N,BQ_TS*%
X17675000Y-18000000D03*
%TO.P,R616,2*%
%TO.N,GND*%
X19325000Y-18000000D03*
%TD*%
D15*
%TO.P,TP14,1*%
%TO.N,EXP_INT*%
X11000000Y-6500000D03*
%TD*%
%TO.P,TP5,1*%
%TO.N,3V3_SD*%
X15000000Y-23500000D03*
%TD*%
%TO.P,TP11,1*%
%TO.N,I2C_SCL*%
X18500000Y-54000000D03*
%TD*%
%TO.P,TP7,1*%
%TO.N,3V3_EPD_LOGIC*%
X6000000Y-17000000D03*
%TD*%
%TO.P,TP12,1*%
%TO.N,I2C_SDA*%
X18000000Y-12500000D03*
%TD*%
D18*
%TO.P,C511,1*%
%TO.N,3V3_AON*%
X15500000Y-61775000D03*
%TO.P,C511,2*%
%TO.N,GND*%
X15500000Y-60225000D03*
%TD*%
D15*
%TO.P,TP8,1*%
%TO.N,VSYS_AUDIO*%
X7000000Y-25500000D03*
%TD*%
D17*
%TO.P,R615,1*%
%TO.N,SGM41513_REGN*%
X17675000Y-15500000D03*
%TO.P,R615,2*%
%TO.N,BQ_TS*%
X19325000Y-15500000D03*
%TD*%
D19*
%TO.P,R302,1*%
%TO.N,I2C_SDA*%
X14490000Y-19000000D03*
%TO.P,R302,2*%
%TO.N,GND*%
X15510000Y-19000000D03*
%TD*%
D20*
%TO.N,SDMMC_D1_CARD*%
X93319200Y-23295000D03*
X58979500Y-26923300D03*
D21*
%TO.N,3V3_SD*%
X25500000Y-15532700D03*
D20*
X34578200Y-15437800D03*
D21*
X30800000Y-15300000D03*
D20*
X34510000Y-23802300D03*
X16045700Y-25589700D03*
X20937700Y-15972200D03*
X29524800Y-23842200D03*
X93301400Y-18276700D03*
%TO.N,USB_DM*%
X68703700Y-62395800D03*
X40487500Y-59978100D03*
X38340000Y-59429300D03*
%TO.N,USB_DM_MCU*%
X70714700Y-61057800D03*
X93217900Y-51790000D03*
%TO.N,SDMMC_D2_CARD*%
X14288100Y-26911000D03*
X13012400Y-18697800D03*
X91715200Y-17084400D03*
%TO.N,SDMMC_D3_CARD*%
X56808500Y-21946900D03*
X18152200Y-16737900D03*
%TO.N,SDMMC_CMD_CARD*%
X92697700Y-18126500D03*
X34608300Y-26926600D03*
%TO.N,GND*%
X36023400Y-4618700D03*
X27378200Y-21240800D03*
X45237900Y-4548200D03*
X45669900Y-31720400D03*
X12188400Y-34650000D03*
X19094200Y-19192000D03*
X15379500Y-39518600D03*
X39106200Y-20250000D03*
X43181700Y-24325500D03*
X14798400Y-57654200D03*
X33678200Y-20461200D03*
X11463900Y-24434300D03*
X32533500Y-58354000D03*
X19544400Y-17068200D03*
X8136300Y-38120000D03*
X51092300Y-7694100D03*
X7377600Y-3977600D03*
X45764700Y-940500D03*
%TO.N,SDMMC_D0_CARD*%
X93310700Y-22245000D03*
X27490000Y-25199100D03*
%TO.N,SD_CD*%
X20357600Y-16795000D03*
X12686700Y-24294600D03*
X88100000Y-14006600D03*
%TO.N,3V3_AON*%
X93204800Y-65760000D03*
X16182700Y-12049700D03*
X16206100Y-61121100D03*
X73274700Y-57010000D03*
X74543600Y-60326000D03*
X27139500Y-9189700D03*
X34821600Y-11791500D03*
X2720100Y-21302500D03*
X15247000Y-14802900D03*
X16252400Y-24651800D03*
X12347300Y-23671900D03*
X1380900Y-25529500D03*
%TO.N,CHIP_PU*%
X56091300Y-3131800D03*
X93220800Y-64490000D03*
X73892900Y-54417900D03*
X16924200Y-3131800D03*
%TO.N,VSYS_FL_IN*%
X3256000Y-58116800D03*
X7097900Y-51000000D03*
%TO.N,FL_VIN*%
X4164600Y-49742100D03*
X5776600Y-57000000D03*
%TO.N,VSYS_RAW*%
X39015900Y-10648100D03*
X35217600Y-19430100D03*
%TO.N,3V3_AON_SRC*%
X54500000Y-5400000D03*
X35367400Y-5704900D03*
%TO.N,EXP_INT*%
X64555500Y-61919100D03*
X15798200Y-21193000D03*
X93221100Y-63220000D03*
X29675400Y-21611600D03*
X21207700Y-22075700D03*
X16899100Y-22848900D03*
X11711800Y-4511800D03*
%TO.N,I2C_SCL*%
X30979200Y-8378500D03*
X48058600Y-9460500D03*
X81257300Y-50665500D03*
X50404500Y-29942900D03*
X24798900Y-20174200D03*
X18347800Y-14326200D03*
X1473000Y-51600000D03*
X14360100Y-54251000D03*
X55792700Y-56073900D03*
X79324200Y-56000000D03*
X883300Y-20725200D03*
X30102000Y-9106300D03*
X60391900Y-56000000D03*
X40755100Y-30630300D03*
%TO.N,I2C_SDA*%
X20271800Y-21158000D03*
X16919300Y-11969700D03*
X4651300Y-37368300D03*
X90675200Y-11039200D03*
X24368500Y-29108100D03*
X39779600Y-30881500D03*
X882700Y-21500700D03*
X51430200Y-7180800D03*
X31055300Y-10648700D03*
X95502500Y-58140000D03*
X50630700Y-11049200D03*
X23993600Y-21620400D03*
%TO.N,RTC_VBACKUP*%
X46602600Y-20303900D03*
X20113400Y-18096000D03*
%TO.N,3V3_TOUCH*%
X43495400Y-12687600D03*
X11546900Y-3146900D03*
X9966300Y-37368300D03*
%TO.N,VSYS_AUDIO*%
X29744600Y-20654500D03*
X13425000Y-29105200D03*
X9574500Y-19975000D03*
%TO.N,3V3_EPD_LOGIC*%
X12717700Y-9287500D03*
%TO.N,3V3_TOUCH_SW*%
X36824200Y-16364200D03*
X43019800Y-16303500D03*
%TO.N,FL_PWM*%
X21389800Y-18907900D03*
X6827200Y-49152000D03*
X12297500Y-56710200D03*
%TO.N,EN_3V3_TOUCH*%
X26930700Y-16696000D03*
X41984700Y-17765700D03*
%TO.N,BQ_CE*%
X41495000Y-1055000D03*
D21*
X51200000Y-6450000D03*
D20*
X31849300Y-13341300D03*
X31271600Y-16557600D03*
%TO.N,EN_3V3_EPD_LOGIC*%
X25819600Y-3755900D03*
X27259000Y-17771500D03*
X22806400Y-30700000D03*
%TO.N,EN_VSYS_AUDIO*%
X29646500Y-16970700D03*
X43324500Y-17014200D03*
%TO.N,FUEL_GPOUT*%
X26240000Y-11156500D03*
X40771600Y-34300000D03*
X37572900Y-16785600D03*
X27154600Y-16047400D03*
D21*
%TO.N,BQ_INT*%
X30000000Y-15550000D03*
D20*
X37476500Y-3631500D03*
D21*
X49100000Y-8050000D03*
D20*
X52034300Y-7092300D03*
X31869900Y-12137700D03*
%TO.N,BQ_STAT*%
X46076200Y-13131500D03*
X47450000Y-10124500D03*
X29644900Y-14942600D03*
%TO.N,BQ_PG*%
X47104600Y-11452000D03*
X25164500Y-15042500D03*
%TO.N,IMU_INT1*%
X21629000Y-15621100D03*
X3090200Y-22939800D03*
%TO.N,PG_3V3_MAIN*%
X14556900Y-10360700D03*
X23990300Y-16601300D03*
%TO.N,FL_HWEN*%
X3500000Y-49955000D03*
X20500500Y-18812500D03*
%TO.N,TOUCH_RST*%
X23921100Y-19215500D03*
X22779700Y-41000000D03*
%TO.N,EPD_D2*%
X35282200Y-58283200D03*
X78002800Y-57844900D03*
X32573700Y-55148500D03*
%TO.N,SGM41513_PMID*%
X44537300Y-6833300D03*
X51017600Y-5881700D03*
%TO.N,BAT_CONN_P*%
X39032200Y-9040100D03*
X48454600Y-20802300D03*
X42614400Y-28910400D03*
%TO.N,BAT_PACKP*%
X39633700Y-9298200D03*
X44581400Y-13925200D03*
X47693700Y-31079300D03*
X48002000Y-4171700D03*
X48313900Y-10391200D03*
%TO.N,SDMMC_D1*%
X90826900Y-53487000D03*
X58411300Y-26267700D03*
%TO.N,VBUS_USB*%
X45430100Y-9146500D03*
X47502300Y-62062800D03*
X36977700Y-60298000D03*
X41468000Y-59919400D03*
%TO.N,SDMMC_D0*%
X93199100Y-59410000D03*
X91025600Y-27751700D03*
X25392200Y-26801600D03*
%TO.N,FUEL_VDD*%
X37825000Y-30125800D03*
X36167000Y-16753200D03*
%TO.N,USB_DP*%
X37449300Y-57700000D03*
X70990000Y-58124700D03*
X38969300Y-59812400D03*
D21*
X39750000Y-61250000D03*
D20*
%TO.N,USB_CC1*%
X53298000Y-61136900D03*
X37820800Y-60171200D03*
X39500000Y-59240300D03*
%TO.N,EPD_D3*%
X75699200Y-59694400D03*
X35740000Y-58738900D03*
%TO.N,BQ_TS*%
X49804600Y-19072700D03*
X39785800Y-21460800D03*
X49837400Y-6050000D03*
X47861100Y-18823100D03*
X39776900Y-29381500D03*
X25775300Y-19079900D03*
%TO.N,BQ_QON*%
X49735200Y-4914800D03*
X6173000Y-11338900D03*
%TO.N,USB_DP_MCU*%
X79721200Y-51494000D03*
X72359800Y-58153300D03*
%TO.N,SGM41513_REGN*%
X43114900Y-9155900D03*
D21*
X45300000Y-7050000D03*
D20*
X20492400Y-8943700D03*
%TO.N,GPIO0*%
X18825600Y-7079400D03*
X59234400Y-9800000D03*
X75718100Y-53665300D03*
%TO.N,SDMMC_CLK*%
X93216800Y-61950000D03*
X63500000Y-28580200D03*
%TO.N,3V3_EPD_LOGIC_SW*%
X23700000Y-29792900D03*
X21684600Y-12012500D03*
%TO.N,KEY_POWER_MCU*%
X36695200Y-13848500D03*
X3731200Y-9331200D03*
X71661100Y-60171300D03*
%TO.N,SPK_P*%
X8534200Y-12653600D03*
X12047400Y-29107500D03*
%TO.N,SPK_N*%
X12101600Y-26275700D03*
X10201000Y-11336200D03*
%TO.N,EPD_D5*%
X81155000Y-48142100D03*
X51348200Y-49921900D03*
%TO.N,SDMMC_CMD*%
X93220400Y-60680000D03*
X40416600Y-59279300D03*
X32256900Y-27917500D03*
%TO.N,I2S_LRCLK*%
X13134300Y-36903000D03*
X81710400Y-46587500D03*
%TO.N,I2S_BCLK*%
X14385000Y-34926800D03*
X81308100Y-46110700D03*
%TO.N,I2S_DIN*%
X17018400Y-36760000D03*
X84812900Y-48116200D03*
%TO.N,FL_W_N*%
X6539400Y-53000000D03*
X8128100Y-44400800D03*
%TO.N,FL_C_N*%
X6819000Y-52400000D03*
X5600000Y-45140900D03*
%TO.N,SDMMC_D2*%
X90045000Y-48139700D03*
X11982300Y-27400000D03*
%TO.N,EPD_LE*%
X92585000Y-48110100D03*
%TO.N,UART0_RX*%
X57067300Y-8935600D03*
X22148600Y-7476600D03*
X75706800Y-62402900D03*
%TO.N,UART0_TX*%
X20262400Y-5048400D03*
X56071300Y-8449000D03*
X75721700Y-63220000D03*
%TO.N,EPD_D2*%
X56125000Y-59450000D03*
%TO.N,EPD_D1*%
X72775000Y-57650000D03*
%TO.N,EPD_D0*%
X75425000Y-56500000D03*
%TO.N,EPD_D5*%
X57725000Y-58650000D03*
X56250000Y-54325000D03*
%TO.N,EPD_D4*%
X75725000Y-60700000D03*
%TO.N,EPD_D3*%
X54250000Y-60150000D03*
%TO.N,3V3_EPD_LOGIC*%
X63075000Y-58650000D03*
X63625000Y-61975000D03*
%TO.N,GND*%
X55400000Y-62075000D03*
X66000000Y-58650000D03*
%TO.N,3V3_EPD_LOGIC*%
X52058100Y-54995000D03*
X31977900Y-52895600D03*
X60650000Y-53450000D03*
%TD*%
%TO.N,3V3_SD*%
D22*
X15000000Y-24544000D02*
X16045700Y-25589700D01*
X26500000Y-14200000D02*
X30300000Y-14200000D01*
X26500000Y-15532700D02*
X26500000Y-14200000D01*
X25500000Y-15532700D02*
X26500000Y-15532700D01*
X30300000Y-14200000D02*
X30800000Y-15300000D01*
X15000000Y-23500000D02*
X15000000Y-24544000D01*
%TO.N,USB_DM*%
X38748400Y-60289200D02*
X40176400Y-60289200D01*
X38340000Y-59429300D02*
X38340000Y-59880800D01*
X38340000Y-59880800D02*
X38748400Y-60289200D01*
X40176400Y-60289200D02*
X40487500Y-59978100D01*
%TO.N,GND*%
X15760000Y-18750000D02*
X15510000Y-19000000D01*
X18674600Y-18772400D02*
X19094200Y-19192000D01*
D23*
X31500000Y-54000000D02*
X46000000Y-54000000D01*
D22*
X17000000Y-7635000D02*
X19009700Y-9644700D01*
X92388600Y-43510000D02*
X94095800Y-45217200D01*
X15500000Y-60225000D02*
X16725000Y-60225000D01*
X86399800Y-43610200D02*
X86399800Y-57909800D01*
X86500000Y-43510000D02*
X92388600Y-43510000D01*
X39249100Y-20250000D02*
X39106200Y-20250000D01*
D23*
X46000000Y-61000000D02*
X44620000Y-62400000D01*
D22*
X19544400Y-17780600D02*
X19544400Y-17068200D01*
X17013100Y-18750000D02*
X15760000Y-18750000D01*
X94095800Y-45914200D02*
X93500000Y-46510000D01*
X86500000Y-43510000D02*
X86399800Y-43610200D01*
X94095800Y-45217200D02*
X94095800Y-45914200D01*
X19325000Y-18000000D02*
X19544400Y-17780600D01*
X43181700Y-24182600D02*
X39249100Y-20250000D01*
X16725000Y-60225000D02*
X18500000Y-62000000D01*
X19009700Y-12906900D02*
X17013100Y-14903500D01*
X18674600Y-18750000D02*
X17013100Y-18750000D01*
X18674600Y-18750000D02*
X18674600Y-18772400D01*
X6000000Y-5000000D02*
X7022400Y-3977600D01*
X17013100Y-14903500D02*
X17013100Y-18750000D01*
X14798400Y-59523400D02*
X14798400Y-57654200D01*
X19009700Y-9644700D02*
X19009700Y-12906900D01*
X86399800Y-57909800D02*
X86400000Y-57910000D01*
X19325000Y-18000000D02*
X18674600Y-18650400D01*
X15500000Y-60225000D02*
X14798400Y-59523400D01*
D23*
X32533499Y-58354000D02*
X31500000Y-54000000D01*
X46000000Y-54000000D02*
X46000000Y-61000000D01*
D22*
X18674600Y-18650400D02*
X18674600Y-18750000D01*
X7022400Y-3977600D02*
X7377600Y-3977600D01*
X43181700Y-24325500D02*
X43181700Y-24182600D01*
%TO.N,3V3_AON*%
X15730000Y-11597000D02*
X16182700Y-12049700D01*
X74543600Y-60326000D02*
X73274700Y-59057100D01*
X15552200Y-61775000D02*
X16206100Y-61121100D01*
X16252400Y-23280300D02*
X15456400Y-22484300D01*
X73274700Y-59057100D02*
X73274700Y-57010000D01*
X13534900Y-22484300D02*
X12347300Y-23671900D01*
X15730000Y-7635000D02*
X15730000Y-11597000D01*
X15500000Y-61775000D02*
X15552200Y-61775000D01*
X15456400Y-22484300D02*
X13534900Y-22484300D01*
X16252400Y-24651800D02*
X16252400Y-23280300D01*
%TO.N,CHIP_PU*%
X15730000Y-6365000D02*
X16924200Y-5170800D01*
X16924200Y-5170800D02*
X16924200Y-3131800D01*
%TO.N,EXP_INT*%
X11000000Y-5223600D02*
X11711800Y-4511800D01*
X18500000Y-22000000D02*
X17180100Y-22000000D01*
X11000000Y-6500000D02*
X11000000Y-5223600D01*
X16899100Y-22281000D02*
X16899100Y-22848900D01*
X16886200Y-22281000D02*
X15798200Y-21193000D01*
X17180100Y-22000000D02*
X16899100Y-22281000D01*
X16899100Y-22281000D02*
X16886200Y-22281000D01*
%TO.N,I2C_SCL*%
X17845000Y-54655000D02*
X14764100Y-54655000D01*
X14764100Y-54655000D02*
X14360100Y-54251000D01*
X18500000Y-54000000D02*
X17845000Y-54655000D01*
%TO.N,I2C_SDA*%
X14490000Y-19000000D02*
X15572600Y-20082600D01*
X18000000Y-12724000D02*
X18000000Y-12500000D01*
X17469700Y-11969700D02*
X18000000Y-12500000D01*
X14490000Y-19000000D02*
X14490000Y-16234000D01*
X19196400Y-20082600D02*
X20271800Y-21158000D01*
X14026100Y-19463900D02*
X2919500Y-19463900D01*
X15572600Y-20082600D02*
X19196400Y-20082600D01*
X14490000Y-16234000D02*
X18000000Y-12724000D01*
X14490000Y-19000000D02*
X14026100Y-19463900D01*
X16919300Y-11969700D02*
X17469700Y-11969700D01*
X2919500Y-19463900D02*
X882700Y-21500700D01*
%TO.N,VSYS_AUDIO*%
X12790800Y-28471000D02*
X13425000Y-29105200D01*
X7000000Y-25500000D02*
X7000000Y-22549500D01*
X9971000Y-28471000D02*
X12790800Y-28471000D01*
X7000000Y-25500000D02*
X9971000Y-28471000D01*
X7000000Y-22549500D02*
X9574500Y-19975000D01*
%TO.N,3V3_EPD_LOGIC*%
X6000000Y-17000000D02*
X12717700Y-10282300D01*
X12717700Y-10282300D02*
X12717700Y-9287500D01*
%TO.N,BQ_CE*%
D23*
X51200000Y-6450000D02*
X52000000Y-5500000D01*
X52000000Y-5500000D02*
X52000000Y-2000000D01*
D22*
X31271600Y-16557600D02*
X31271600Y-13919000D01*
D23*
X52000000Y-2000000D02*
X42500000Y-2000000D01*
D22*
X31271600Y-13919000D02*
X31849300Y-13341300D01*
D23*
X42500000Y-2000000D02*
X41495000Y-1055000D01*
%TO.N,BQ_INT*%
X49100000Y-8050000D02*
X50000000Y-8800000D01*
X50000000Y-8800000D02*
X51500000Y-8800000D01*
X51500000Y-8800000D02*
X52034300Y-7092300D01*
%TO.N,PG_3V3_MAIN*%
D22*
X14556900Y-11443100D02*
X14556900Y-10360700D01*
X14500000Y-11500000D02*
X14556900Y-11443100D01*
%TO.N,BAT_PACKP*%
X44581400Y-12999100D02*
X46962700Y-10617800D01*
X46962700Y-5211000D02*
X48002000Y-4171700D01*
X46962700Y-10617800D02*
X46962700Y-5211000D01*
X44581400Y-13925200D02*
X44581400Y-12999100D01*
X48087300Y-10617800D02*
X48313900Y-10391200D01*
X46962700Y-10617800D02*
X48087300Y-10617800D01*
%TO.N,USB_DP*%
D23*
X39750000Y-61250000D02*
X42000000Y-61250000D01*
X42000000Y-61250000D02*
X42000000Y-58000000D01*
X42000000Y-58000000D02*
X39000000Y-58000000D01*
X39000000Y-58000000D02*
X38969300Y-59812400D01*
%TO.N,BQ_TS*%
D22*
X21823700Y-15128300D02*
X25775300Y-19079900D01*
X19325000Y-15500000D02*
X19696700Y-15128300D01*
X19325000Y-16350000D02*
X17675000Y-18000000D01*
X19696700Y-15128300D02*
X21823700Y-15128300D01*
X19325000Y-15500000D02*
X19325000Y-16350000D01*
%TO.N,SGM41513_REGN*%
X17858700Y-15500000D02*
X20492400Y-12866300D01*
X17675000Y-15500000D02*
X17858700Y-15500000D01*
X20492400Y-12866300D02*
X20492400Y-8943700D01*
D23*
X45300000Y-7050000D02*
X44150000Y-8199999D01*
X44150000Y-8199999D02*
X43114900Y-9155900D01*
%TO.N,GPIO0*%
D22*
X18270000Y-7635000D02*
X18825600Y-7079400D01*
%TO.N,EPD_D5*%
X81155000Y-47835000D02*
X81155000Y-48142100D01*
%TO.N,FL_C_N*%
X6819000Y-52400000D02*
X5600000Y-51181000D01*
X5600000Y-51181000D02*
X5600000Y-45140900D01*
%TO.N,EPD_LE*%
X92585000Y-46405000D02*
X92585000Y-48110100D01*
X93500000Y-45490000D02*
X92585000Y-46405000D01*
%TO.N,UART0_RX*%
X22148600Y-6237400D02*
X22148600Y-7476600D01*
X18801200Y-4563800D02*
X20475000Y-4563800D01*
X17000000Y-6365000D02*
X18801200Y-4563800D01*
X20475000Y-4563800D02*
X22148600Y-6237400D01*
%TO.N,UART0_TX*%
X20173000Y-4959000D02*
X20262400Y-5048400D01*
X18270000Y-5787600D02*
X19098600Y-4959000D01*
X19098600Y-4959000D02*
X20173000Y-4959000D01*
X18270000Y-6365000D02*
X18270000Y-5787600D01*
%TO.N,EPD_D2*%
D23*
X56000000Y-60460000D02*
X56125000Y-59450000D01*
%TO.N,EPD_D1*%
X55600000Y-60460000D02*
X55675000Y-59275000D01*
X55675000Y-59275000D02*
X55875000Y-59050000D01*
X55875000Y-59050000D02*
X57800000Y-57850000D01*
X57800000Y-57850000D02*
X72650000Y-57650000D01*
X72650000Y-57650000D02*
X72775000Y-57650000D01*
%TO.N,EPD_D0*%
X55200000Y-60460000D02*
X55125000Y-59025000D01*
X55125000Y-59025000D02*
X55275000Y-58750000D01*
X55275000Y-58750000D02*
X57775000Y-57525000D01*
X57775000Y-57525000D02*
X73375000Y-56550000D01*
X73375000Y-56550000D02*
X75425000Y-56500000D01*
%TO.N,EPD_D5*%
X57200000Y-60460000D02*
X57350000Y-59700000D01*
X57350000Y-59700000D02*
X57725000Y-59275000D01*
X57725000Y-59275000D02*
X57750000Y-58675000D01*
X57750000Y-58675000D02*
X57725000Y-58650000D01*
%TO.N,EPD_D4*%
X56800000Y-60460000D02*
X56825000Y-61350000D01*
X56825000Y-61350000D02*
X57025000Y-61575000D01*
X57025000Y-61575000D02*
X57275000Y-61650000D01*
X57275000Y-61650000D02*
X65200000Y-61450000D01*
X65200000Y-61450000D02*
X72075000Y-61525000D01*
X72075000Y-61525000D02*
X75725000Y-60700000D01*
%TO.N,EPD_D3*%
X56400000Y-60460000D02*
X56300000Y-60950000D01*
X56300000Y-60950000D02*
X55275000Y-61625000D01*
X55275000Y-61625000D02*
X55050000Y-61650000D01*
X55050000Y-61650000D02*
X54775000Y-61500000D01*
X54775000Y-61500000D02*
X54300000Y-60450000D01*
X54300000Y-60450000D02*
X54250000Y-60150000D01*
%TO.N,EPD_D2*%
X56000000Y-60460000D02*
X56000000Y-60450000D01*
%TO.N,3V3_EPD_LOGIC*%
D22*
X62000000Y-60460000D02*
X62125000Y-59600000D01*
X62125000Y-59600000D02*
X63075000Y-58650000D01*
X62000000Y-63540000D02*
X62050000Y-63075000D01*
X62050000Y-63075000D02*
X63625000Y-61975000D01*
%TO.N,GND*%
X55200000Y-63540000D02*
X55400000Y-62075000D01*
X55600000Y-63540000D02*
X55300000Y-63550000D01*
X56000000Y-63540000D02*
X55700000Y-63550000D01*
X56400000Y-63540000D02*
X56100000Y-63550000D01*
X56800000Y-63540000D02*
X56500000Y-63550000D01*
X57200000Y-63540000D02*
X56900000Y-63550000D01*
X57600000Y-63540000D02*
X57300000Y-63550000D01*
X58000000Y-63540000D02*
X57700000Y-63550000D01*
X58400000Y-63540000D02*
X58100000Y-63550000D01*
X58800000Y-63540000D02*
X58500000Y-63550000D01*
X59200000Y-63540000D02*
X58900000Y-63550000D01*
X59600000Y-63540000D02*
X59300000Y-63550000D01*
X60000000Y-63540000D02*
X59700000Y-63550000D01*
X60400000Y-63540000D02*
X60100000Y-63550000D01*
X60800000Y-63540000D02*
X60500000Y-63550000D01*
X61200000Y-63540000D02*
X60900000Y-63550000D01*
X61600000Y-63540000D02*
X61300000Y-63550000D01*
X66000000Y-60460000D02*
X66000000Y-58650000D01*
X66000000Y-63540000D02*
X65950000Y-64000000D01*
X65950000Y-64000000D02*
X65750000Y-64150000D01*
X65750000Y-64150000D02*
X61825000Y-64150000D01*
X61825000Y-64150000D02*
X61650000Y-63975000D01*
X61650000Y-63975000D02*
X61625000Y-63875000D01*
X66400000Y-60460000D02*
X66100000Y-60450000D01*
X66400000Y-63540000D02*
X66100000Y-63550000D01*
X66800000Y-60460000D02*
X66500000Y-60450000D01*
X66800000Y-63540000D02*
X66500000Y-63550000D01*
%TD*%
M02*
