%TF.GenerationSoftware,KiCad,Pcbnew,10.0.5*%
%TF.CreationDate,2026-09-28T14:22:56+08:00*%
%TF.ProjectId,PANDA-STD-CORE-EVT-quilter-j501-merged,50414e44-412d-4535-9444-2d434f52452d,thin17-132-placement-unrouted*%
%TF.SameCoordinates,Original*%
%TF.FileFunction,Drillmap*%
%TF.FilePolarity,Positive*%
%FSLAX45Y45*%
G04 Gerber Fmt 4.5, Leading zero omitted, Abs format (unit mm)*
G04 Created by KiCad (PCBNEW 10.0.5) date 2026-09-28 14:22:56*
%MOMM*%
%LPD*%
G01*
G04 APERTURE LIST*
%ADD10C,0.050000*%
%ADD11C,0.080000*%
%ADD12C,0.200000*%
%ADD13C,0.100000*%
G04 APERTURE END LIST*
D10*
X0Y-100000D02*
G75*
G02*
X100000Y0I100000J0D01*
G01*
X0Y-12700000D02*
X0Y-100000D01*
X100000Y0D02*
X6900000Y0D01*
X100000Y-12800000D02*
G75*
G02*
X0Y-12700000I18J100018D01*
G01*
X400000Y-3400000D02*
G75*
G02*
X500000Y-3300000I100000J0D01*
G01*
X400000Y-10600000D02*
X400000Y-3400000D01*
X500000Y-3300000D02*
X6500000Y-3300000D01*
X500000Y-10700000D02*
G75*
G02*
X400000Y-10600000I0J100000D01*
G01*
X838000Y-12800000D02*
X100000Y-12800000D01*
X6500000Y-3300000D02*
G75*
G02*
X6600000Y-3400000I0J-100000D01*
G01*
X6500000Y-10700000D02*
X500000Y-10700000D01*
X6600000Y-3400000D02*
X6600000Y-10600000D01*
X6600000Y-10600000D02*
G75*
G02*
X6500000Y-10700000I-100000J0D01*
G01*
X6900000Y0D02*
G75*
G02*
X7000000Y-100000I0J-100000D01*
G01*
X6900000Y-12800000D02*
X1762000Y-12800000D01*
X7000000Y-100000D02*
X7000000Y-12700000D01*
X7000000Y-12700000D02*
G75*
G02*
X6900000Y-12800000I-100020J20D01*
G01*
D11*
X838000Y-12800000D02*
X838000Y-12180000D01*
X918000Y-12180000D02*
X1682000Y-12180000D01*
X1762000Y-12180000D02*
X1762000Y-12800000D01*
X838000Y-12180000D02*
G75*
G02*
X870500Y-12140000I36250J3750D01*
G01*
X870500Y-12140000D02*
G75*
G02*
X903000Y-12168000I2250J-30250D01*
G01*
X918000Y-12180000D02*
G75*
G02*
X903000Y-12168000I-1500J13500D01*
G01*
X1697000Y-12168000D02*
G75*
G02*
X1682000Y-12180000I-13500J1500D01*
G01*
X1697000Y-12168000D02*
G75*
G02*
X1729500Y-12140000I30250J-2250D01*
G01*
X1729500Y-12140000D02*
G75*
G02*
X1762000Y-12180000I-3750J-36250D01*
G01*
D12*
D13*
X62500Y-2285000D02*
X82500Y-2305000D01*
X82500Y-2285000D02*
X62500Y-2305000D01*
X65000Y-10712500D02*
X85000Y-10732500D01*
X85000Y-10712500D02*
X65000Y-10732500D01*
X65000Y-11870000D02*
X85000Y-11890000D01*
X85000Y-11870000D02*
X65000Y-11890000D01*
X75000Y-11930000D02*
X95000Y-11950000D01*
X95000Y-11930000D02*
X75000Y-11950000D01*
X87700Y-2227000D02*
X107700Y-2247000D01*
X107700Y-2227000D02*
X87700Y-2247000D01*
X111100Y-11982600D02*
X131100Y-12002600D01*
X131100Y-11982600D02*
X111100Y-12002600D01*
X135000Y-5930000D02*
X155000Y-5950000D01*
X155000Y-5930000D02*
X135000Y-5950000D01*
X135000Y-12085000D02*
X155000Y-12105000D01*
X155000Y-12085000D02*
X135000Y-12105000D01*
X154000Y-9930000D02*
X174000Y-9950000D01*
X174000Y-9930000D02*
X154000Y-9950000D01*
X160000Y-11125000D02*
X180000Y-11145000D01*
X180000Y-11125000D02*
X160000Y-11145000D01*
X164000Y-10610000D02*
X184000Y-10630000D01*
X184000Y-10610000D02*
X164000Y-10630000D01*
X175000Y-3310000D02*
X195000Y-3330000D01*
X195000Y-3310000D02*
X175000Y-3330000D01*
X180000Y-3157500D02*
X200000Y-3177500D01*
X200000Y-3157500D02*
X180000Y-3177500D01*
X201400Y-2715200D02*
X221400Y-2735200D01*
X221400Y-2715200D02*
X201400Y-2735200D01*
X203800Y-2090000D02*
X223800Y-2110000D01*
X223800Y-2090000D02*
X203800Y-2110000D01*
X205000Y-10970000D02*
X225000Y-10990000D01*
X225000Y-10970000D02*
X205000Y-10990000D01*
X215000Y-12110000D02*
X235000Y-12130000D01*
X235000Y-12110000D02*
X215000Y-12130000D01*
X225000Y-12633000D02*
X245000Y-12653000D01*
X245000Y-12633000D02*
X225000Y-12653000D01*
X230000Y-3094500D02*
X250000Y-3114500D01*
X250000Y-3094500D02*
X230000Y-3114500D01*
X232500Y-11259500D02*
X252500Y-11279500D01*
X252500Y-11259500D02*
X232500Y-11279500D01*
X250000Y-940000D02*
X270000Y-960000D01*
X270000Y-940000D02*
X250000Y-960000D01*
X250000Y-11412500D02*
X270000Y-11432500D01*
X270000Y-11412500D02*
X250000Y-11432500D01*
X252500Y-9409500D02*
X272500Y-9429500D01*
X272500Y-9409500D02*
X252500Y-9429500D01*
X255000Y-10260000D02*
X275000Y-10280000D01*
X275000Y-10260000D02*
X255000Y-10280000D01*
X255000Y-10367500D02*
X275000Y-10387500D01*
X275000Y-10367500D02*
X255000Y-10387500D01*
X255000Y-10755000D02*
X275000Y-10775000D01*
X275000Y-10755000D02*
X255000Y-10775000D01*
X260000Y-2045000D02*
X280000Y-2065000D01*
X280000Y-2045000D02*
X260000Y-2065000D01*
X260000Y-2135000D02*
X280000Y-2155000D01*
X280000Y-2135000D02*
X260000Y-2155000D01*
X270000Y-11080000D02*
X290000Y-11100000D01*
X290000Y-11080000D02*
X270000Y-11100000D01*
X282500Y-10822500D02*
X302500Y-10842500D01*
X302500Y-10822500D02*
X282500Y-10842500D01*
X295000Y-11490000D02*
X315000Y-11510000D01*
X315000Y-11490000D02*
X295000Y-11510000D01*
X305000Y-12097500D02*
X325000Y-12117500D01*
X325000Y-12097500D02*
X305000Y-12117500D01*
X312500Y-2919500D02*
X332500Y-2939500D01*
X332500Y-2919500D02*
X312500Y-2939500D01*
X317500Y-12225000D02*
X337500Y-12245000D01*
X337500Y-12225000D02*
X317500Y-12245000D01*
X320000Y-11825000D02*
X340000Y-11845000D01*
X340000Y-11825000D02*
X320000Y-11845000D01*
X322500Y-11132500D02*
X342500Y-11152500D01*
X342500Y-11132500D02*
X322500Y-11152500D01*
X335000Y-11340000D02*
X355000Y-11360000D01*
X355000Y-11340000D02*
X335000Y-11360000D01*
X340000Y-2255000D02*
X360000Y-2275000D01*
X360000Y-2255000D02*
X340000Y-2275000D01*
X345000Y-11751000D02*
X365000Y-11771000D01*
X365000Y-11751000D02*
X345000Y-11771000D01*
X356100Y-11982600D02*
X376100Y-12002600D01*
X376100Y-11982600D02*
X356100Y-12002600D01*
X378900Y-2167500D02*
X398900Y-2187500D01*
X398900Y-2167500D02*
X378900Y-2187500D01*
X392500Y-11395000D02*
X412500Y-11415000D01*
X412500Y-11395000D02*
X392500Y-11415000D01*
X402000Y-11182000D02*
X422000Y-11202000D01*
X422000Y-11182000D02*
X402000Y-11202000D01*
X425000Y-12567500D02*
X445000Y-12587500D01*
X445000Y-12567500D02*
X425000Y-12587500D01*
X440000Y-10815000D02*
X460000Y-10835000D01*
X460000Y-10815000D02*
X440000Y-10835000D01*
X465000Y-12183900D02*
X485000Y-12203900D01*
X485000Y-12183900D02*
X465000Y-12203900D01*
X478000Y-2002000D02*
X498000Y-2022000D01*
X498000Y-2002000D02*
X478000Y-2022000D01*
X480000Y-2620000D02*
X500000Y-2640000D01*
X500000Y-2620000D02*
X480000Y-2640000D01*
X490000Y-11595000D02*
X510000Y-11615000D01*
X510000Y-11595000D02*
X490000Y-11615000D01*
X495000Y-2060000D02*
X515000Y-2080000D01*
X515000Y-2060000D02*
X495000Y-2080000D01*
X502500Y-2202500D02*
X522500Y-2222500D01*
X522500Y-2202500D02*
X502500Y-2222500D01*
X555000Y-1905000D02*
X575000Y-1925000D01*
X575000Y-1905000D02*
X555000Y-1925000D01*
X572200Y-292200D02*
X592200Y-312200D01*
X592200Y-292200D02*
X572200Y-312200D01*
X575000Y-11185000D02*
X595000Y-11205000D01*
X595000Y-11185000D02*
X575000Y-11205000D01*
X600000Y-11586000D02*
X620000Y-11606000D01*
X620000Y-11586000D02*
X600000Y-11606000D01*
X626000Y-11486000D02*
X646000Y-11506000D01*
X646000Y-11486000D02*
X626000Y-11506000D01*
X627500Y-12478800D02*
X647500Y-12498800D01*
X647500Y-12478800D02*
X627500Y-12498800D01*
X630000Y-2302000D02*
X650000Y-2322000D01*
X650000Y-2302000D02*
X630000Y-2322000D01*
X642000Y-2242000D02*
X662000Y-2262000D01*
X662000Y-2242000D02*
X642000Y-2262000D01*
X645000Y-11185000D02*
X665000Y-11205000D01*
X665000Y-11185000D02*
X645000Y-11205000D01*
X672500Y-12032500D02*
X692500Y-12052500D01*
X692500Y-12032500D02*
X672500Y-12052500D01*
X697500Y-11042500D02*
X717500Y-11062500D01*
X717500Y-11042500D02*
X697500Y-11062500D01*
X727500Y-11095000D02*
X747500Y-11115000D01*
X747500Y-11095000D02*
X727500Y-11115000D01*
X732400Y-11856400D02*
X752400Y-11876400D01*
X752400Y-11856400D02*
X732400Y-11876400D01*
X740000Y-11747500D02*
X760000Y-11767500D01*
X760000Y-11747500D02*
X740000Y-11767500D01*
X750000Y-2822500D02*
X770000Y-2842500D01*
X770000Y-2822500D02*
X750000Y-2842500D01*
X757500Y-11037500D02*
X777500Y-11057500D01*
X777500Y-11037500D02*
X757500Y-11057500D01*
X757500Y-11605000D02*
X777500Y-11625000D01*
X777500Y-11605000D02*
X757500Y-11625000D01*
X795000Y-11825000D02*
X815000Y-11845000D01*
X815000Y-11825000D02*
X795000Y-11845000D01*
X815000Y-10867500D02*
X835000Y-10887500D01*
X835000Y-10867500D02*
X815000Y-10887500D01*
X822000Y-2538500D02*
X842000Y-2558500D01*
X842000Y-2538500D02*
X822000Y-2558500D01*
X831400Y-11477600D02*
X851400Y-11497600D01*
X851400Y-11477600D02*
X831400Y-11497600D01*
X847500Y-11772500D02*
X867500Y-11792500D01*
X867500Y-11772500D02*
X847500Y-11792500D01*
X852000Y-2180000D02*
X872000Y-2200000D01*
X872000Y-2180000D02*
X852000Y-2200000D01*
X860000Y-10985000D02*
X880000Y-11005000D01*
X880000Y-10985000D02*
X860000Y-11005000D01*
X870000Y-2305000D02*
X890000Y-2325000D01*
X890000Y-2305000D02*
X870000Y-2325000D01*
X870000Y-11582500D02*
X890000Y-11602500D01*
X890000Y-11582500D02*
X870000Y-11602500D01*
X870000Y-12003000D02*
X890000Y-12023000D01*
X890000Y-12003000D02*
X870000Y-12023000D01*
X892500Y-12060000D02*
X912500Y-12080000D01*
X912500Y-12060000D02*
X892500Y-12080000D01*
X907500Y-11140000D02*
X927500Y-11160000D01*
X927500Y-11140000D02*
X907500Y-11160000D01*
X922500Y-10995000D02*
X942500Y-11015000D01*
X942500Y-10995000D02*
X922500Y-11015000D01*
X930000Y-11587500D02*
X950000Y-11607500D01*
X950000Y-11587500D02*
X930000Y-11607500D01*
X937500Y-12008750D02*
X957500Y-12028750D01*
X957500Y-12008750D02*
X937500Y-12028750D01*
X976400Y-11457500D02*
X996400Y-11477500D01*
X996400Y-11457500D02*
X976400Y-11477500D01*
X978200Y-11723100D02*
X998200Y-11743100D01*
X998200Y-11723100D02*
X978200Y-11743100D01*
X989000Y-11575000D02*
X1009000Y-11595000D01*
X1009000Y-11575000D02*
X989000Y-11595000D01*
X992500Y-11020000D02*
X1012500Y-11040000D01*
X1012500Y-11020000D02*
X992500Y-11040000D01*
X995900Y-11784900D02*
X1015900Y-11804900D01*
X1015900Y-11784900D02*
X995900Y-11804900D01*
X998000Y-3014000D02*
X1018000Y-3034000D01*
X1018000Y-3014000D02*
X998000Y-3034000D01*
X1006200Y-2543100D02*
X1026200Y-2563100D01*
X1026200Y-2543100D02*
X1006200Y-2563100D01*
X1024000Y-11605000D02*
X1044000Y-11625000D01*
X1044000Y-11605000D02*
X1024000Y-11625000D01*
X1062500Y-11742500D02*
X1082500Y-11762500D01*
X1082500Y-11742500D02*
X1062500Y-11762500D01*
X1072500Y-10867500D02*
X1092500Y-10887500D01*
X1092500Y-10867500D02*
X1072500Y-10887500D01*
X1083707Y-11613879D02*
X1103707Y-11633879D01*
X1103707Y-11613879D02*
X1083707Y-11633879D01*
X1090400Y-2448300D02*
X1110400Y-2468300D01*
X1110400Y-2448300D02*
X1090400Y-2468300D01*
X1096900Y-11008200D02*
X1116900Y-11028200D01*
X1116900Y-11008200D02*
X1096900Y-11028200D01*
X1109000Y-1726300D02*
X1129000Y-1746300D01*
X1129000Y-1726300D02*
X1109000Y-1746300D01*
X1110000Y-11121000D02*
X1130000Y-11141000D01*
X1130000Y-11121000D02*
X1110000Y-11141000D01*
X1142500Y-11177500D02*
X1162500Y-11197500D01*
X1162500Y-11177500D02*
X1142500Y-11197500D01*
X1143000Y-2342500D02*
X1163000Y-2362500D01*
X1163000Y-2342500D02*
X1143000Y-2362500D01*
X1155000Y-11970000D02*
X1175000Y-11990000D01*
X1175000Y-11970000D02*
X1155000Y-11990000D01*
X1158000Y-10874000D02*
X1178000Y-10894000D01*
X1178000Y-10874000D02*
X1158000Y-10894000D01*
X1171200Y-11830200D02*
X1191200Y-11850200D01*
X1191200Y-11830200D02*
X1171200Y-11850200D01*
X1200000Y-11573800D02*
X1220000Y-11593800D01*
X1220000Y-11573800D02*
X1200000Y-11593800D01*
X1205400Y-12003400D02*
X1225400Y-12023400D01*
X1225400Y-12003400D02*
X1205400Y-12023400D01*
X1240000Y-11833500D02*
X1260000Y-11853500D01*
X1260000Y-11833500D02*
X1240000Y-11853500D01*
X1247500Y-10927500D02*
X1267500Y-10947500D01*
X1267500Y-10927500D02*
X1247500Y-10947500D01*
X1249700Y-1968900D02*
X1269700Y-1988900D01*
X1269700Y-1968900D02*
X1249700Y-1988900D01*
X1265000Y-11958000D02*
X1285000Y-11978000D01*
X1285000Y-11958000D02*
X1265000Y-11978000D01*
X1275000Y-1060000D02*
X1295000Y-1080000D01*
X1295000Y-1060000D02*
X1275000Y-1080000D01*
X1280300Y-2436100D02*
X1300300Y-2456100D01*
X1300300Y-2436100D02*
X1280300Y-2456100D01*
X1295400Y-11884100D02*
X1315400Y-11904100D01*
X1315400Y-11884100D02*
X1295400Y-11904100D01*
X1300000Y-11460000D02*
X1320000Y-11480000D01*
X1320000Y-11460000D02*
X1300000Y-11480000D01*
X1315000Y-12008000D02*
X1335000Y-12028000D01*
X1335000Y-12008000D02*
X1315000Y-12028000D01*
X1326800Y-1861900D02*
X1346800Y-1881900D01*
X1346800Y-1861900D02*
X1326800Y-1881900D01*
X1330000Y-1685000D02*
X1350000Y-1705000D01*
X1350000Y-1685000D02*
X1330000Y-1705000D01*
X1362500Y-2790000D02*
X1382500Y-2810000D01*
X1382500Y-2790000D02*
X1362500Y-2810000D01*
X1377500Y-11245000D02*
X1397500Y-11265000D01*
X1397500Y-11245000D02*
X1377500Y-11265000D01*
X1378500Y-11958600D02*
X1398500Y-11978600D01*
X1398500Y-11958600D02*
X1378500Y-11978600D01*
X1385000Y-11592000D02*
X1405000Y-11612000D01*
X1405000Y-11592000D02*
X1385000Y-11612000D01*
X1390000Y-11456200D02*
X1410000Y-11476200D01*
X1410000Y-11456200D02*
X1390000Y-11476200D01*
X1412500Y-1287500D02*
X1432500Y-1307500D01*
X1432500Y-1287500D02*
X1412500Y-1307500D01*
X1415000Y-11855000D02*
X1435000Y-11875000D01*
X1435000Y-11855000D02*
X1415000Y-11875000D01*
X1430000Y-10912500D02*
X1450000Y-10932500D01*
X1450000Y-10912500D02*
X1430000Y-10932500D01*
X1440000Y-11215000D02*
X1460000Y-11235000D01*
X1460000Y-11215000D02*
X1440000Y-11235000D01*
X1450000Y-11702500D02*
X1470000Y-11722500D01*
X1470000Y-11702500D02*
X1450000Y-11722500D01*
X1468200Y-11013100D02*
X1488200Y-11033100D01*
X1488200Y-11013100D02*
X1468200Y-11033100D01*
X1482500Y-2790000D02*
X1502500Y-2810000D01*
X1502500Y-2790000D02*
X1482500Y-2810000D01*
X1493900Y-11509900D02*
X1513900Y-11529900D01*
X1513900Y-11509900D02*
X1493900Y-11529900D01*
X1500000Y-11165000D02*
X1520000Y-11185000D01*
X1520000Y-11165000D02*
X1500000Y-11185000D01*
X1510000Y-1460000D02*
X1530000Y-1480000D01*
X1530000Y-1460000D02*
X1510000Y-1480000D01*
X1510000Y-11062500D02*
X1530000Y-11082500D01*
X1530000Y-11062500D02*
X1510000Y-11082500D01*
X1530000Y-11702500D02*
X1550000Y-11722500D01*
X1550000Y-11702500D02*
X1530000Y-11722500D01*
X1552500Y-11942500D02*
X1572500Y-11962500D01*
X1572500Y-11942500D02*
X1552500Y-11962500D01*
X1561700Y-2459400D02*
X1581700Y-2479400D01*
X1581700Y-2459400D02*
X1561700Y-2479400D01*
X1568700Y-818300D02*
X1588700Y-838300D01*
X1588700Y-818300D02*
X1568700Y-838300D01*
X1590000Y-10922500D02*
X1610000Y-10942500D01*
X1610000Y-10922500D02*
X1590000Y-10942500D01*
X1620000Y-11240000D02*
X1640000Y-11260000D01*
X1640000Y-11240000D02*
X1620000Y-11260000D01*
X1625000Y-2815900D02*
X1645000Y-2835900D01*
X1645000Y-2815900D02*
X1625000Y-2835900D01*
X1625000Y-11877500D02*
X1645000Y-11897500D01*
X1645000Y-11877500D02*
X1625000Y-11897500D01*
X1639100Y-527300D02*
X1659100Y-547300D01*
X1659100Y-527300D02*
X1639100Y-547300D01*
X1660000Y-11950000D02*
X1680000Y-11970000D01*
X1680000Y-11950000D02*
X1660000Y-11970000D01*
X1680000Y-11258800D02*
X1700000Y-11278800D01*
X1700000Y-11258800D02*
X1680000Y-11278800D01*
X1685000Y-11892500D02*
X1705000Y-11912500D01*
X1705000Y-11892500D02*
X1685000Y-11912500D01*
X1715000Y-11695000D02*
X1735000Y-11715000D01*
X1735000Y-11695000D02*
X1715000Y-11715000D01*
X1730000Y-11940000D02*
X1750000Y-11960000D01*
X1750000Y-11940000D02*
X1730000Y-11960000D01*
X1746500Y-2572000D02*
X1766500Y-2592000D01*
X1766500Y-2572000D02*
X1746500Y-2592000D01*
X1760000Y-11210000D02*
X1780000Y-11230000D01*
X1780000Y-11210000D02*
X1760000Y-11230000D01*
X1765000Y-205000D02*
X1785000Y-225000D01*
X1785000Y-205000D02*
X1765000Y-225000D01*
X1771000Y-1265000D02*
X1791000Y-1285000D01*
X1791000Y-1265000D02*
X1771000Y-1285000D01*
X1771000Y-1390000D02*
X1791000Y-1410000D01*
X1791000Y-1390000D02*
X1771000Y-1410000D01*
X1776500Y-2185000D02*
X1796500Y-2205000D01*
X1796500Y-2185000D02*
X1776500Y-2205000D01*
X1780000Y-522500D02*
X1800000Y-542500D01*
X1800000Y-522500D02*
X1780000Y-542500D01*
X1810000Y-820000D02*
X1830000Y-840000D01*
X1830000Y-820000D02*
X1810000Y-840000D01*
X1825000Y-10920000D02*
X1845000Y-10940000D01*
X1845000Y-10920000D02*
X1825000Y-10940000D01*
X1836500Y-1942500D02*
X1856500Y-1962500D01*
X1856500Y-1942500D02*
X1836500Y-1962500D01*
X1855000Y-11567500D02*
X1875000Y-11587500D01*
X1875000Y-11567500D02*
X1855000Y-11587500D01*
X1860000Y-11453800D02*
X1880000Y-11473800D01*
X1880000Y-11453800D02*
X1860000Y-11473800D01*
X1874600Y-2190100D02*
X1894600Y-2210100D01*
X1894600Y-2190100D02*
X1874600Y-2210100D01*
X1874700Y-1668900D02*
X1894700Y-1688900D01*
X1894700Y-1668900D02*
X1874700Y-1688900D01*
X1880000Y-10965000D02*
X1900000Y-10985000D01*
X1900000Y-10965000D02*
X1880000Y-10985000D01*
X1905000Y-11615000D02*
X1925000Y-11635000D01*
X1925000Y-11615000D02*
X1905000Y-11635000D01*
X1905600Y-2507600D02*
X1925600Y-2527600D01*
X1925600Y-2507600D02*
X1905600Y-2527600D01*
X1907500Y-690000D02*
X1927500Y-710000D01*
X1927500Y-690000D02*
X1907500Y-710000D01*
X1934000Y-1831300D02*
X1954000Y-1851300D01*
X1954000Y-1831300D02*
X1934000Y-1851300D01*
X1935000Y-1685000D02*
X1955000Y-1705000D01*
X1955000Y-1685000D02*
X1935000Y-1705000D01*
X1951500Y-1743000D02*
X1971500Y-1763000D01*
X1971500Y-1743000D02*
X1951500Y-1763000D01*
X1957500Y-2440000D02*
X1977500Y-2460000D01*
X1977500Y-2440000D02*
X1957500Y-2460000D01*
X1957500Y-12082500D02*
X1977500Y-12102500D01*
X1977500Y-12082500D02*
X1957500Y-12102500D01*
X1975000Y-11908000D02*
X1995000Y-11928000D01*
X1995000Y-11908000D02*
X1975000Y-11928000D01*
X1987500Y-11065000D02*
X2007500Y-11085000D01*
X2007500Y-11065000D02*
X1987500Y-11085000D01*
X2011400Y-2563900D02*
X2031400Y-2583900D01*
X2031400Y-2563900D02*
X2011400Y-2583900D01*
X2020000Y-11462500D02*
X2040000Y-11482500D01*
X2040000Y-11462500D02*
X2020000Y-11482500D01*
X2021000Y-1615000D02*
X2041000Y-1635000D01*
X2041000Y-1615000D02*
X2021000Y-1635000D01*
X2041500Y-2122500D02*
X2061500Y-2142500D01*
X2061500Y-2122500D02*
X2041500Y-2142500D01*
X2055000Y-1260000D02*
X2075000Y-1280000D01*
X2075000Y-1260000D02*
X2055000Y-1280000D01*
X2074000Y-2958000D02*
X2094000Y-2978000D01*
X2094000Y-2958000D02*
X2074000Y-2978000D01*
X2075000Y-10990000D02*
X2095000Y-11010000D01*
X2095000Y-10990000D02*
X2075000Y-11010000D01*
X2078900Y-11864900D02*
X2098900Y-11884900D01*
X2098900Y-11864900D02*
X2078900Y-11884900D01*
X2082500Y-12136300D02*
X2102500Y-12156300D01*
X2102500Y-12136300D02*
X2082500Y-12156300D01*
X2090000Y-11615000D02*
X2110000Y-11635000D01*
X2110000Y-11615000D02*
X2090000Y-11635000D01*
X2091500Y-2170000D02*
X2111500Y-2190000D01*
X2111500Y-2170000D02*
X2091500Y-2190000D01*
X2094300Y-1907000D02*
X2114300Y-1927000D01*
X2114300Y-1907000D02*
X2094300Y-1927000D01*
X2100000Y-11285000D02*
X2120000Y-11305000D01*
X2120000Y-11285000D02*
X2100000Y-11305000D01*
X2137500Y-10905000D02*
X2157500Y-10925000D01*
X2157500Y-10905000D02*
X2137500Y-10925000D01*
X2140000Y-12082500D02*
X2160000Y-12102500D01*
X2160000Y-12082500D02*
X2140000Y-12102500D01*
X2147500Y-12210000D02*
X2167500Y-12230000D01*
X2167500Y-12210000D02*
X2147500Y-12230000D01*
X2152500Y-10967500D02*
X2172500Y-10987500D01*
X2172500Y-10967500D02*
X2152500Y-10987500D01*
X2155400Y-2387200D02*
X2175400Y-2407200D01*
X2175400Y-2387200D02*
X2155400Y-2407200D01*
X2158200Y-11148100D02*
X2178200Y-11168100D01*
X2178200Y-11148100D02*
X2158200Y-11168100D01*
X2159200Y-1647000D02*
X2179200Y-1667000D01*
X2179200Y-1647000D02*
X2159200Y-1667000D01*
X2162500Y-12385000D02*
X2182500Y-12405000D01*
X2182500Y-12385000D02*
X2162500Y-12405000D01*
X2169300Y-1452000D02*
X2189300Y-1472000D01*
X2189300Y-1452000D02*
X2169300Y-1472000D01*
X2169300Y-1712000D02*
X2189300Y-1732000D01*
X2189300Y-1712000D02*
X2169300Y-1732000D01*
X2169300Y-2037000D02*
X2189300Y-2057000D01*
X2189300Y-2037000D02*
X2169300Y-2057000D01*
X2170000Y-1830000D02*
X2190000Y-1850000D01*
X2190000Y-1830000D02*
X2170000Y-1850000D01*
X2174400Y-991200D02*
X2194400Y-1011200D01*
X2194400Y-991200D02*
X2174400Y-1011200D01*
X2179200Y-1322000D02*
X2199200Y-1342000D01*
X2199200Y-1322000D02*
X2179200Y-1342000D01*
X2185000Y-12265000D02*
X2205000Y-12285000D01*
X2205000Y-12265000D02*
X2185000Y-12285000D01*
X2186200Y-11983600D02*
X2206200Y-12003600D01*
X2206200Y-11983600D02*
X2186200Y-12003600D01*
X2190000Y-12661000D02*
X2210000Y-12681000D01*
X2210000Y-12661000D02*
X2190000Y-12681000D01*
X2200000Y-11005000D02*
X2220000Y-11025000D01*
X2220000Y-11005000D02*
X2200000Y-11025000D01*
X2275000Y-12190000D02*
X2295000Y-12210000D01*
X2295000Y-12190000D02*
X2275000Y-12210000D01*
X2285000Y-1321200D02*
X2305000Y-1341200D01*
X2305000Y-1321200D02*
X2285000Y-1341200D01*
X2286500Y-2587500D02*
X2306500Y-2607500D01*
X2306500Y-2587500D02*
X2286500Y-2607500D01*
X2297500Y-10847500D02*
X2317500Y-10867500D01*
X2317500Y-10847500D02*
X2297500Y-10867500D01*
X2300000Y-11640000D02*
X2320000Y-11660000D01*
X2320000Y-11640000D02*
X2300000Y-11660000D01*
X2301900Y-12380800D02*
X2321900Y-12400800D01*
X2321900Y-12380800D02*
X2301900Y-12400800D01*
X2320000Y-2945000D02*
X2340000Y-2965000D01*
X2340000Y-2945000D02*
X2320000Y-2965000D01*
X2331500Y-2242000D02*
X2351500Y-2262000D01*
X2351500Y-2242000D02*
X2331500Y-2262000D01*
X2338200Y-2461000D02*
X2358200Y-2481000D01*
X2358200Y-2461000D02*
X2338200Y-2481000D01*
X2390000Y-2215900D02*
X2410000Y-2235900D01*
X2410000Y-2215900D02*
X2390000Y-2235900D01*
X2390000Y-2941200D02*
X2410000Y-2961200D01*
X2410000Y-2941200D02*
X2390000Y-2961200D01*
X2408200Y-11463100D02*
X2428200Y-11483100D01*
X2428200Y-11463100D02*
X2408200Y-11483100D01*
X2415000Y-12242600D02*
X2435000Y-12262600D01*
X2435000Y-12242600D02*
X2415000Y-12262600D01*
X2417500Y-12612500D02*
X2437500Y-12632500D01*
X2437500Y-12612500D02*
X2417500Y-12632500D01*
X2418000Y-11004000D02*
X2438000Y-11024000D01*
X2438000Y-11004000D02*
X2418000Y-11024000D01*
X2430000Y-515000D02*
X2450000Y-535000D01*
X2450000Y-515000D02*
X2430000Y-535000D01*
X2430000Y-11242500D02*
X2450000Y-11262500D01*
X2450000Y-11242500D02*
X2430000Y-11262500D01*
X2440000Y-1335000D02*
X2460000Y-1355000D01*
X2460000Y-1335000D02*
X2440000Y-1355000D01*
X2450000Y-1951300D02*
X2470000Y-1971300D01*
X2470000Y-1951300D02*
X2450000Y-1971300D01*
X2450000Y-2760000D02*
X2470000Y-2780000D01*
X2470000Y-2760000D02*
X2450000Y-2780000D01*
X2451500Y-1870000D02*
X2471500Y-1890000D01*
X2471500Y-1870000D02*
X2451500Y-1890000D01*
X2467500Y-12317500D02*
X2487500Y-12337500D01*
X2487500Y-12317500D02*
X2467500Y-12337500D01*
X2496100Y-12499000D02*
X2516100Y-12519000D01*
X2516100Y-12499000D02*
X2496100Y-12519000D01*
X2525000Y-11636000D02*
X2545000Y-11656000D01*
X2545000Y-11636000D02*
X2525000Y-11656000D01*
X2526500Y-2557500D02*
X2546500Y-2577500D01*
X2546500Y-2557500D02*
X2526500Y-2577500D01*
X2536800Y-12250800D02*
X2556800Y-12270800D01*
X2556800Y-12250800D02*
X2536800Y-12270800D01*
X2539200Y-1652000D02*
X2559200Y-1672000D01*
X2559200Y-1652000D02*
X2539200Y-1672000D01*
X2540000Y-1110000D02*
X2560000Y-1130000D01*
X2560000Y-1110000D02*
X2540000Y-1130000D01*
X2546000Y-2315000D02*
X2566000Y-2335000D01*
X2566000Y-2315000D02*
X2546000Y-2335000D01*
X2556500Y-1750000D02*
X2576500Y-1770000D01*
X2576500Y-1750000D02*
X2556500Y-1770000D01*
X2560000Y-12625000D02*
X2580000Y-12645000D01*
X2580000Y-12625000D02*
X2560000Y-12645000D01*
X2560300Y-1821200D02*
X2580300Y-1841200D01*
X2580300Y-1821200D02*
X2560300Y-1841200D01*
X2565000Y-11590000D02*
X2585000Y-11610000D01*
X2585000Y-11590000D02*
X2565000Y-11610000D01*
X2570000Y-465000D02*
X2590000Y-485000D01*
X2590000Y-465000D02*
X2570000Y-485000D01*
X2570000Y-11930000D02*
X2590000Y-11950000D01*
X2590000Y-11930000D02*
X2570000Y-11950000D01*
X2574300Y-1880700D02*
X2594300Y-1900700D01*
X2594300Y-1880700D02*
X2574300Y-1900700D01*
X2607500Y-12050000D02*
X2627500Y-12070000D01*
X2627500Y-12050000D02*
X2607500Y-12070000D01*
X2622500Y-12625000D02*
X2642500Y-12645000D01*
X2642500Y-12625000D02*
X2622500Y-12645000D01*
X2629200Y-2417000D02*
X2649200Y-2437000D01*
X2649200Y-2417000D02*
X2629200Y-2437000D01*
X2645000Y-12232500D02*
X2665000Y-12252500D01*
X2665000Y-12232500D02*
X2645000Y-12252500D01*
X2653200Y-543100D02*
X2673200Y-563100D01*
X2673200Y-543100D02*
X2653200Y-563100D01*
X2669000Y-12581800D02*
X2689000Y-12601800D01*
X2689000Y-12581800D02*
X2669000Y-12601800D01*
X2675000Y-11767000D02*
X2695000Y-11787000D01*
X2695000Y-11767000D02*
X2675000Y-11787000D01*
X2675000Y-12055000D02*
X2695000Y-12075000D01*
X2695000Y-12055000D02*
X2675000Y-12075000D01*
X2685100Y-2450700D02*
X2705100Y-2470700D01*
X2705100Y-2450700D02*
X2685100Y-2470700D01*
X2690000Y-2265000D02*
X2710000Y-2285000D01*
X2710000Y-2265000D02*
X2690000Y-2285000D01*
X2704200Y-2612000D02*
X2724200Y-2632000D01*
X2724200Y-2612000D02*
X2704200Y-2632000D01*
X2712500Y-2690000D02*
X2732500Y-2710000D01*
X2732500Y-2690000D02*
X2712500Y-2710000D01*
X2712500Y-11590000D02*
X2732500Y-11610000D01*
X2732500Y-11590000D02*
X2712500Y-11610000D01*
X2715000Y-12218800D02*
X2735000Y-12238800D01*
X2735000Y-12218800D02*
X2715000Y-12238800D01*
X2746700Y-1517000D02*
X2766700Y-1537000D01*
X2766700Y-1517000D02*
X2746700Y-1537000D01*
X2746700Y-1582000D02*
X2766700Y-1602000D01*
X2766700Y-1582000D02*
X2746700Y-1602000D01*
X2746700Y-1707000D02*
X2766700Y-1727000D01*
X2766700Y-1707000D02*
X2746700Y-1727000D01*
X2750000Y-12425000D02*
X2770000Y-12445000D01*
X2770000Y-12425000D02*
X2750000Y-12445000D01*
X2765000Y-11640000D02*
X2785000Y-11660000D01*
X2785000Y-11640000D02*
X2765000Y-11660000D01*
X2825000Y-10950000D02*
X2845000Y-10970000D01*
X2845000Y-10950000D02*
X2825000Y-10970000D01*
X2832500Y-2690000D02*
X2852500Y-2710000D01*
X2852500Y-2690000D02*
X2832500Y-2710000D01*
X2835000Y-12515000D02*
X2855000Y-12535000D01*
X2855000Y-12515000D02*
X2835000Y-12535000D01*
X2860000Y-11285000D02*
X2880000Y-11305000D01*
X2880000Y-11285000D02*
X2860000Y-11305000D01*
X2885800Y-1450400D02*
X2905800Y-1470400D01*
X2905800Y-1450400D02*
X2885800Y-1470400D01*
X2889300Y-1385700D02*
X2909300Y-1405700D01*
X2909300Y-1385700D02*
X2889300Y-1405700D01*
X2901800Y-12085900D02*
X2921800Y-12105900D01*
X2921800Y-12085900D02*
X2901800Y-12105900D01*
X2935000Y-730000D02*
X2955000Y-750000D01*
X2955000Y-730000D02*
X2935000Y-750000D01*
X2941700Y-2167000D02*
X2961700Y-2187000D01*
X2961700Y-2167000D02*
X2941700Y-2187000D01*
X2960000Y-11635000D02*
X2980000Y-11655000D01*
X2980000Y-11635000D02*
X2960000Y-11655000D01*
X2960000Y-12060000D02*
X2980000Y-12080000D01*
X2980000Y-12060000D02*
X2960000Y-12080000D01*
X2971700Y-1840000D02*
X2991700Y-1860000D01*
X2991700Y-1840000D02*
X2971700Y-1860000D01*
X2986000Y-3010000D02*
X3006000Y-3030000D01*
X3006000Y-3010000D02*
X2986000Y-3030000D01*
X2991700Y-1647000D02*
X3011700Y-1667000D01*
X3011700Y-1647000D02*
X2991700Y-1667000D01*
X3009300Y-585300D02*
X3029300Y-605300D01*
X3029300Y-585300D02*
X3009300Y-605300D01*
X3023600Y-836400D02*
X3043600Y-856400D01*
X3043600Y-836400D02*
X3023600Y-856400D01*
X3030000Y-11285000D02*
X3050000Y-11305000D01*
X3050000Y-11285000D02*
X3030000Y-11305000D01*
X3050000Y-12050000D02*
X3070000Y-12070000D01*
X3070000Y-12050000D02*
X3050000Y-12070000D01*
X3055000Y-1515000D02*
X3075000Y-1535000D01*
X3075000Y-1515000D02*
X3055000Y-1535000D01*
X3080000Y-10945000D02*
X3100000Y-10965000D01*
X3100000Y-10945000D02*
X3080000Y-10965000D01*
X3092500Y-11770000D02*
X3112500Y-11790000D01*
X3112500Y-11770000D02*
X3092500Y-11790000D01*
X3101700Y-1667000D02*
X3121700Y-1687000D01*
X3121700Y-1667000D02*
X3101700Y-1687000D01*
X3110000Y-11147600D02*
X3130000Y-11167600D01*
X3130000Y-11147600D02*
X3110000Y-11167600D01*
X3134000Y-2011300D02*
X3154000Y-2031300D01*
X3154000Y-2011300D02*
X3134000Y-2031300D01*
X3140000Y-11460000D02*
X3160000Y-11480000D01*
X3160000Y-11460000D02*
X3140000Y-11480000D01*
X3145000Y-10910000D02*
X3165000Y-10930000D01*
X3165000Y-10910000D02*
X3145000Y-10930000D01*
X3160000Y-1798700D02*
X3180000Y-1818700D01*
X3180000Y-1798700D02*
X3160000Y-1818700D01*
X3162500Y-705000D02*
X3182500Y-725000D01*
X3182500Y-705000D02*
X3162500Y-725000D01*
X3162500Y-885000D02*
X3182500Y-905000D01*
X3182500Y-885000D02*
X3162500Y-905000D01*
X3166000Y-2605500D02*
X3186000Y-2625500D01*
X3186000Y-2605500D02*
X3166000Y-2625500D01*
X3170000Y-1675900D02*
X3190000Y-1695900D01*
X3190000Y-1675900D02*
X3170000Y-1695900D01*
X3185000Y-2050900D02*
X3205000Y-2070900D01*
X3205000Y-2050900D02*
X3185000Y-2070900D01*
X3193200Y-11313100D02*
X3213200Y-11333100D01*
X3213200Y-11313100D02*
X3193200Y-11333100D01*
X3235000Y-1965000D02*
X3255000Y-1985000D01*
X3255000Y-1965000D02*
X3235000Y-1985000D01*
X3235000Y-2370000D02*
X3255000Y-2390000D01*
X3255000Y-2370000D02*
X3235000Y-2390000D01*
X3235000Y-11687500D02*
X3255000Y-11707500D01*
X3255000Y-11687500D02*
X3235000Y-11707500D01*
X3245000Y-12132500D02*
X3265000Y-12152500D01*
X3265000Y-12132500D02*
X3245000Y-12152500D01*
X3250000Y-11885000D02*
X3270000Y-11905000D01*
X3270000Y-11885000D02*
X3250000Y-11905000D01*
X3258000Y-11566000D02*
X3278000Y-11586000D01*
X3278000Y-11566000D02*
X3258000Y-11586000D01*
X3280000Y-1918700D02*
X3300000Y-1938700D01*
X3300000Y-1918700D02*
X3280000Y-1938700D01*
X3285100Y-2450700D02*
X3305100Y-2470700D01*
X3305100Y-2450700D02*
X3285100Y-2470700D01*
X3287600Y-2006500D02*
X3307600Y-2026500D01*
X3307600Y-2006500D02*
X3287600Y-2026500D01*
X3293100Y-2931600D02*
X3313100Y-2951600D01*
X3313100Y-2931600D02*
X3293100Y-2951600D01*
X3295800Y-847400D02*
X3315800Y-867400D01*
X3315800Y-847400D02*
X3295800Y-867400D01*
X3308800Y-1459400D02*
X3328800Y-1479400D01*
X3328800Y-1459400D02*
X3308800Y-1479400D01*
X3312500Y-2690000D02*
X3332500Y-2710000D01*
X3332500Y-2690000D02*
X3312500Y-2710000D01*
X3317500Y-797500D02*
X3337500Y-817500D01*
X3337500Y-797500D02*
X3317500Y-817500D01*
X3324200Y-1874500D02*
X3344200Y-1894500D01*
X3344200Y-1874500D02*
X3324200Y-1894500D01*
X3325000Y-12125000D02*
X3345000Y-12145000D01*
X3345000Y-12125000D02*
X3325000Y-12145000D01*
X3361800Y-2307000D02*
X3381800Y-2327000D01*
X3381800Y-2307000D02*
X3361800Y-2327000D01*
X3365000Y-10965000D02*
X3385000Y-10985000D01*
X3385000Y-10965000D02*
X3365000Y-10985000D01*
X3375000Y-11750000D02*
X3395000Y-11770000D01*
X3395000Y-11750000D02*
X3375000Y-11770000D01*
X3406700Y-1615000D02*
X3426700Y-1635000D01*
X3426700Y-1615000D02*
X3406700Y-1635000D01*
X3420000Y-11440000D02*
X3440000Y-11460000D01*
X3440000Y-11440000D02*
X3420000Y-11460000D01*
X3432500Y-2690000D02*
X3452500Y-2710000D01*
X3452500Y-2690000D02*
X3432500Y-2710000D01*
X3465000Y-10965000D02*
X3485000Y-10985000D01*
X3485000Y-10965000D02*
X3465000Y-10985000D01*
X3490000Y-11435000D02*
X3510000Y-11455000D01*
X3510000Y-11435000D02*
X3490000Y-11455000D01*
X3496000Y-2440000D02*
X3516000Y-2460000D01*
X3516000Y-2440000D02*
X3496000Y-2460000D01*
X3500000Y-380000D02*
X3520000Y-400000D01*
X3520000Y-380000D02*
X3500000Y-400000D01*
X3515000Y-11567500D02*
X3535000Y-11587500D01*
X3535000Y-11567500D02*
X3515000Y-11587500D01*
X3520000Y-1460000D02*
X3540000Y-1480000D01*
X3540000Y-1460000D02*
X3520000Y-1480000D01*
X3520000Y-2158800D02*
X3540000Y-2178800D01*
X3540000Y-2158800D02*
X3520000Y-2178800D01*
X3526700Y-2307000D02*
X3546700Y-2327000D01*
X3546700Y-2307000D02*
X3526700Y-2327000D01*
X3543900Y-11837000D02*
X3563900Y-11857000D01*
X3563900Y-11837000D02*
X3543900Y-11857000D01*
X3574100Y-2745800D02*
X3594100Y-2765800D01*
X3594100Y-2745800D02*
X3574100Y-2765800D01*
X3580600Y-2082600D02*
X3600600Y-2102600D01*
X3600600Y-2082600D02*
X3580600Y-2102600D01*
X3590000Y-675500D02*
X3610000Y-695500D01*
X3610000Y-675500D02*
X3590000Y-695500D01*
X3590000Y-887500D02*
X3610000Y-907500D01*
X3610000Y-887500D02*
X3590000Y-907500D01*
X3624300Y-1190700D02*
X3644300Y-1210700D01*
X3644300Y-1190700D02*
X3624300Y-1210700D01*
X3632500Y-2015000D02*
X3652500Y-2035000D01*
X3652500Y-2015000D02*
X3632500Y-2035000D01*
X3640000Y-2420000D02*
X3660000Y-2440000D01*
X3660000Y-2420000D02*
X3640000Y-2440000D01*
X3640000Y-11425000D02*
X3660000Y-11445000D01*
X3660000Y-11425000D02*
X3640000Y-11445000D01*
X3650000Y-2690000D02*
X3670000Y-2710000D01*
X3670000Y-2690000D02*
X3650000Y-2710000D01*
X3653900Y-11093900D02*
X3673900Y-11113900D01*
X3673900Y-11093900D02*
X3653900Y-11113900D01*
X3670000Y-1740000D02*
X3690000Y-1760000D01*
X3690000Y-1740000D02*
X3670000Y-1760000D01*
X3670000Y-11940000D02*
X3690000Y-11960000D01*
X3690000Y-11940000D02*
X3670000Y-11960000D01*
X3693300Y-1170600D02*
X3713300Y-1190600D01*
X3713300Y-1170600D02*
X3693300Y-1190600D01*
X3702500Y-860000D02*
X3722500Y-880000D01*
X3722500Y-860000D02*
X3702500Y-880000D01*
X3707500Y-11177500D02*
X3727500Y-11197500D01*
X3727500Y-11177500D02*
X3707500Y-11197500D01*
X3710000Y-2310000D02*
X3730000Y-2330000D01*
X3730000Y-2310000D02*
X3710000Y-2330000D01*
X3720000Y-10800000D02*
X3740000Y-10820000D01*
X3740000Y-10800000D02*
X3720000Y-10820000D01*
X3736800Y-2164500D02*
X3756800Y-2184500D01*
X3756800Y-2164500D02*
X3736800Y-2184500D01*
X3752500Y-1287500D02*
X3772500Y-1307500D01*
X3772500Y-1287500D02*
X3752500Y-1307500D01*
X3753200Y-1193100D02*
X3773200Y-1213100D01*
X3773200Y-1193100D02*
X3753200Y-1213100D01*
X3763200Y-11313100D02*
X3783200Y-11333100D01*
X3783200Y-11313100D02*
X3763200Y-11333100D01*
X3765000Y-1825000D02*
X3785000Y-1845000D01*
X3785000Y-1825000D02*
X3765000Y-1845000D01*
X3770000Y-590000D02*
X3790000Y-610000D01*
X3790000Y-590000D02*
X3770000Y-610000D01*
X3787500Y-11160000D02*
X3807500Y-11180000D01*
X3807500Y-11160000D02*
X3787500Y-11180000D01*
X3795000Y-1407500D02*
X3815000Y-1427500D01*
X3815000Y-1407500D02*
X3795000Y-1427500D01*
X3815000Y-1706300D02*
X3835000Y-1726300D01*
X3835000Y-1706300D02*
X3815000Y-1726300D01*
X3820000Y-745000D02*
X3840000Y-765000D01*
X3840000Y-745000D02*
X3820000Y-765000D01*
X3840000Y-450000D02*
X3860000Y-470000D01*
X3860000Y-450000D02*
X3840000Y-470000D01*
X3860000Y-865000D02*
X3880000Y-885000D01*
X3880000Y-865000D02*
X3860000Y-885000D01*
X3896500Y-1711800D02*
X3916500Y-1731800D01*
X3916500Y-1711800D02*
X3896500Y-1731800D01*
X3900000Y-595000D02*
X3920000Y-615000D01*
X3920000Y-595000D02*
X3900000Y-615000D01*
X3910700Y-1501800D02*
X3930700Y-1521800D01*
X3930700Y-1501800D02*
X3910700Y-1521800D01*
X3917500Y-11942500D02*
X3937500Y-11962500D01*
X3937500Y-11942500D02*
X3917500Y-11962500D01*
X3925000Y-2290000D02*
X3945000Y-2310000D01*
X3945000Y-2290000D02*
X3925000Y-2310000D01*
X3965000Y-11145000D02*
X3985000Y-11165000D01*
X3985000Y-11145000D02*
X3965000Y-11165000D01*
X3967500Y-11977500D02*
X3987500Y-11997500D01*
X3987500Y-11977500D02*
X3967500Y-11997500D01*
X3970000Y-1350000D02*
X3990000Y-1370000D01*
X3990000Y-1350000D02*
X3970000Y-1370000D01*
X3970000Y-1515000D02*
X3990000Y-1535000D01*
X3990000Y-1515000D02*
X3970000Y-1535000D01*
X3980000Y-2087500D02*
X4000000Y-2107500D01*
X4000000Y-2087500D02*
X3980000Y-2107500D01*
X3989500Y-1090000D02*
X4009500Y-1110000D01*
X4009500Y-1090000D02*
X3989500Y-1110000D01*
X4000000Y-1925000D02*
X4020000Y-1945000D01*
X4020000Y-1925000D02*
X4000000Y-1945000D01*
X4025000Y-11155000D02*
X4045000Y-11175000D01*
X4045000Y-11155000D02*
X4025000Y-11175000D01*
X4035000Y-2060000D02*
X4055000Y-2080000D01*
X4055000Y-2060000D02*
X4035000Y-2080000D01*
X4035000Y-10950000D02*
X4055000Y-10970000D01*
X4055000Y-10950000D02*
X4035000Y-10970000D01*
X4047500Y-11987500D02*
X4067500Y-12007500D01*
X4067500Y-11987500D02*
X4047500Y-12007500D01*
X4050000Y-10765000D02*
X4070000Y-10785000D01*
X4070000Y-10765000D02*
X4050000Y-10785000D01*
X4059200Y-1574500D02*
X4079200Y-1594500D01*
X4079200Y-1574500D02*
X4059200Y-1594500D01*
X4062500Y-12197500D02*
X4082500Y-12217500D01*
X4082500Y-12197500D02*
X4062500Y-12217500D01*
X4079000Y-11755000D02*
X4099000Y-11775000D01*
X4099000Y-11755000D02*
X4079000Y-11775000D01*
X4090000Y-1850000D02*
X4110000Y-1870000D01*
X4110000Y-1850000D02*
X4090000Y-1870000D01*
X4095000Y-400000D02*
X4115000Y-420000D01*
X4115000Y-400000D02*
X4095000Y-420000D01*
X4120000Y-11140000D02*
X4140000Y-11160000D01*
X4140000Y-11140000D02*
X4120000Y-11160000D01*
X4126200Y-200000D02*
X4146200Y-220000D01*
X4146200Y-200000D02*
X4126200Y-220000D01*
X4126700Y-1902000D02*
X4146700Y-1922000D01*
X4146700Y-1902000D02*
X4126700Y-1922000D01*
X4135000Y-970000D02*
X4155000Y-990000D01*
X4155000Y-970000D02*
X4135000Y-990000D01*
X4135000Y-2095000D02*
X4155000Y-2115000D01*
X4155000Y-2095000D02*
X4135000Y-2115000D01*
X4180000Y-2035000D02*
X4200000Y-2055000D01*
X4200000Y-2035000D02*
X4180000Y-2055000D01*
X4180000Y-11150000D02*
X4200000Y-11170000D01*
X4200000Y-11150000D02*
X4180000Y-11170000D01*
X4182500Y-10800000D02*
X4202500Y-10820000D01*
X4202500Y-10800000D02*
X4182500Y-10820000D01*
X4204700Y-203900D02*
X4224700Y-223900D01*
X4224700Y-203900D02*
X4204700Y-223900D01*
X4212500Y-11985000D02*
X4232500Y-12005000D01*
X4232500Y-11985000D02*
X4212500Y-12005000D01*
X4225000Y-535000D02*
X4245000Y-555000D01*
X4245000Y-535000D02*
X4225000Y-555000D01*
X4235000Y-1466200D02*
X4255000Y-1486200D01*
X4255000Y-1466200D02*
X4235000Y-1486200D01*
X4245000Y-280000D02*
X4265000Y-300000D01*
X4265000Y-280000D02*
X4245000Y-300000D01*
X4295000Y-440000D02*
X4315000Y-460000D01*
X4315000Y-440000D02*
X4295000Y-460000D01*
X4295000Y-1622500D02*
X4315000Y-1642500D01*
X4315000Y-1622500D02*
X4295000Y-1642500D01*
X4303200Y-12193100D02*
X4323200Y-12213100D01*
X4323200Y-12193100D02*
X4303200Y-12213100D01*
X4305000Y-380000D02*
X4325000Y-400000D01*
X4325000Y-380000D02*
X4305000Y-400000D01*
X4310000Y-850000D02*
X4330000Y-870000D01*
X4330000Y-850000D02*
X4310000Y-870000D01*
X4315000Y-1800000D02*
X4335000Y-1820000D01*
X4335000Y-1800000D02*
X4315000Y-1820000D01*
X4320100Y-11987500D02*
X4340100Y-12007500D01*
X4340100Y-11987500D02*
X4320100Y-12007500D01*
X4330000Y-1285000D02*
X4350000Y-1305000D01*
X4350000Y-1285000D02*
X4330000Y-1305000D01*
X4347500Y-10800000D02*
X4367500Y-10820000D01*
X4367500Y-10800000D02*
X4347500Y-10820000D01*
X4355000Y-1955000D02*
X4375000Y-1975000D01*
X4375000Y-1955000D02*
X4355000Y-1975000D01*
X4359300Y-695700D02*
X4379300Y-715700D01*
X4379300Y-695700D02*
X4359300Y-715700D01*
X4362000Y-11146000D02*
X4382000Y-11166000D01*
X4382000Y-11146000D02*
X4362000Y-11166000D01*
X4396800Y-751400D02*
X4416800Y-771400D01*
X4416800Y-751400D02*
X4396800Y-771400D01*
X4425000Y-11140000D02*
X4445000Y-11160000D01*
X4445000Y-11140000D02*
X4425000Y-11160000D01*
X4446000Y-12140000D02*
X4466000Y-12160000D01*
X4466000Y-12140000D02*
X4446000Y-12160000D01*
X4450000Y-11580000D02*
X4470000Y-11600000D01*
X4470000Y-11580000D02*
X4450000Y-11600000D01*
X4453200Y-1293100D02*
X4473200Y-1313100D01*
X4473200Y-1293100D02*
X4453200Y-1313100D01*
X4460000Y-1397500D02*
X4480000Y-1417500D01*
X4480000Y-1397500D02*
X4460000Y-1417500D01*
X4461500Y-2452500D02*
X4481500Y-2472500D01*
X4481500Y-2452500D02*
X4461500Y-2472500D01*
X4490000Y-490900D02*
X4510000Y-510900D01*
X4510000Y-490900D02*
X4490000Y-510900D01*
X4500000Y-995000D02*
X4520000Y-1015000D01*
X4520000Y-995000D02*
X4500000Y-1015000D01*
X4505000Y-1055000D02*
X4525000Y-1075000D01*
X4525000Y-1055000D02*
X4505000Y-1075000D01*
X4512500Y-10962500D02*
X4532500Y-10982500D01*
X4532500Y-10962500D02*
X4512500Y-10982500D01*
X4512500Y-11140000D02*
X4532500Y-11160000D01*
X4532500Y-11140000D02*
X4512500Y-11160000D01*
X4515000Y-665000D02*
X4535000Y-685000D01*
X4535000Y-665000D02*
X4515000Y-685000D01*
X4515000Y-1315000D02*
X4535000Y-1335000D01*
X4535000Y-1315000D02*
X4515000Y-1335000D01*
X4520000Y-1467000D02*
X4540000Y-1487000D01*
X4540000Y-1467000D02*
X4520000Y-1487000D01*
X4525000Y-1785000D02*
X4545000Y-1805000D01*
X4545000Y-1785000D02*
X4525000Y-1805000D01*
X4527000Y-745000D02*
X4547000Y-765000D01*
X4547000Y-745000D02*
X4527000Y-765000D01*
X4540000Y-11950000D02*
X4560000Y-11970000D01*
X4560000Y-11950000D02*
X4540000Y-11970000D01*
X4546300Y-328700D02*
X4566300Y-348700D01*
X4566300Y-328700D02*
X4546300Y-348700D01*
X4550000Y-10765000D02*
X4570000Y-10785000D01*
X4570000Y-10765000D02*
X4550000Y-10785000D01*
X4580000Y-690000D02*
X4600000Y-710000D01*
X4600000Y-690000D02*
X4580000Y-710000D01*
X4580000Y-11140000D02*
X4600000Y-11160000D01*
X4600000Y-11140000D02*
X4580000Y-11160000D01*
X4620000Y-11370000D02*
X4640000Y-11390000D01*
X4640000Y-11370000D02*
X4620000Y-11390000D01*
X4627700Y-378800D02*
X4647700Y-398800D01*
X4647700Y-378800D02*
X4627700Y-398800D01*
X4631800Y-227800D02*
X4651800Y-247800D01*
X4651800Y-227800D02*
X4631800Y-247800D01*
X4639200Y-2642000D02*
X4659200Y-2662000D01*
X4659200Y-2642000D02*
X4639200Y-2662000D01*
X4640000Y-947500D02*
X4660000Y-967500D01*
X4660000Y-947500D02*
X4640000Y-967500D01*
X4646000Y-11890000D02*
X4666000Y-11910000D01*
X4666000Y-11890000D02*
X4646000Y-11910000D01*
X4654600Y-680300D02*
X4674600Y-700300D01*
X4674600Y-680300D02*
X4654600Y-700300D01*
X4655000Y-515000D02*
X4675000Y-535000D01*
X4675000Y-515000D02*
X4655000Y-535000D01*
X4655600Y-1156600D02*
X4675600Y-1176600D01*
X4675600Y-1156600D02*
X4655600Y-1176600D01*
X4660000Y-885000D02*
X4680000Y-905000D01*
X4680000Y-885000D02*
X4660000Y-905000D01*
X4665000Y-12067500D02*
X4685000Y-12087500D01*
X4685000Y-12067500D02*
X4665000Y-12087500D01*
X4729200Y-1793100D02*
X4749200Y-1813100D01*
X4749200Y-1793100D02*
X4729200Y-1813100D01*
X4730200Y-287200D02*
X4750200Y-307200D01*
X4750200Y-287200D02*
X4730200Y-307200D01*
X4754000Y-11470000D02*
X4774000Y-11490000D01*
X4774000Y-11470000D02*
X4754000Y-11490000D01*
X4775000Y-865000D02*
X4795000Y-885000D01*
X4795000Y-865000D02*
X4775000Y-885000D01*
X4775000Y-1005000D02*
X4795000Y-1025000D01*
X4795000Y-1005000D02*
X4775000Y-1025000D01*
X4780000Y-10787500D02*
X4800000Y-10807500D01*
X4800000Y-10787500D02*
X4780000Y-10807500D01*
X4782500Y-11365000D02*
X4802500Y-11385000D01*
X4802500Y-11365000D02*
X4782500Y-11385000D01*
X4795000Y-650000D02*
X4815000Y-670000D01*
X4815000Y-650000D02*
X4795000Y-670000D01*
X4795000Y-750000D02*
X4815000Y-770000D01*
X4815000Y-750000D02*
X4795000Y-770000D01*
X4795000Y-12090000D02*
X4815000Y-12110000D01*
X4815000Y-12090000D02*
X4795000Y-12110000D01*
X4796000Y-1155000D02*
X4816000Y-1175000D01*
X4816000Y-1155000D02*
X4796000Y-1175000D01*
X4805000Y-285000D02*
X4825000Y-305000D01*
X4825000Y-285000D02*
X4805000Y-305000D01*
X4805000Y-1445000D02*
X4825000Y-1465000D01*
X4825000Y-1445000D02*
X4805000Y-1465000D01*
X4823400Y-1047700D02*
X4843400Y-1067700D01*
X4843400Y-1047700D02*
X4823400Y-1067700D01*
X4845000Y-11966000D02*
X4865000Y-11986000D01*
X4865000Y-11966000D02*
X4845000Y-11986000D01*
X4855000Y-1365000D02*
X4875000Y-1385000D01*
X4875000Y-1365000D02*
X4855000Y-1385000D01*
X4855000Y-1575000D02*
X4875000Y-1595000D01*
X4875000Y-1575000D02*
X4855000Y-1595000D01*
X4855000Y-1655000D02*
X4875000Y-1675000D01*
X4875000Y-1655000D02*
X4855000Y-1675000D01*
X4857500Y-11547500D02*
X4877500Y-11567500D01*
X4877500Y-11547500D02*
X4857500Y-11567500D01*
X4868100Y-11354600D02*
X4888100Y-11374600D01*
X4888100Y-11354600D02*
X4868100Y-11374600D01*
X4890000Y-530000D02*
X4910000Y-550000D01*
X4910000Y-530000D02*
X4890000Y-550000D01*
X4890000Y-700000D02*
X4910000Y-720000D01*
X4910000Y-700000D02*
X4890000Y-720000D01*
X4904000Y-11785000D02*
X4924000Y-11805000D01*
X4924000Y-11785000D02*
X4904000Y-11805000D01*
X4915000Y-430000D02*
X4935000Y-450000D01*
X4935000Y-430000D02*
X4915000Y-450000D01*
X4915000Y-11901000D02*
X4935000Y-11921000D01*
X4935000Y-11901000D02*
X4915000Y-11921000D01*
X4927500Y-10800000D02*
X4947500Y-10820000D01*
X4947500Y-10800000D02*
X4927500Y-10820000D01*
X4938900Y-11837000D02*
X4958900Y-11857000D01*
X4958900Y-11837000D02*
X4938900Y-11857000D01*
X4993200Y-12018100D02*
X5013200Y-12038100D01*
X5013200Y-12018100D02*
X4993200Y-12038100D01*
X5020000Y-10762500D02*
X5040000Y-10782500D01*
X5040000Y-10762500D02*
X5020000Y-10782500D01*
X5048200Y-1052800D02*
X5068200Y-1072800D01*
X5068200Y-1052800D02*
X5048200Y-1072800D01*
X5101000Y-2050500D02*
X5121000Y-2070500D01*
X5121000Y-2050500D02*
X5101000Y-2070500D01*
X5175000Y-11550000D02*
X5195000Y-11570000D01*
X5195000Y-11550000D02*
X5175000Y-11570000D01*
X5175000Y-11931000D02*
X5195000Y-11951000D01*
X5195000Y-11931000D02*
X5175000Y-11951000D01*
X5175000Y-12439000D02*
X5195000Y-12459000D01*
X5195000Y-12439000D02*
X5175000Y-12459000D01*
X5192500Y-12072500D02*
X5212500Y-12092500D01*
X5212500Y-12072500D02*
X5192500Y-12092500D01*
X5195000Y-11077000D02*
X5215000Y-11097000D01*
X5215000Y-11077000D02*
X5195000Y-11097000D01*
X5195000Y-11180000D02*
X5215000Y-11200000D01*
X5215000Y-11180000D02*
X5195000Y-11200000D01*
X5195000Y-11710000D02*
X5215000Y-11730000D01*
X5215000Y-11710000D02*
X5195000Y-11730000D01*
X5202700Y-328800D02*
X5222700Y-348800D01*
X5222700Y-328800D02*
X5202700Y-348800D01*
X5223900Y-11597000D02*
X5243900Y-11617000D01*
X5243900Y-11597000D02*
X5223900Y-11617000D01*
X5334000Y-11174000D02*
X5354000Y-11194000D01*
X5354000Y-11174000D02*
X5334000Y-11194000D01*
X5340000Y-11340000D02*
X5360000Y-11360000D01*
X5360000Y-11340000D02*
X5340000Y-11360000D01*
X5423700Y-515000D02*
X5443700Y-535000D01*
X5443700Y-515000D02*
X5423700Y-535000D01*
X5525000Y-11015000D02*
X5545000Y-11035000D01*
X5545000Y-11015000D02*
X5525000Y-11035000D01*
X5535000Y-2175000D02*
X5555000Y-2195000D01*
X5555000Y-2175000D02*
X5535000Y-2195000D01*
X5542500Y-2890000D02*
X5562500Y-2910000D01*
X5562500Y-2890000D02*
X5542500Y-2910000D01*
X5595000Y-11002000D02*
X5615000Y-11022000D01*
X5615000Y-11002000D02*
X5595000Y-11022000D01*
X5598500Y-1650100D02*
X5618500Y-1670100D01*
X5618500Y-1650100D02*
X5598500Y-1670100D01*
X5606300Y-515000D02*
X5626300Y-535000D01*
X5626300Y-515000D02*
X5606300Y-535000D01*
X5667500Y-2690000D02*
X5687500Y-2710000D01*
X5687500Y-2690000D02*
X5667500Y-2710000D01*
X5691300Y-11422900D02*
X5711300Y-11442900D01*
X5711300Y-11422900D02*
X5691300Y-11442900D01*
X5695000Y-2760000D02*
X5715000Y-2780000D01*
X5715000Y-2760000D02*
X5695000Y-2780000D01*
X5720000Y-2595000D02*
X5740000Y-2615000D01*
X5740000Y-2595000D02*
X5720000Y-2615000D01*
X5785400Y-11013600D02*
X5805400Y-11033600D01*
X5805400Y-11013600D02*
X5785400Y-11033600D01*
X5805000Y-2585000D02*
X5825000Y-2605000D01*
X5825000Y-2585000D02*
X5805000Y-2605000D01*
X5815000Y-11070000D02*
X5835000Y-11090000D01*
X5835000Y-11070000D02*
X5815000Y-11090000D01*
X5954000Y-10778000D02*
X5974000Y-10798000D01*
X5974000Y-10778000D02*
X5954000Y-10798000D01*
X6162000Y-11014000D02*
X6182000Y-11034000D01*
X6182000Y-11014000D02*
X6162000Y-11034000D01*
X6240000Y-2880000D02*
X6260000Y-2900000D01*
X6260000Y-2880000D02*
X6240000Y-2900000D01*
X6270000Y-10950000D02*
X6290000Y-10970000D01*
X6290000Y-10950000D02*
X6270000Y-10970000D01*
X6352400Y-11018600D02*
X6372400Y-11038600D01*
X6372400Y-11018600D02*
X6352400Y-11038600D01*
X6440000Y-11315000D02*
X6460000Y-11335000D01*
X6460000Y-11315000D02*
X6440000Y-11335000D01*
X6470000Y-2045000D02*
X6490000Y-2065000D01*
X6490000Y-2045000D02*
X6470000Y-2065000D01*
X6485000Y-2795000D02*
X6505000Y-2815000D01*
X6505000Y-2795000D02*
X6485000Y-2815000D01*
X6547400Y-11013600D02*
X6567400Y-11033600D01*
X6567400Y-11013600D02*
X6547400Y-11033600D01*
X6565000Y-11185000D02*
X6585000Y-11205000D01*
X6585000Y-11185000D02*
X6565000Y-11205000D01*
X6603300Y-12022800D02*
X6623300Y-12042800D01*
X6623300Y-12022800D02*
X6603300Y-12042800D01*
X6610000Y-11420000D02*
X6630000Y-11440000D01*
X6630000Y-11420000D02*
X6610000Y-11440000D01*
X6610000Y-11715000D02*
X6630000Y-11735000D01*
X6630000Y-11715000D02*
X6610000Y-11735000D01*
X6610000Y-11780000D02*
X6630000Y-11800000D01*
X6630000Y-11780000D02*
X6610000Y-11800000D01*
X6620000Y-11130000D02*
X6640000Y-11150000D01*
X6640000Y-11130000D02*
X6620000Y-11150000D01*
X6675000Y-1915000D02*
X6695000Y-1935000D01*
X6695000Y-1915000D02*
X6675000Y-1935000D01*
X6700000Y-2335000D02*
X6720000Y-2355000D01*
X6720000Y-2335000D02*
X6700000Y-2355000D01*
X6715000Y-10805000D02*
X6735000Y-10825000D01*
X6735000Y-10805000D02*
X6715000Y-10825000D01*
X6726900Y-12077500D02*
X6746900Y-12097500D01*
X6746900Y-12077500D02*
X6726900Y-12097500D01*
X6726900Y-12204500D02*
X6746900Y-12224500D01*
X6746900Y-12204500D02*
X6726900Y-12224500D01*
X6728400Y-12464900D02*
X6748400Y-12484900D01*
X6748400Y-12464900D02*
X6728400Y-12484900D01*
X6728400Y-12591900D02*
X6748400Y-12611900D01*
X6748400Y-12591900D02*
X6728400Y-12611900D01*
X6780000Y-2665000D02*
X6800000Y-2685000D01*
X6800000Y-2665000D02*
X6780000Y-2685000D01*
X6830000Y-11275000D02*
X6850000Y-11295000D01*
X6850000Y-11275000D02*
X6830000Y-11295000D01*
X6835200Y-10755000D02*
X6855200Y-10775000D01*
X6855200Y-10755000D02*
X6835200Y-10775000D01*
X6850000Y-10900000D02*
X6870000Y-10920000D01*
X6870000Y-10900000D02*
X6850000Y-10920000D01*
X6895000Y-2250000D02*
X6915000Y-2270000D01*
X6915000Y-2250000D02*
X6895000Y-2270000D01*
X6895000Y-2350000D02*
X6915000Y-2370000D01*
X6915000Y-2350000D02*
X6895000Y-2370000D01*
X5980000Y-11861000D02*
G75*
G02*
X5960000Y-11861000I-10000J0D01*
G01*
X5960000Y-11861000D02*
G75*
G02*
X5980000Y-11861000I10000J0D01*
G01*
X5980000Y-12001000D02*
G75*
G02*
X5960000Y-12001000I-10000J0D01*
G01*
X5960000Y-12001000D02*
G75*
G02*
X5980000Y-12001000I10000J0D01*
G01*
X6050000Y-11791000D02*
G75*
G02*
X6030000Y-11791000I-10000J0D01*
G01*
X6030000Y-11791000D02*
G75*
G02*
X6050000Y-11791000I10000J0D01*
G01*
X6050000Y-11931000D02*
G75*
G02*
X6030000Y-11931000I-10000J0D01*
G01*
X6030000Y-11931000D02*
G75*
G02*
X6050000Y-11931000I10000J0D01*
G01*
X6050000Y-12071000D02*
G75*
G02*
X6030000Y-12071000I-10000J0D01*
G01*
X6030000Y-12071000D02*
G75*
G02*
X6050000Y-12071000I10000J0D01*
G01*
X6120000Y-11861000D02*
G75*
G02*
X6100000Y-11861000I-10000J0D01*
G01*
X6100000Y-11861000D02*
G75*
G02*
X6120000Y-11861000I10000J0D01*
G01*
X6120000Y-12001000D02*
G75*
G02*
X6100000Y-12001000I-10000J0D01*
G01*
X6100000Y-12001000D02*
G75*
G02*
X6120000Y-12001000I10000J0D01*
G01*
X6190000Y-11791000D02*
G75*
G02*
X6170000Y-11791000I-10000J0D01*
G01*
X6170000Y-11791000D02*
G75*
G02*
X6190000Y-11791000I10000J0D01*
G01*
X6190000Y-11931000D02*
G75*
G02*
X6170000Y-11931000I-10000J0D01*
G01*
X6170000Y-11931000D02*
G75*
G02*
X6190000Y-11931000I10000J0D01*
G01*
X6190000Y-12071000D02*
G75*
G02*
X6170000Y-12071000I-10000J0D01*
G01*
X6170000Y-12071000D02*
G75*
G02*
X6190000Y-12071000I10000J0D01*
G01*
X6260000Y-11861000D02*
G75*
G02*
X6240000Y-11861000I-10000J0D01*
G01*
X6240000Y-11861000D02*
G75*
G02*
X6260000Y-11861000I10000J0D01*
G01*
X6260000Y-12001000D02*
G75*
G02*
X6240000Y-12001000I-10000J0D01*
G01*
X6240000Y-12001000D02*
G75*
G02*
X6260000Y-12001000I10000J0D01*
G01*
X738000Y-12210000D02*
X738000Y-12270000D01*
X708000Y-12240000D02*
X768000Y-12240000D01*
X708000Y-12200000D02*
X708000Y-12280000D01*
X768000Y-12280000D02*
G75*
G02*
X708000Y-12280000I-30000J0D01*
G01*
X768000Y-12280000D02*
X768000Y-12200000D01*
X768000Y-12200000D02*
G75*
G03*
X708000Y-12200000I-30000J0D01*
G01*
X738000Y-12610000D02*
X738000Y-12670000D01*
X708000Y-12640000D02*
X768000Y-12640000D01*
X708000Y-12580000D02*
X708000Y-12700000D01*
X768000Y-12700000D02*
G75*
G02*
X708000Y-12700000I-30000J0D01*
G01*
X768000Y-12700000D02*
X768000Y-12580000D01*
X768000Y-12580000D02*
G75*
G03*
X708000Y-12580000I-30000J0D01*
G01*
X1862000Y-12210000D02*
X1862000Y-12270000D01*
X1832000Y-12240000D02*
X1892000Y-12240000D01*
X1832000Y-12200000D02*
X1832000Y-12280000D01*
X1892000Y-12280000D02*
G75*
G02*
X1832000Y-12280000I-30000J0D01*
G01*
X1892000Y-12280000D02*
X1892000Y-12200000D01*
X1892000Y-12200000D02*
G75*
G03*
X1832000Y-12200000I-30000J0D01*
G01*
X1862000Y-12610000D02*
X1862000Y-12670000D01*
X1832000Y-12640000D02*
X1892000Y-12640000D01*
X1832000Y-12580000D02*
X1832000Y-12700000D01*
X1892000Y-12700000D02*
G75*
G02*
X1832000Y-12700000I-30000J0D01*
G01*
X1892000Y-12700000D02*
X1892000Y-12580000D01*
X1892000Y-12580000D02*
G75*
G03*
X1832000Y-12580000I-30000J0D01*
G01*
D12*
X258277Y-13115484D02*
X258277Y-12915484D01*
X258277Y-12915484D02*
X305896Y-12915484D01*
X305896Y-12915484D02*
X334467Y-12925008D01*
X334467Y-12925008D02*
X353515Y-12944055D01*
X353515Y-12944055D02*
X363039Y-12963103D01*
X363039Y-12963103D02*
X372562Y-13001198D01*
X372562Y-13001198D02*
X372562Y-13029769D01*
X372562Y-13029769D02*
X363039Y-13067865D01*
X363039Y-13067865D02*
X353515Y-13086912D01*
X353515Y-13086912D02*
X334467Y-13105960D01*
X334467Y-13105960D02*
X305896Y-13115484D01*
X305896Y-13115484D02*
X258277Y-13115484D01*
X458277Y-13115484D02*
X458277Y-12982150D01*
X458277Y-13020246D02*
X467801Y-13001198D01*
X467801Y-13001198D02*
X477324Y-12991674D01*
X477324Y-12991674D02*
X496372Y-12982150D01*
X496372Y-12982150D02*
X515420Y-12982150D01*
X582086Y-13115484D02*
X582086Y-12982150D01*
X582086Y-12915484D02*
X572563Y-12925008D01*
X572563Y-12925008D02*
X582086Y-12934531D01*
X582086Y-12934531D02*
X591610Y-12925008D01*
X591610Y-12925008D02*
X582086Y-12915484D01*
X582086Y-12915484D02*
X582086Y-12934531D01*
X705896Y-13115484D02*
X686848Y-13105960D01*
X686848Y-13105960D02*
X677324Y-13086912D01*
X677324Y-13086912D02*
X677324Y-12915484D01*
X810658Y-13115484D02*
X791610Y-13105960D01*
X791610Y-13105960D02*
X782086Y-13086912D01*
X782086Y-13086912D02*
X782086Y-12915484D01*
X1039229Y-13115484D02*
X1039229Y-12915484D01*
X1039229Y-12915484D02*
X1105896Y-13058341D01*
X1105896Y-13058341D02*
X1172563Y-12915484D01*
X1172563Y-12915484D02*
X1172563Y-13115484D01*
X1353515Y-13115484D02*
X1353515Y-13010722D01*
X1353515Y-13010722D02*
X1343991Y-12991674D01*
X1343991Y-12991674D02*
X1324944Y-12982150D01*
X1324944Y-12982150D02*
X1286848Y-12982150D01*
X1286848Y-12982150D02*
X1267801Y-12991674D01*
X1353515Y-13105960D02*
X1334467Y-13115484D01*
X1334467Y-13115484D02*
X1286848Y-13115484D01*
X1286848Y-13115484D02*
X1267801Y-13105960D01*
X1267801Y-13105960D02*
X1258277Y-13086912D01*
X1258277Y-13086912D02*
X1258277Y-13067865D01*
X1258277Y-13067865D02*
X1267801Y-13048817D01*
X1267801Y-13048817D02*
X1286848Y-13039293D01*
X1286848Y-13039293D02*
X1334467Y-13039293D01*
X1334467Y-13039293D02*
X1353515Y-13029769D01*
X1448753Y-12982150D02*
X1448753Y-13182150D01*
X1448753Y-12991674D02*
X1467801Y-12982150D01*
X1467801Y-12982150D02*
X1505896Y-12982150D01*
X1505896Y-12982150D02*
X1524943Y-12991674D01*
X1524943Y-12991674D02*
X1534467Y-13001198D01*
X1534467Y-13001198D02*
X1543991Y-13020246D01*
X1543991Y-13020246D02*
X1543991Y-13077388D01*
X1543991Y-13077388D02*
X1534467Y-13096436D01*
X1534467Y-13096436D02*
X1524943Y-13105960D01*
X1524943Y-13105960D02*
X1505896Y-13115484D01*
X1505896Y-13115484D02*
X1467801Y-13115484D01*
X1467801Y-13115484D02*
X1448753Y-13105960D01*
X1629705Y-13096436D02*
X1639229Y-13105960D01*
X1639229Y-13105960D02*
X1629705Y-13115484D01*
X1629705Y-13115484D02*
X1620182Y-13105960D01*
X1620182Y-13105960D02*
X1629705Y-13096436D01*
X1629705Y-13096436D02*
X1629705Y-13115484D01*
X1629705Y-12991674D02*
X1639229Y-13001198D01*
X1639229Y-13001198D02*
X1629705Y-13010722D01*
X1629705Y-13010722D02*
X1620182Y-13001198D01*
X1620182Y-13001198D02*
X1629705Y-12991674D01*
X1629705Y-12991674D02*
X1629705Y-13010722D01*
D13*
X-22500Y-13434000D02*
X-2500Y-13454000D01*
X-2500Y-13434000D02*
X-22500Y-13454000D01*
D12*
X296372Y-13335484D02*
X315420Y-13335484D01*
X315420Y-13335484D02*
X334467Y-13345008D01*
X334467Y-13345008D02*
X343991Y-13354531D01*
X343991Y-13354531D02*
X353515Y-13373579D01*
X353515Y-13373579D02*
X363039Y-13411674D01*
X363039Y-13411674D02*
X363039Y-13459293D01*
X363039Y-13459293D02*
X353515Y-13497388D01*
X353515Y-13497388D02*
X343991Y-13516436D01*
X343991Y-13516436D02*
X334467Y-13525960D01*
X334467Y-13525960D02*
X315420Y-13535484D01*
X315420Y-13535484D02*
X296372Y-13535484D01*
X296372Y-13535484D02*
X277324Y-13525960D01*
X277324Y-13525960D02*
X267801Y-13516436D01*
X267801Y-13516436D02*
X258277Y-13497388D01*
X258277Y-13497388D02*
X248753Y-13459293D01*
X248753Y-13459293D02*
X248753Y-13411674D01*
X248753Y-13411674D02*
X258277Y-13373579D01*
X258277Y-13373579D02*
X267801Y-13354531D01*
X267801Y-13354531D02*
X277324Y-13345008D01*
X277324Y-13345008D02*
X296372Y-13335484D01*
X448753Y-13516436D02*
X458277Y-13525960D01*
X458277Y-13525960D02*
X448753Y-13535484D01*
X448753Y-13535484D02*
X439229Y-13525960D01*
X439229Y-13525960D02*
X448753Y-13516436D01*
X448753Y-13516436D02*
X448753Y-13535484D01*
X534467Y-13354531D02*
X543991Y-13345008D01*
X543991Y-13345008D02*
X563039Y-13335484D01*
X563039Y-13335484D02*
X610658Y-13335484D01*
X610658Y-13335484D02*
X629705Y-13345008D01*
X629705Y-13345008D02*
X639229Y-13354531D01*
X639229Y-13354531D02*
X648753Y-13373579D01*
X648753Y-13373579D02*
X648753Y-13392627D01*
X648753Y-13392627D02*
X639229Y-13421198D01*
X639229Y-13421198D02*
X524944Y-13535484D01*
X524944Y-13535484D02*
X648753Y-13535484D01*
X772562Y-13335484D02*
X791610Y-13335484D01*
X791610Y-13335484D02*
X810658Y-13345008D01*
X810658Y-13345008D02*
X820182Y-13354531D01*
X820182Y-13354531D02*
X829705Y-13373579D01*
X829705Y-13373579D02*
X839229Y-13411674D01*
X839229Y-13411674D02*
X839229Y-13459293D01*
X839229Y-13459293D02*
X829705Y-13497388D01*
X829705Y-13497388D02*
X820182Y-13516436D01*
X820182Y-13516436D02*
X810658Y-13525960D01*
X810658Y-13525960D02*
X791610Y-13535484D01*
X791610Y-13535484D02*
X772562Y-13535484D01*
X772562Y-13535484D02*
X753515Y-13525960D01*
X753515Y-13525960D02*
X743991Y-13516436D01*
X743991Y-13516436D02*
X734467Y-13497388D01*
X734467Y-13497388D02*
X724943Y-13459293D01*
X724943Y-13459293D02*
X724943Y-13411674D01*
X724943Y-13411674D02*
X734467Y-13373579D01*
X734467Y-13373579D02*
X743991Y-13354531D01*
X743991Y-13354531D02*
X753515Y-13345008D01*
X753515Y-13345008D02*
X772562Y-13335484D01*
X963039Y-13335484D02*
X982086Y-13335484D01*
X982086Y-13335484D02*
X1001134Y-13345008D01*
X1001134Y-13345008D02*
X1010658Y-13354531D01*
X1010658Y-13354531D02*
X1020182Y-13373579D01*
X1020182Y-13373579D02*
X1029705Y-13411674D01*
X1029705Y-13411674D02*
X1029705Y-13459293D01*
X1029705Y-13459293D02*
X1020182Y-13497388D01*
X1020182Y-13497388D02*
X1010658Y-13516436D01*
X1010658Y-13516436D02*
X1001134Y-13525960D01*
X1001134Y-13525960D02*
X982086Y-13535484D01*
X982086Y-13535484D02*
X963039Y-13535484D01*
X963039Y-13535484D02*
X943991Y-13525960D01*
X943991Y-13525960D02*
X934467Y-13516436D01*
X934467Y-13516436D02*
X924943Y-13497388D01*
X924943Y-13497388D02*
X915420Y-13459293D01*
X915420Y-13459293D02*
X915420Y-13411674D01*
X915420Y-13411674D02*
X924943Y-13373579D01*
X924943Y-13373579D02*
X934467Y-13354531D01*
X934467Y-13354531D02*
X943991Y-13345008D01*
X943991Y-13345008D02*
X963039Y-13335484D01*
X1115420Y-13535484D02*
X1115420Y-13402150D01*
X1115420Y-13421198D02*
X1124944Y-13411674D01*
X1124944Y-13411674D02*
X1143991Y-13402150D01*
X1143991Y-13402150D02*
X1172563Y-13402150D01*
X1172563Y-13402150D02*
X1191610Y-13411674D01*
X1191610Y-13411674D02*
X1201134Y-13430722D01*
X1201134Y-13430722D02*
X1201134Y-13535484D01*
X1201134Y-13430722D02*
X1210658Y-13411674D01*
X1210658Y-13411674D02*
X1229705Y-13402150D01*
X1229705Y-13402150D02*
X1258277Y-13402150D01*
X1258277Y-13402150D02*
X1277325Y-13411674D01*
X1277325Y-13411674D02*
X1286848Y-13430722D01*
X1286848Y-13430722D02*
X1286848Y-13535484D01*
X1382086Y-13535484D02*
X1382086Y-13402150D01*
X1382086Y-13421198D02*
X1391610Y-13411674D01*
X1391610Y-13411674D02*
X1410658Y-13402150D01*
X1410658Y-13402150D02*
X1439229Y-13402150D01*
X1439229Y-13402150D02*
X1458277Y-13411674D01*
X1458277Y-13411674D02*
X1467801Y-13430722D01*
X1467801Y-13430722D02*
X1467801Y-13535484D01*
X1467801Y-13430722D02*
X1477324Y-13411674D01*
X1477324Y-13411674D02*
X1496372Y-13402150D01*
X1496372Y-13402150D02*
X1524943Y-13402150D01*
X1524943Y-13402150D02*
X1543991Y-13411674D01*
X1543991Y-13411674D02*
X1553515Y-13430722D01*
X1553515Y-13430722D02*
X1553515Y-13535484D01*
X1943991Y-13325960D02*
X1772563Y-13583103D01*
X2201134Y-13335484D02*
X2220182Y-13335484D01*
X2220182Y-13335484D02*
X2239229Y-13345008D01*
X2239229Y-13345008D02*
X2248753Y-13354531D01*
X2248753Y-13354531D02*
X2258277Y-13373579D01*
X2258277Y-13373579D02*
X2267801Y-13411674D01*
X2267801Y-13411674D02*
X2267801Y-13459293D01*
X2267801Y-13459293D02*
X2258277Y-13497388D01*
X2258277Y-13497388D02*
X2248753Y-13516436D01*
X2248753Y-13516436D02*
X2239229Y-13525960D01*
X2239229Y-13525960D02*
X2220182Y-13535484D01*
X2220182Y-13535484D02*
X2201134Y-13535484D01*
X2201134Y-13535484D02*
X2182087Y-13525960D01*
X2182087Y-13525960D02*
X2172563Y-13516436D01*
X2172563Y-13516436D02*
X2163039Y-13497388D01*
X2163039Y-13497388D02*
X2153515Y-13459293D01*
X2153515Y-13459293D02*
X2153515Y-13411674D01*
X2153515Y-13411674D02*
X2163039Y-13373579D01*
X2163039Y-13373579D02*
X2172563Y-13354531D01*
X2172563Y-13354531D02*
X2182087Y-13345008D01*
X2182087Y-13345008D02*
X2201134Y-13335484D01*
X2353515Y-13516436D02*
X2363039Y-13525960D01*
X2363039Y-13525960D02*
X2353515Y-13535484D01*
X2353515Y-13535484D02*
X2343991Y-13525960D01*
X2343991Y-13525960D02*
X2353515Y-13516436D01*
X2353515Y-13516436D02*
X2353515Y-13535484D01*
X2486848Y-13335484D02*
X2505896Y-13335484D01*
X2505896Y-13335484D02*
X2524944Y-13345008D01*
X2524944Y-13345008D02*
X2534468Y-13354531D01*
X2534468Y-13354531D02*
X2543991Y-13373579D01*
X2543991Y-13373579D02*
X2553515Y-13411674D01*
X2553515Y-13411674D02*
X2553515Y-13459293D01*
X2553515Y-13459293D02*
X2543991Y-13497388D01*
X2543991Y-13497388D02*
X2534468Y-13516436D01*
X2534468Y-13516436D02*
X2524944Y-13525960D01*
X2524944Y-13525960D02*
X2505896Y-13535484D01*
X2505896Y-13535484D02*
X2486848Y-13535484D01*
X2486848Y-13535484D02*
X2467801Y-13525960D01*
X2467801Y-13525960D02*
X2458277Y-13516436D01*
X2458277Y-13516436D02*
X2448753Y-13497388D01*
X2448753Y-13497388D02*
X2439229Y-13459293D01*
X2439229Y-13459293D02*
X2439229Y-13411674D01*
X2439229Y-13411674D02*
X2448753Y-13373579D01*
X2448753Y-13373579D02*
X2458277Y-13354531D01*
X2458277Y-13354531D02*
X2467801Y-13345008D01*
X2467801Y-13345008D02*
X2486848Y-13335484D01*
X2677325Y-13335484D02*
X2696372Y-13335484D01*
X2696372Y-13335484D02*
X2715420Y-13345008D01*
X2715420Y-13345008D02*
X2724944Y-13354531D01*
X2724944Y-13354531D02*
X2734468Y-13373579D01*
X2734468Y-13373579D02*
X2743991Y-13411674D01*
X2743991Y-13411674D02*
X2743991Y-13459293D01*
X2743991Y-13459293D02*
X2734468Y-13497388D01*
X2734468Y-13497388D02*
X2724944Y-13516436D01*
X2724944Y-13516436D02*
X2715420Y-13525960D01*
X2715420Y-13525960D02*
X2696372Y-13535484D01*
X2696372Y-13535484D02*
X2677325Y-13535484D01*
X2677325Y-13535484D02*
X2658277Y-13525960D01*
X2658277Y-13525960D02*
X2648753Y-13516436D01*
X2648753Y-13516436D02*
X2639229Y-13497388D01*
X2639229Y-13497388D02*
X2629706Y-13459293D01*
X2629706Y-13459293D02*
X2629706Y-13411674D01*
X2629706Y-13411674D02*
X2639229Y-13373579D01*
X2639229Y-13373579D02*
X2648753Y-13354531D01*
X2648753Y-13354531D02*
X2658277Y-13345008D01*
X2658277Y-13345008D02*
X2677325Y-13335484D01*
X2810658Y-13335484D02*
X2943991Y-13335484D01*
X2943991Y-13335484D02*
X2858277Y-13535484D01*
X3029706Y-13535484D02*
X3067801Y-13535484D01*
X3067801Y-13535484D02*
X3086848Y-13525960D01*
X3086848Y-13525960D02*
X3096372Y-13516436D01*
X3096372Y-13516436D02*
X3115420Y-13487865D01*
X3115420Y-13487865D02*
X3124944Y-13449769D01*
X3124944Y-13449769D02*
X3124944Y-13373579D01*
X3124944Y-13373579D02*
X3115420Y-13354531D01*
X3115420Y-13354531D02*
X3105896Y-13345008D01*
X3105896Y-13345008D02*
X3086848Y-13335484D01*
X3086848Y-13335484D02*
X3048753Y-13335484D01*
X3048753Y-13335484D02*
X3029706Y-13345008D01*
X3029706Y-13345008D02*
X3020182Y-13354531D01*
X3020182Y-13354531D02*
X3010658Y-13373579D01*
X3010658Y-13373579D02*
X3010658Y-13421198D01*
X3010658Y-13421198D02*
X3020182Y-13440246D01*
X3020182Y-13440246D02*
X3029706Y-13449769D01*
X3029706Y-13449769D02*
X3048753Y-13459293D01*
X3048753Y-13459293D02*
X3086848Y-13459293D01*
X3086848Y-13459293D02*
X3105896Y-13449769D01*
X3105896Y-13449769D02*
X3115420Y-13440246D01*
X3115420Y-13440246D02*
X3124944Y-13421198D01*
X3201134Y-13335484D02*
X3201134Y-13373579D01*
X3277325Y-13335484D02*
X3277325Y-13373579D01*
X3572563Y-13611674D02*
X3563039Y-13602150D01*
X3563039Y-13602150D02*
X3543991Y-13573579D01*
X3543991Y-13573579D02*
X3534468Y-13554531D01*
X3534468Y-13554531D02*
X3524944Y-13525960D01*
X3524944Y-13525960D02*
X3515420Y-13478341D01*
X3515420Y-13478341D02*
X3515420Y-13440246D01*
X3515420Y-13440246D02*
X3524944Y-13392627D01*
X3524944Y-13392627D02*
X3534468Y-13364055D01*
X3534468Y-13364055D02*
X3543991Y-13345008D01*
X3543991Y-13345008D02*
X3563039Y-13316436D01*
X3563039Y-13316436D02*
X3572563Y-13306912D01*
X3743991Y-13335484D02*
X3648753Y-13335484D01*
X3648753Y-13335484D02*
X3639229Y-13430722D01*
X3639229Y-13430722D02*
X3648753Y-13421198D01*
X3648753Y-13421198D02*
X3667801Y-13411674D01*
X3667801Y-13411674D02*
X3715420Y-13411674D01*
X3715420Y-13411674D02*
X3734468Y-13421198D01*
X3734468Y-13421198D02*
X3743991Y-13430722D01*
X3743991Y-13430722D02*
X3753515Y-13449769D01*
X3753515Y-13449769D02*
X3753515Y-13497388D01*
X3753515Y-13497388D02*
X3743991Y-13516436D01*
X3743991Y-13516436D02*
X3734468Y-13525960D01*
X3734468Y-13525960D02*
X3715420Y-13535484D01*
X3715420Y-13535484D02*
X3667801Y-13535484D01*
X3667801Y-13535484D02*
X3648753Y-13525960D01*
X3648753Y-13525960D02*
X3639229Y-13516436D01*
X3943991Y-13535484D02*
X3829706Y-13535484D01*
X3886848Y-13535484D02*
X3886848Y-13335484D01*
X3886848Y-13335484D02*
X3867801Y-13364055D01*
X3867801Y-13364055D02*
X3848753Y-13383103D01*
X3848753Y-13383103D02*
X3829706Y-13392627D01*
X4115420Y-13402150D02*
X4115420Y-13535484D01*
X4067801Y-13325960D02*
X4020182Y-13468817D01*
X4020182Y-13468817D02*
X4143991Y-13468817D01*
X4372563Y-13535484D02*
X4372563Y-13335484D01*
X4458277Y-13535484D02*
X4458277Y-13430722D01*
X4458277Y-13430722D02*
X4448753Y-13411674D01*
X4448753Y-13411674D02*
X4429706Y-13402150D01*
X4429706Y-13402150D02*
X4401134Y-13402150D01*
X4401134Y-13402150D02*
X4382087Y-13411674D01*
X4382087Y-13411674D02*
X4372563Y-13421198D01*
X4582087Y-13535484D02*
X4563039Y-13525960D01*
X4563039Y-13525960D02*
X4553515Y-13516436D01*
X4553515Y-13516436D02*
X4543992Y-13497388D01*
X4543992Y-13497388D02*
X4543992Y-13440246D01*
X4543992Y-13440246D02*
X4553515Y-13421198D01*
X4553515Y-13421198D02*
X4563039Y-13411674D01*
X4563039Y-13411674D02*
X4582087Y-13402150D01*
X4582087Y-13402150D02*
X4610658Y-13402150D01*
X4610658Y-13402150D02*
X4629706Y-13411674D01*
X4629706Y-13411674D02*
X4639230Y-13421198D01*
X4639230Y-13421198D02*
X4648753Y-13440246D01*
X4648753Y-13440246D02*
X4648753Y-13497388D01*
X4648753Y-13497388D02*
X4639230Y-13516436D01*
X4639230Y-13516436D02*
X4629706Y-13525960D01*
X4629706Y-13525960D02*
X4610658Y-13535484D01*
X4610658Y-13535484D02*
X4582087Y-13535484D01*
X4763039Y-13535484D02*
X4743992Y-13525960D01*
X4743992Y-13525960D02*
X4734468Y-13506912D01*
X4734468Y-13506912D02*
X4734468Y-13335484D01*
X4915420Y-13525960D02*
X4896373Y-13535484D01*
X4896373Y-13535484D02*
X4858277Y-13535484D01*
X4858277Y-13535484D02*
X4839230Y-13525960D01*
X4839230Y-13525960D02*
X4829706Y-13506912D01*
X4829706Y-13506912D02*
X4829706Y-13430722D01*
X4829706Y-13430722D02*
X4839230Y-13411674D01*
X4839230Y-13411674D02*
X4858277Y-13402150D01*
X4858277Y-13402150D02*
X4896373Y-13402150D01*
X4896373Y-13402150D02*
X4915420Y-13411674D01*
X4915420Y-13411674D02*
X4924944Y-13430722D01*
X4924944Y-13430722D02*
X4924944Y-13449769D01*
X4924944Y-13449769D02*
X4829706Y-13468817D01*
X5001134Y-13525960D02*
X5020182Y-13535484D01*
X5020182Y-13535484D02*
X5058277Y-13535484D01*
X5058277Y-13535484D02*
X5077325Y-13525960D01*
X5077325Y-13525960D02*
X5086849Y-13506912D01*
X5086849Y-13506912D02*
X5086849Y-13497388D01*
X5086849Y-13497388D02*
X5077325Y-13478341D01*
X5077325Y-13478341D02*
X5058277Y-13468817D01*
X5058277Y-13468817D02*
X5029706Y-13468817D01*
X5029706Y-13468817D02*
X5010658Y-13459293D01*
X5010658Y-13459293D02*
X5001134Y-13440246D01*
X5001134Y-13440246D02*
X5001134Y-13430722D01*
X5001134Y-13430722D02*
X5010658Y-13411674D01*
X5010658Y-13411674D02*
X5029706Y-13402150D01*
X5029706Y-13402150D02*
X5058277Y-13402150D01*
X5058277Y-13402150D02*
X5077325Y-13411674D01*
X5153515Y-13611674D02*
X5163039Y-13602150D01*
X5163039Y-13602150D02*
X5182087Y-13573579D01*
X5182087Y-13573579D02*
X5191611Y-13554531D01*
X5191611Y-13554531D02*
X5201134Y-13525960D01*
X5201134Y-13525960D02*
X5210658Y-13478341D01*
X5210658Y-13478341D02*
X5210658Y-13440246D01*
X5210658Y-13440246D02*
X5201134Y-13392627D01*
X5201134Y-13392627D02*
X5191611Y-13364055D01*
X5191611Y-13364055D02*
X5182087Y-13345008D01*
X5182087Y-13345008D02*
X5163039Y-13316436D01*
X5163039Y-13316436D02*
X5153515Y-13306912D01*
D13*
X-2500Y-13708000D02*
G75*
G02*
X-22500Y-13708000I-10000J0D01*
G01*
X-22500Y-13708000D02*
G75*
G02*
X-2500Y-13708000I10000J0D01*
G01*
D12*
X296372Y-13599484D02*
X315420Y-13599484D01*
X315420Y-13599484D02*
X334467Y-13609008D01*
X334467Y-13609008D02*
X343991Y-13618531D01*
X343991Y-13618531D02*
X353515Y-13637579D01*
X353515Y-13637579D02*
X363039Y-13675674D01*
X363039Y-13675674D02*
X363039Y-13723293D01*
X363039Y-13723293D02*
X353515Y-13761388D01*
X353515Y-13761388D02*
X343991Y-13780436D01*
X343991Y-13780436D02*
X334467Y-13789960D01*
X334467Y-13789960D02*
X315420Y-13799484D01*
X315420Y-13799484D02*
X296372Y-13799484D01*
X296372Y-13799484D02*
X277324Y-13789960D01*
X277324Y-13789960D02*
X267801Y-13780436D01*
X267801Y-13780436D02*
X258277Y-13761388D01*
X258277Y-13761388D02*
X248753Y-13723293D01*
X248753Y-13723293D02*
X248753Y-13675674D01*
X248753Y-13675674D02*
X258277Y-13637579D01*
X258277Y-13637579D02*
X267801Y-13618531D01*
X267801Y-13618531D02*
X277324Y-13609008D01*
X277324Y-13609008D02*
X296372Y-13599484D01*
X448753Y-13780436D02*
X458277Y-13789960D01*
X458277Y-13789960D02*
X448753Y-13799484D01*
X448753Y-13799484D02*
X439229Y-13789960D01*
X439229Y-13789960D02*
X448753Y-13780436D01*
X448753Y-13780436D02*
X448753Y-13799484D01*
X534467Y-13618531D02*
X543991Y-13609008D01*
X543991Y-13609008D02*
X563039Y-13599484D01*
X563039Y-13599484D02*
X610658Y-13599484D01*
X610658Y-13599484D02*
X629705Y-13609008D01*
X629705Y-13609008D02*
X639229Y-13618531D01*
X639229Y-13618531D02*
X648753Y-13637579D01*
X648753Y-13637579D02*
X648753Y-13656627D01*
X648753Y-13656627D02*
X639229Y-13685198D01*
X639229Y-13685198D02*
X524944Y-13799484D01*
X524944Y-13799484D02*
X648753Y-13799484D01*
X772562Y-13599484D02*
X791610Y-13599484D01*
X791610Y-13599484D02*
X810658Y-13609008D01*
X810658Y-13609008D02*
X820182Y-13618531D01*
X820182Y-13618531D02*
X829705Y-13637579D01*
X829705Y-13637579D02*
X839229Y-13675674D01*
X839229Y-13675674D02*
X839229Y-13723293D01*
X839229Y-13723293D02*
X829705Y-13761388D01*
X829705Y-13761388D02*
X820182Y-13780436D01*
X820182Y-13780436D02*
X810658Y-13789960D01*
X810658Y-13789960D02*
X791610Y-13799484D01*
X791610Y-13799484D02*
X772562Y-13799484D01*
X772562Y-13799484D02*
X753515Y-13789960D01*
X753515Y-13789960D02*
X743991Y-13780436D01*
X743991Y-13780436D02*
X734467Y-13761388D01*
X734467Y-13761388D02*
X724943Y-13723293D01*
X724943Y-13723293D02*
X724943Y-13675674D01*
X724943Y-13675674D02*
X734467Y-13637579D01*
X734467Y-13637579D02*
X743991Y-13618531D01*
X743991Y-13618531D02*
X753515Y-13609008D01*
X753515Y-13609008D02*
X772562Y-13599484D01*
X963039Y-13599484D02*
X982086Y-13599484D01*
X982086Y-13599484D02*
X1001134Y-13609008D01*
X1001134Y-13609008D02*
X1010658Y-13618531D01*
X1010658Y-13618531D02*
X1020182Y-13637579D01*
X1020182Y-13637579D02*
X1029705Y-13675674D01*
X1029705Y-13675674D02*
X1029705Y-13723293D01*
X1029705Y-13723293D02*
X1020182Y-13761388D01*
X1020182Y-13761388D02*
X1010658Y-13780436D01*
X1010658Y-13780436D02*
X1001134Y-13789960D01*
X1001134Y-13789960D02*
X982086Y-13799484D01*
X982086Y-13799484D02*
X963039Y-13799484D01*
X963039Y-13799484D02*
X943991Y-13789960D01*
X943991Y-13789960D02*
X934467Y-13780436D01*
X934467Y-13780436D02*
X924943Y-13761388D01*
X924943Y-13761388D02*
X915420Y-13723293D01*
X915420Y-13723293D02*
X915420Y-13675674D01*
X915420Y-13675674D02*
X924943Y-13637579D01*
X924943Y-13637579D02*
X934467Y-13618531D01*
X934467Y-13618531D02*
X943991Y-13609008D01*
X943991Y-13609008D02*
X963039Y-13599484D01*
X1115420Y-13799484D02*
X1115420Y-13666150D01*
X1115420Y-13685198D02*
X1124944Y-13675674D01*
X1124944Y-13675674D02*
X1143991Y-13666150D01*
X1143991Y-13666150D02*
X1172563Y-13666150D01*
X1172563Y-13666150D02*
X1191610Y-13675674D01*
X1191610Y-13675674D02*
X1201134Y-13694722D01*
X1201134Y-13694722D02*
X1201134Y-13799484D01*
X1201134Y-13694722D02*
X1210658Y-13675674D01*
X1210658Y-13675674D02*
X1229705Y-13666150D01*
X1229705Y-13666150D02*
X1258277Y-13666150D01*
X1258277Y-13666150D02*
X1277325Y-13675674D01*
X1277325Y-13675674D02*
X1286848Y-13694722D01*
X1286848Y-13694722D02*
X1286848Y-13799484D01*
X1382086Y-13799484D02*
X1382086Y-13666150D01*
X1382086Y-13685198D02*
X1391610Y-13675674D01*
X1391610Y-13675674D02*
X1410658Y-13666150D01*
X1410658Y-13666150D02*
X1439229Y-13666150D01*
X1439229Y-13666150D02*
X1458277Y-13675674D01*
X1458277Y-13675674D02*
X1467801Y-13694722D01*
X1467801Y-13694722D02*
X1467801Y-13799484D01*
X1467801Y-13694722D02*
X1477324Y-13675674D01*
X1477324Y-13675674D02*
X1496372Y-13666150D01*
X1496372Y-13666150D02*
X1524943Y-13666150D01*
X1524943Y-13666150D02*
X1543991Y-13675674D01*
X1543991Y-13675674D02*
X1553515Y-13694722D01*
X1553515Y-13694722D02*
X1553515Y-13799484D01*
X1943991Y-13589960D02*
X1772563Y-13847103D01*
X2201134Y-13599484D02*
X2220182Y-13599484D01*
X2220182Y-13599484D02*
X2239229Y-13609008D01*
X2239229Y-13609008D02*
X2248753Y-13618531D01*
X2248753Y-13618531D02*
X2258277Y-13637579D01*
X2258277Y-13637579D02*
X2267801Y-13675674D01*
X2267801Y-13675674D02*
X2267801Y-13723293D01*
X2267801Y-13723293D02*
X2258277Y-13761388D01*
X2258277Y-13761388D02*
X2248753Y-13780436D01*
X2248753Y-13780436D02*
X2239229Y-13789960D01*
X2239229Y-13789960D02*
X2220182Y-13799484D01*
X2220182Y-13799484D02*
X2201134Y-13799484D01*
X2201134Y-13799484D02*
X2182087Y-13789960D01*
X2182087Y-13789960D02*
X2172563Y-13780436D01*
X2172563Y-13780436D02*
X2163039Y-13761388D01*
X2163039Y-13761388D02*
X2153515Y-13723293D01*
X2153515Y-13723293D02*
X2153515Y-13675674D01*
X2153515Y-13675674D02*
X2163039Y-13637579D01*
X2163039Y-13637579D02*
X2172563Y-13618531D01*
X2172563Y-13618531D02*
X2182087Y-13609008D01*
X2182087Y-13609008D02*
X2201134Y-13599484D01*
X2353515Y-13780436D02*
X2363039Y-13789960D01*
X2363039Y-13789960D02*
X2353515Y-13799484D01*
X2353515Y-13799484D02*
X2343991Y-13789960D01*
X2343991Y-13789960D02*
X2353515Y-13780436D01*
X2353515Y-13780436D02*
X2353515Y-13799484D01*
X2486848Y-13599484D02*
X2505896Y-13599484D01*
X2505896Y-13599484D02*
X2524944Y-13609008D01*
X2524944Y-13609008D02*
X2534468Y-13618531D01*
X2534468Y-13618531D02*
X2543991Y-13637579D01*
X2543991Y-13637579D02*
X2553515Y-13675674D01*
X2553515Y-13675674D02*
X2553515Y-13723293D01*
X2553515Y-13723293D02*
X2543991Y-13761388D01*
X2543991Y-13761388D02*
X2534468Y-13780436D01*
X2534468Y-13780436D02*
X2524944Y-13789960D01*
X2524944Y-13789960D02*
X2505896Y-13799484D01*
X2505896Y-13799484D02*
X2486848Y-13799484D01*
X2486848Y-13799484D02*
X2467801Y-13789960D01*
X2467801Y-13789960D02*
X2458277Y-13780436D01*
X2458277Y-13780436D02*
X2448753Y-13761388D01*
X2448753Y-13761388D02*
X2439229Y-13723293D01*
X2439229Y-13723293D02*
X2439229Y-13675674D01*
X2439229Y-13675674D02*
X2448753Y-13637579D01*
X2448753Y-13637579D02*
X2458277Y-13618531D01*
X2458277Y-13618531D02*
X2467801Y-13609008D01*
X2467801Y-13609008D02*
X2486848Y-13599484D01*
X2677325Y-13599484D02*
X2696372Y-13599484D01*
X2696372Y-13599484D02*
X2715420Y-13609008D01*
X2715420Y-13609008D02*
X2724944Y-13618531D01*
X2724944Y-13618531D02*
X2734468Y-13637579D01*
X2734468Y-13637579D02*
X2743991Y-13675674D01*
X2743991Y-13675674D02*
X2743991Y-13723293D01*
X2743991Y-13723293D02*
X2734468Y-13761388D01*
X2734468Y-13761388D02*
X2724944Y-13780436D01*
X2724944Y-13780436D02*
X2715420Y-13789960D01*
X2715420Y-13789960D02*
X2696372Y-13799484D01*
X2696372Y-13799484D02*
X2677325Y-13799484D01*
X2677325Y-13799484D02*
X2658277Y-13789960D01*
X2658277Y-13789960D02*
X2648753Y-13780436D01*
X2648753Y-13780436D02*
X2639229Y-13761388D01*
X2639229Y-13761388D02*
X2629706Y-13723293D01*
X2629706Y-13723293D02*
X2629706Y-13675674D01*
X2629706Y-13675674D02*
X2639229Y-13637579D01*
X2639229Y-13637579D02*
X2648753Y-13618531D01*
X2648753Y-13618531D02*
X2658277Y-13609008D01*
X2658277Y-13609008D02*
X2677325Y-13599484D01*
X2810658Y-13599484D02*
X2943991Y-13599484D01*
X2943991Y-13599484D02*
X2858277Y-13799484D01*
X3029706Y-13799484D02*
X3067801Y-13799484D01*
X3067801Y-13799484D02*
X3086848Y-13789960D01*
X3086848Y-13789960D02*
X3096372Y-13780436D01*
X3096372Y-13780436D02*
X3115420Y-13751865D01*
X3115420Y-13751865D02*
X3124944Y-13713769D01*
X3124944Y-13713769D02*
X3124944Y-13637579D01*
X3124944Y-13637579D02*
X3115420Y-13618531D01*
X3115420Y-13618531D02*
X3105896Y-13609008D01*
X3105896Y-13609008D02*
X3086848Y-13599484D01*
X3086848Y-13599484D02*
X3048753Y-13599484D01*
X3048753Y-13599484D02*
X3029706Y-13609008D01*
X3029706Y-13609008D02*
X3020182Y-13618531D01*
X3020182Y-13618531D02*
X3010658Y-13637579D01*
X3010658Y-13637579D02*
X3010658Y-13685198D01*
X3010658Y-13685198D02*
X3020182Y-13704246D01*
X3020182Y-13704246D02*
X3029706Y-13713769D01*
X3029706Y-13713769D02*
X3048753Y-13723293D01*
X3048753Y-13723293D02*
X3086848Y-13723293D01*
X3086848Y-13723293D02*
X3105896Y-13713769D01*
X3105896Y-13713769D02*
X3115420Y-13704246D01*
X3115420Y-13704246D02*
X3124944Y-13685198D01*
X3201134Y-13599484D02*
X3201134Y-13637579D01*
X3277325Y-13599484D02*
X3277325Y-13637579D01*
X3572563Y-13875674D02*
X3563039Y-13866150D01*
X3563039Y-13866150D02*
X3543991Y-13837579D01*
X3543991Y-13837579D02*
X3534468Y-13818531D01*
X3534468Y-13818531D02*
X3524944Y-13789960D01*
X3524944Y-13789960D02*
X3515420Y-13742341D01*
X3515420Y-13742341D02*
X3515420Y-13704246D01*
X3515420Y-13704246D02*
X3524944Y-13656627D01*
X3524944Y-13656627D02*
X3534468Y-13628055D01*
X3534468Y-13628055D02*
X3543991Y-13609008D01*
X3543991Y-13609008D02*
X3563039Y-13580436D01*
X3563039Y-13580436D02*
X3572563Y-13570912D01*
X3753515Y-13799484D02*
X3639229Y-13799484D01*
X3696372Y-13799484D02*
X3696372Y-13599484D01*
X3696372Y-13599484D02*
X3677325Y-13628055D01*
X3677325Y-13628055D02*
X3658277Y-13647103D01*
X3658277Y-13647103D02*
X3639229Y-13656627D01*
X3829706Y-13618531D02*
X3839229Y-13609008D01*
X3839229Y-13609008D02*
X3858277Y-13599484D01*
X3858277Y-13599484D02*
X3905896Y-13599484D01*
X3905896Y-13599484D02*
X3924944Y-13609008D01*
X3924944Y-13609008D02*
X3934468Y-13618531D01*
X3934468Y-13618531D02*
X3943991Y-13637579D01*
X3943991Y-13637579D02*
X3943991Y-13656627D01*
X3943991Y-13656627D02*
X3934468Y-13685198D01*
X3934468Y-13685198D02*
X3820182Y-13799484D01*
X3820182Y-13799484D02*
X3943991Y-13799484D01*
X4182087Y-13799484D02*
X4182087Y-13599484D01*
X4267801Y-13799484D02*
X4267801Y-13694722D01*
X4267801Y-13694722D02*
X4258277Y-13675674D01*
X4258277Y-13675674D02*
X4239230Y-13666150D01*
X4239230Y-13666150D02*
X4210658Y-13666150D01*
X4210658Y-13666150D02*
X4191610Y-13675674D01*
X4191610Y-13675674D02*
X4182087Y-13685198D01*
X4391611Y-13799484D02*
X4372563Y-13789960D01*
X4372563Y-13789960D02*
X4363039Y-13780436D01*
X4363039Y-13780436D02*
X4353515Y-13761388D01*
X4353515Y-13761388D02*
X4353515Y-13704246D01*
X4353515Y-13704246D02*
X4363039Y-13685198D01*
X4363039Y-13685198D02*
X4372563Y-13675674D01*
X4372563Y-13675674D02*
X4391611Y-13666150D01*
X4391611Y-13666150D02*
X4420182Y-13666150D01*
X4420182Y-13666150D02*
X4439230Y-13675674D01*
X4439230Y-13675674D02*
X4448753Y-13685198D01*
X4448753Y-13685198D02*
X4458277Y-13704246D01*
X4458277Y-13704246D02*
X4458277Y-13761388D01*
X4458277Y-13761388D02*
X4448753Y-13780436D01*
X4448753Y-13780436D02*
X4439230Y-13789960D01*
X4439230Y-13789960D02*
X4420182Y-13799484D01*
X4420182Y-13799484D02*
X4391611Y-13799484D01*
X4572563Y-13799484D02*
X4553515Y-13789960D01*
X4553515Y-13789960D02*
X4543992Y-13770912D01*
X4543992Y-13770912D02*
X4543992Y-13599484D01*
X4724944Y-13789960D02*
X4705896Y-13799484D01*
X4705896Y-13799484D02*
X4667801Y-13799484D01*
X4667801Y-13799484D02*
X4648753Y-13789960D01*
X4648753Y-13789960D02*
X4639230Y-13770912D01*
X4639230Y-13770912D02*
X4639230Y-13694722D01*
X4639230Y-13694722D02*
X4648753Y-13675674D01*
X4648753Y-13675674D02*
X4667801Y-13666150D01*
X4667801Y-13666150D02*
X4705896Y-13666150D01*
X4705896Y-13666150D02*
X4724944Y-13675674D01*
X4724944Y-13675674D02*
X4734468Y-13694722D01*
X4734468Y-13694722D02*
X4734468Y-13713769D01*
X4734468Y-13713769D02*
X4639230Y-13732817D01*
X4810658Y-13789960D02*
X4829706Y-13799484D01*
X4829706Y-13799484D02*
X4867801Y-13799484D01*
X4867801Y-13799484D02*
X4886849Y-13789960D01*
X4886849Y-13789960D02*
X4896373Y-13770912D01*
X4896373Y-13770912D02*
X4896373Y-13761388D01*
X4896373Y-13761388D02*
X4886849Y-13742341D01*
X4886849Y-13742341D02*
X4867801Y-13732817D01*
X4867801Y-13732817D02*
X4839230Y-13732817D01*
X4839230Y-13732817D02*
X4820182Y-13723293D01*
X4820182Y-13723293D02*
X4810658Y-13704246D01*
X4810658Y-13704246D02*
X4810658Y-13694722D01*
X4810658Y-13694722D02*
X4820182Y-13675674D01*
X4820182Y-13675674D02*
X4839230Y-13666150D01*
X4839230Y-13666150D02*
X4867801Y-13666150D01*
X4867801Y-13666150D02*
X4886849Y-13675674D01*
X4963039Y-13875674D02*
X4972563Y-13866150D01*
X4972563Y-13866150D02*
X4991611Y-13837579D01*
X4991611Y-13837579D02*
X5001134Y-13818531D01*
X5001134Y-13818531D02*
X5010658Y-13789960D01*
X5010658Y-13789960D02*
X5020182Y-13742341D01*
X5020182Y-13742341D02*
X5020182Y-13704246D01*
X5020182Y-13704246D02*
X5010658Y-13656627D01*
X5010658Y-13656627D02*
X5001134Y-13628055D01*
X5001134Y-13628055D02*
X4991611Y-13609008D01*
X4991611Y-13609008D02*
X4972563Y-13580436D01*
X4972563Y-13580436D02*
X4963039Y-13570912D01*
D13*
X-32500Y-13942000D02*
X-32500Y-14002000D01*
X-62500Y-13972000D02*
X-2500Y-13972000D01*
D12*
X296372Y-13863484D02*
X315420Y-13863484D01*
X315420Y-13863484D02*
X334467Y-13873008D01*
X334467Y-13873008D02*
X343991Y-13882531D01*
X343991Y-13882531D02*
X353515Y-13901579D01*
X353515Y-13901579D02*
X363039Y-13939674D01*
X363039Y-13939674D02*
X363039Y-13987293D01*
X363039Y-13987293D02*
X353515Y-14025388D01*
X353515Y-14025388D02*
X343991Y-14044436D01*
X343991Y-14044436D02*
X334467Y-14053960D01*
X334467Y-14053960D02*
X315420Y-14063484D01*
X315420Y-14063484D02*
X296372Y-14063484D01*
X296372Y-14063484D02*
X277324Y-14053960D01*
X277324Y-14053960D02*
X267801Y-14044436D01*
X267801Y-14044436D02*
X258277Y-14025388D01*
X258277Y-14025388D02*
X248753Y-13987293D01*
X248753Y-13987293D02*
X248753Y-13939674D01*
X248753Y-13939674D02*
X258277Y-13901579D01*
X258277Y-13901579D02*
X267801Y-13882531D01*
X267801Y-13882531D02*
X277324Y-13873008D01*
X277324Y-13873008D02*
X296372Y-13863484D01*
X448753Y-14044436D02*
X458277Y-14053960D01*
X458277Y-14053960D02*
X448753Y-14063484D01*
X448753Y-14063484D02*
X439229Y-14053960D01*
X439229Y-14053960D02*
X448753Y-14044436D01*
X448753Y-14044436D02*
X448753Y-14063484D01*
X629705Y-13863484D02*
X591610Y-13863484D01*
X591610Y-13863484D02*
X572563Y-13873008D01*
X572563Y-13873008D02*
X563039Y-13882531D01*
X563039Y-13882531D02*
X543991Y-13911103D01*
X543991Y-13911103D02*
X534467Y-13949198D01*
X534467Y-13949198D02*
X534467Y-14025388D01*
X534467Y-14025388D02*
X543991Y-14044436D01*
X543991Y-14044436D02*
X553515Y-14053960D01*
X553515Y-14053960D02*
X572563Y-14063484D01*
X572563Y-14063484D02*
X610658Y-14063484D01*
X610658Y-14063484D02*
X629705Y-14053960D01*
X629705Y-14053960D02*
X639229Y-14044436D01*
X639229Y-14044436D02*
X648753Y-14025388D01*
X648753Y-14025388D02*
X648753Y-13977769D01*
X648753Y-13977769D02*
X639229Y-13958722D01*
X639229Y-13958722D02*
X629705Y-13949198D01*
X629705Y-13949198D02*
X610658Y-13939674D01*
X610658Y-13939674D02*
X572563Y-13939674D01*
X572563Y-13939674D02*
X553515Y-13949198D01*
X553515Y-13949198D02*
X543991Y-13958722D01*
X543991Y-13958722D02*
X534467Y-13977769D01*
X772562Y-13863484D02*
X791610Y-13863484D01*
X791610Y-13863484D02*
X810658Y-13873008D01*
X810658Y-13873008D02*
X820182Y-13882531D01*
X820182Y-13882531D02*
X829705Y-13901579D01*
X829705Y-13901579D02*
X839229Y-13939674D01*
X839229Y-13939674D02*
X839229Y-13987293D01*
X839229Y-13987293D02*
X829705Y-14025388D01*
X829705Y-14025388D02*
X820182Y-14044436D01*
X820182Y-14044436D02*
X810658Y-14053960D01*
X810658Y-14053960D02*
X791610Y-14063484D01*
X791610Y-14063484D02*
X772562Y-14063484D01*
X772562Y-14063484D02*
X753515Y-14053960D01*
X753515Y-14053960D02*
X743991Y-14044436D01*
X743991Y-14044436D02*
X734467Y-14025388D01*
X734467Y-14025388D02*
X724943Y-13987293D01*
X724943Y-13987293D02*
X724943Y-13939674D01*
X724943Y-13939674D02*
X734467Y-13901579D01*
X734467Y-13901579D02*
X743991Y-13882531D01*
X743991Y-13882531D02*
X753515Y-13873008D01*
X753515Y-13873008D02*
X772562Y-13863484D01*
X963039Y-13863484D02*
X982086Y-13863484D01*
X982086Y-13863484D02*
X1001134Y-13873008D01*
X1001134Y-13873008D02*
X1010658Y-13882531D01*
X1010658Y-13882531D02*
X1020182Y-13901579D01*
X1020182Y-13901579D02*
X1029705Y-13939674D01*
X1029705Y-13939674D02*
X1029705Y-13987293D01*
X1029705Y-13987293D02*
X1020182Y-14025388D01*
X1020182Y-14025388D02*
X1010658Y-14044436D01*
X1010658Y-14044436D02*
X1001134Y-14053960D01*
X1001134Y-14053960D02*
X982086Y-14063484D01*
X982086Y-14063484D02*
X963039Y-14063484D01*
X963039Y-14063484D02*
X943991Y-14053960D01*
X943991Y-14053960D02*
X934467Y-14044436D01*
X934467Y-14044436D02*
X924943Y-14025388D01*
X924943Y-14025388D02*
X915420Y-13987293D01*
X915420Y-13987293D02*
X915420Y-13939674D01*
X915420Y-13939674D02*
X924943Y-13901579D01*
X924943Y-13901579D02*
X934467Y-13882531D01*
X934467Y-13882531D02*
X943991Y-13873008D01*
X943991Y-13873008D02*
X963039Y-13863484D01*
X1115420Y-14063484D02*
X1115420Y-13930150D01*
X1115420Y-13949198D02*
X1124944Y-13939674D01*
X1124944Y-13939674D02*
X1143991Y-13930150D01*
X1143991Y-13930150D02*
X1172563Y-13930150D01*
X1172563Y-13930150D02*
X1191610Y-13939674D01*
X1191610Y-13939674D02*
X1201134Y-13958722D01*
X1201134Y-13958722D02*
X1201134Y-14063484D01*
X1201134Y-13958722D02*
X1210658Y-13939674D01*
X1210658Y-13939674D02*
X1229705Y-13930150D01*
X1229705Y-13930150D02*
X1258277Y-13930150D01*
X1258277Y-13930150D02*
X1277325Y-13939674D01*
X1277325Y-13939674D02*
X1286848Y-13958722D01*
X1286848Y-13958722D02*
X1286848Y-14063484D01*
X1382086Y-14063484D02*
X1382086Y-13930150D01*
X1382086Y-13949198D02*
X1391610Y-13939674D01*
X1391610Y-13939674D02*
X1410658Y-13930150D01*
X1410658Y-13930150D02*
X1439229Y-13930150D01*
X1439229Y-13930150D02*
X1458277Y-13939674D01*
X1458277Y-13939674D02*
X1467801Y-13958722D01*
X1467801Y-13958722D02*
X1467801Y-14063484D01*
X1467801Y-13958722D02*
X1477324Y-13939674D01*
X1477324Y-13939674D02*
X1496372Y-13930150D01*
X1496372Y-13930150D02*
X1524943Y-13930150D01*
X1524943Y-13930150D02*
X1543991Y-13939674D01*
X1543991Y-13939674D02*
X1553515Y-13958722D01*
X1553515Y-13958722D02*
X1553515Y-14063484D01*
X1943991Y-13853960D02*
X1772563Y-14111103D01*
X2201134Y-13863484D02*
X2220182Y-13863484D01*
X2220182Y-13863484D02*
X2239229Y-13873008D01*
X2239229Y-13873008D02*
X2248753Y-13882531D01*
X2248753Y-13882531D02*
X2258277Y-13901579D01*
X2258277Y-13901579D02*
X2267801Y-13939674D01*
X2267801Y-13939674D02*
X2267801Y-13987293D01*
X2267801Y-13987293D02*
X2258277Y-14025388D01*
X2258277Y-14025388D02*
X2248753Y-14044436D01*
X2248753Y-14044436D02*
X2239229Y-14053960D01*
X2239229Y-14053960D02*
X2220182Y-14063484D01*
X2220182Y-14063484D02*
X2201134Y-14063484D01*
X2201134Y-14063484D02*
X2182087Y-14053960D01*
X2182087Y-14053960D02*
X2172563Y-14044436D01*
X2172563Y-14044436D02*
X2163039Y-14025388D01*
X2163039Y-14025388D02*
X2153515Y-13987293D01*
X2153515Y-13987293D02*
X2153515Y-13939674D01*
X2153515Y-13939674D02*
X2163039Y-13901579D01*
X2163039Y-13901579D02*
X2172563Y-13882531D01*
X2172563Y-13882531D02*
X2182087Y-13873008D01*
X2182087Y-13873008D02*
X2201134Y-13863484D01*
X2353515Y-14044436D02*
X2363039Y-14053960D01*
X2363039Y-14053960D02*
X2353515Y-14063484D01*
X2353515Y-14063484D02*
X2343991Y-14053960D01*
X2343991Y-14053960D02*
X2353515Y-14044436D01*
X2353515Y-14044436D02*
X2353515Y-14063484D01*
X2486848Y-13863484D02*
X2505896Y-13863484D01*
X2505896Y-13863484D02*
X2524944Y-13873008D01*
X2524944Y-13873008D02*
X2534468Y-13882531D01*
X2534468Y-13882531D02*
X2543991Y-13901579D01*
X2543991Y-13901579D02*
X2553515Y-13939674D01*
X2553515Y-13939674D02*
X2553515Y-13987293D01*
X2553515Y-13987293D02*
X2543991Y-14025388D01*
X2543991Y-14025388D02*
X2534468Y-14044436D01*
X2534468Y-14044436D02*
X2524944Y-14053960D01*
X2524944Y-14053960D02*
X2505896Y-14063484D01*
X2505896Y-14063484D02*
X2486848Y-14063484D01*
X2486848Y-14063484D02*
X2467801Y-14053960D01*
X2467801Y-14053960D02*
X2458277Y-14044436D01*
X2458277Y-14044436D02*
X2448753Y-14025388D01*
X2448753Y-14025388D02*
X2439229Y-13987293D01*
X2439229Y-13987293D02*
X2439229Y-13939674D01*
X2439229Y-13939674D02*
X2448753Y-13901579D01*
X2448753Y-13901579D02*
X2458277Y-13882531D01*
X2458277Y-13882531D02*
X2467801Y-13873008D01*
X2467801Y-13873008D02*
X2486848Y-13863484D01*
X2629706Y-13882531D02*
X2639229Y-13873008D01*
X2639229Y-13873008D02*
X2658277Y-13863484D01*
X2658277Y-13863484D02*
X2705896Y-13863484D01*
X2705896Y-13863484D02*
X2724944Y-13873008D01*
X2724944Y-13873008D02*
X2734468Y-13882531D01*
X2734468Y-13882531D02*
X2743991Y-13901579D01*
X2743991Y-13901579D02*
X2743991Y-13920627D01*
X2743991Y-13920627D02*
X2734468Y-13949198D01*
X2734468Y-13949198D02*
X2620182Y-14063484D01*
X2620182Y-14063484D02*
X2743991Y-14063484D01*
X2810658Y-13863484D02*
X2934467Y-13863484D01*
X2934467Y-13863484D02*
X2867801Y-13939674D01*
X2867801Y-13939674D02*
X2896372Y-13939674D01*
X2896372Y-13939674D02*
X2915420Y-13949198D01*
X2915420Y-13949198D02*
X2924944Y-13958722D01*
X2924944Y-13958722D02*
X2934467Y-13977769D01*
X2934467Y-13977769D02*
X2934467Y-14025388D01*
X2934467Y-14025388D02*
X2924944Y-14044436D01*
X2924944Y-14044436D02*
X2915420Y-14053960D01*
X2915420Y-14053960D02*
X2896372Y-14063484D01*
X2896372Y-14063484D02*
X2839229Y-14063484D01*
X2839229Y-14063484D02*
X2820182Y-14053960D01*
X2820182Y-14053960D02*
X2810658Y-14044436D01*
X3105896Y-13863484D02*
X3067801Y-13863484D01*
X3067801Y-13863484D02*
X3048753Y-13873008D01*
X3048753Y-13873008D02*
X3039229Y-13882531D01*
X3039229Y-13882531D02*
X3020182Y-13911103D01*
X3020182Y-13911103D02*
X3010658Y-13949198D01*
X3010658Y-13949198D02*
X3010658Y-14025388D01*
X3010658Y-14025388D02*
X3020182Y-14044436D01*
X3020182Y-14044436D02*
X3029706Y-14053960D01*
X3029706Y-14053960D02*
X3048753Y-14063484D01*
X3048753Y-14063484D02*
X3086848Y-14063484D01*
X3086848Y-14063484D02*
X3105896Y-14053960D01*
X3105896Y-14053960D02*
X3115420Y-14044436D01*
X3115420Y-14044436D02*
X3124944Y-14025388D01*
X3124944Y-14025388D02*
X3124944Y-13977769D01*
X3124944Y-13977769D02*
X3115420Y-13958722D01*
X3115420Y-13958722D02*
X3105896Y-13949198D01*
X3105896Y-13949198D02*
X3086848Y-13939674D01*
X3086848Y-13939674D02*
X3048753Y-13939674D01*
X3048753Y-13939674D02*
X3029706Y-13949198D01*
X3029706Y-13949198D02*
X3020182Y-13958722D01*
X3020182Y-13958722D02*
X3010658Y-13977769D01*
X3201134Y-13863484D02*
X3201134Y-13901579D01*
X3277325Y-13863484D02*
X3277325Y-13901579D01*
X3572563Y-14139674D02*
X3563039Y-14130150D01*
X3563039Y-14130150D02*
X3543991Y-14101579D01*
X3543991Y-14101579D02*
X3534468Y-14082531D01*
X3534468Y-14082531D02*
X3524944Y-14053960D01*
X3524944Y-14053960D02*
X3515420Y-14006341D01*
X3515420Y-14006341D02*
X3515420Y-13968246D01*
X3515420Y-13968246D02*
X3524944Y-13920627D01*
X3524944Y-13920627D02*
X3534468Y-13892055D01*
X3534468Y-13892055D02*
X3543991Y-13873008D01*
X3543991Y-13873008D02*
X3563039Y-13844436D01*
X3563039Y-13844436D02*
X3572563Y-13834912D01*
X3686848Y-13863484D02*
X3705896Y-13863484D01*
X3705896Y-13863484D02*
X3724944Y-13873008D01*
X3724944Y-13873008D02*
X3734468Y-13882531D01*
X3734468Y-13882531D02*
X3743991Y-13901579D01*
X3743991Y-13901579D02*
X3753515Y-13939674D01*
X3753515Y-13939674D02*
X3753515Y-13987293D01*
X3753515Y-13987293D02*
X3743991Y-14025388D01*
X3743991Y-14025388D02*
X3734468Y-14044436D01*
X3734468Y-14044436D02*
X3724944Y-14053960D01*
X3724944Y-14053960D02*
X3705896Y-14063484D01*
X3705896Y-14063484D02*
X3686848Y-14063484D01*
X3686848Y-14063484D02*
X3667801Y-14053960D01*
X3667801Y-14053960D02*
X3658277Y-14044436D01*
X3658277Y-14044436D02*
X3648753Y-14025388D01*
X3648753Y-14025388D02*
X3639229Y-13987293D01*
X3639229Y-13987293D02*
X3639229Y-13939674D01*
X3639229Y-13939674D02*
X3648753Y-13901579D01*
X3648753Y-13901579D02*
X3658277Y-13882531D01*
X3658277Y-13882531D02*
X3667801Y-13873008D01*
X3667801Y-13873008D02*
X3686848Y-13863484D01*
X3991610Y-14063484D02*
X3991610Y-13863484D01*
X4077325Y-14063484D02*
X4077325Y-13958722D01*
X4077325Y-13958722D02*
X4067801Y-13939674D01*
X4067801Y-13939674D02*
X4048753Y-13930150D01*
X4048753Y-13930150D02*
X4020182Y-13930150D01*
X4020182Y-13930150D02*
X4001134Y-13939674D01*
X4001134Y-13939674D02*
X3991610Y-13949198D01*
X4201134Y-14063484D02*
X4182087Y-14053960D01*
X4182087Y-14053960D02*
X4172563Y-14044436D01*
X4172563Y-14044436D02*
X4163039Y-14025388D01*
X4163039Y-14025388D02*
X4163039Y-13968246D01*
X4163039Y-13968246D02*
X4172563Y-13949198D01*
X4172563Y-13949198D02*
X4182087Y-13939674D01*
X4182087Y-13939674D02*
X4201134Y-13930150D01*
X4201134Y-13930150D02*
X4229706Y-13930150D01*
X4229706Y-13930150D02*
X4248753Y-13939674D01*
X4248753Y-13939674D02*
X4258277Y-13949198D01*
X4258277Y-13949198D02*
X4267801Y-13968246D01*
X4267801Y-13968246D02*
X4267801Y-14025388D01*
X4267801Y-14025388D02*
X4258277Y-14044436D01*
X4258277Y-14044436D02*
X4248753Y-14053960D01*
X4248753Y-14053960D02*
X4229706Y-14063484D01*
X4229706Y-14063484D02*
X4201134Y-14063484D01*
X4382087Y-14063484D02*
X4363039Y-14053960D01*
X4363039Y-14053960D02*
X4353515Y-14034912D01*
X4353515Y-14034912D02*
X4353515Y-13863484D01*
X4534468Y-14053960D02*
X4515420Y-14063484D01*
X4515420Y-14063484D02*
X4477325Y-14063484D01*
X4477325Y-14063484D02*
X4458277Y-14053960D01*
X4458277Y-14053960D02*
X4448753Y-14034912D01*
X4448753Y-14034912D02*
X4448753Y-13958722D01*
X4448753Y-13958722D02*
X4458277Y-13939674D01*
X4458277Y-13939674D02*
X4477325Y-13930150D01*
X4477325Y-13930150D02*
X4515420Y-13930150D01*
X4515420Y-13930150D02*
X4534468Y-13939674D01*
X4534468Y-13939674D02*
X4543992Y-13958722D01*
X4543992Y-13958722D02*
X4543992Y-13977769D01*
X4543992Y-13977769D02*
X4448753Y-13996817D01*
X4620182Y-14053960D02*
X4639230Y-14063484D01*
X4639230Y-14063484D02*
X4677325Y-14063484D01*
X4677325Y-14063484D02*
X4696373Y-14053960D01*
X4696373Y-14053960D02*
X4705896Y-14034912D01*
X4705896Y-14034912D02*
X4705896Y-14025388D01*
X4705896Y-14025388D02*
X4696373Y-14006341D01*
X4696373Y-14006341D02*
X4677325Y-13996817D01*
X4677325Y-13996817D02*
X4648753Y-13996817D01*
X4648753Y-13996817D02*
X4629706Y-13987293D01*
X4629706Y-13987293D02*
X4620182Y-13968246D01*
X4620182Y-13968246D02*
X4620182Y-13958722D01*
X4620182Y-13958722D02*
X4629706Y-13939674D01*
X4629706Y-13939674D02*
X4648753Y-13930150D01*
X4648753Y-13930150D02*
X4677325Y-13930150D01*
X4677325Y-13930150D02*
X4696373Y-13939674D01*
X4943992Y-13987293D02*
X5096373Y-13987293D01*
X5020182Y-14063484D02*
X5020182Y-13911103D01*
X5429706Y-13930150D02*
X5429706Y-14063484D01*
X5382087Y-13853960D02*
X5334468Y-13996817D01*
X5334468Y-13996817D02*
X5458277Y-13996817D01*
X5677325Y-14053960D02*
X5696373Y-14063484D01*
X5696373Y-14063484D02*
X5734468Y-14063484D01*
X5734468Y-14063484D02*
X5753515Y-14053960D01*
X5753515Y-14053960D02*
X5763039Y-14034912D01*
X5763039Y-14034912D02*
X5763039Y-14025388D01*
X5763039Y-14025388D02*
X5753515Y-14006341D01*
X5753515Y-14006341D02*
X5734468Y-13996817D01*
X5734468Y-13996817D02*
X5705896Y-13996817D01*
X5705896Y-13996817D02*
X5686849Y-13987293D01*
X5686849Y-13987293D02*
X5677325Y-13968246D01*
X5677325Y-13968246D02*
X5677325Y-13958722D01*
X5677325Y-13958722D02*
X5686849Y-13939674D01*
X5686849Y-13939674D02*
X5705896Y-13930150D01*
X5705896Y-13930150D02*
X5734468Y-13930150D01*
X5734468Y-13930150D02*
X5753515Y-13939674D01*
X5877325Y-14063484D02*
X5858277Y-14053960D01*
X5858277Y-14053960D02*
X5848754Y-14034912D01*
X5848754Y-14034912D02*
X5848754Y-13863484D01*
X5982087Y-14063484D02*
X5963039Y-14053960D01*
X5963039Y-14053960D02*
X5953515Y-14044436D01*
X5953515Y-14044436D02*
X5943992Y-14025388D01*
X5943992Y-14025388D02*
X5943992Y-13968246D01*
X5943992Y-13968246D02*
X5953515Y-13949198D01*
X5953515Y-13949198D02*
X5963039Y-13939674D01*
X5963039Y-13939674D02*
X5982087Y-13930150D01*
X5982087Y-13930150D02*
X6010658Y-13930150D01*
X6010658Y-13930150D02*
X6029706Y-13939674D01*
X6029706Y-13939674D02*
X6039230Y-13949198D01*
X6039230Y-13949198D02*
X6048754Y-13968246D01*
X6048754Y-13968246D02*
X6048754Y-14025388D01*
X6048754Y-14025388D02*
X6039230Y-14044436D01*
X6039230Y-14044436D02*
X6029706Y-14053960D01*
X6029706Y-14053960D02*
X6010658Y-14063484D01*
X6010658Y-14063484D02*
X5982087Y-14063484D01*
X6105896Y-13930150D02*
X6182087Y-13930150D01*
X6134468Y-13863484D02*
X6134468Y-14034912D01*
X6134468Y-14034912D02*
X6143992Y-14053960D01*
X6143992Y-14053960D02*
X6163039Y-14063484D01*
X6163039Y-14063484D02*
X6182087Y-14063484D01*
X6239230Y-14053960D02*
X6258277Y-14063484D01*
X6258277Y-14063484D02*
X6296373Y-14063484D01*
X6296373Y-14063484D02*
X6315420Y-14053960D01*
X6315420Y-14053960D02*
X6324944Y-14034912D01*
X6324944Y-14034912D02*
X6324944Y-14025388D01*
X6324944Y-14025388D02*
X6315420Y-14006341D01*
X6315420Y-14006341D02*
X6296373Y-13996817D01*
X6296373Y-13996817D02*
X6267801Y-13996817D01*
X6267801Y-13996817D02*
X6248754Y-13987293D01*
X6248754Y-13987293D02*
X6239230Y-13968246D01*
X6239230Y-13968246D02*
X6239230Y-13958722D01*
X6239230Y-13958722D02*
X6248754Y-13939674D01*
X6248754Y-13939674D02*
X6267801Y-13930150D01*
X6267801Y-13930150D02*
X6296373Y-13930150D01*
X6296373Y-13930150D02*
X6315420Y-13939674D01*
X6391611Y-14139674D02*
X6401135Y-14130150D01*
X6401135Y-14130150D02*
X6420182Y-14101579D01*
X6420182Y-14101579D02*
X6429706Y-14082531D01*
X6429706Y-14082531D02*
X6439230Y-14053960D01*
X6439230Y-14053960D02*
X6448754Y-14006341D01*
X6448754Y-14006341D02*
X6448754Y-13968246D01*
X6448754Y-13968246D02*
X6439230Y-13920627D01*
X6439230Y-13920627D02*
X6429706Y-13892055D01*
X6429706Y-13892055D02*
X6420182Y-13873008D01*
X6420182Y-13873008D02*
X6401135Y-13844436D01*
X6401135Y-13844436D02*
X6391611Y-13834912D01*
M02*
