G04 #@! TF.GenerationSoftware,KiCad,Pcbnew,10.0.5*
G04 #@! TF.CreationDate,2026-09-28T14:22:56+08:00*
G04 #@! TF.ProjectId,PANDA-STD-CORE-EVT-quilter-j501-merged,50414e44-412d-4535-9444-2d434f52452d,thin17-132-placement-unrouted*
G04 #@! TF.SameCoordinates,Original*
G04 #@! TF.FileFunction,Profile,NP*
%FSLAX46Y46*%
G04 Gerber Fmt 4.6, Leading zero omitted, Abs format (unit mm)*
G04 Created by KiCad (PCBNEW 10.0.5) date 2026-09-28 14:22:56*
%MOMM*%
%LPD*%
G01*
G04 APERTURE LIST*
G04 #@! TA.AperFunction,Profile*
%ADD10C,0.050000*%
G04 #@! TD*
G04 #@! TA.AperFunction,Profile*
%ADD11C,0.080000*%
G04 #@! TD*
G04 APERTURE END LIST*
D10*
X0Y-1000000D02*
G75*
G02*
X1000000Y0I1000000J0D01*
G01*
X0Y-127000000D02*
X0Y-1000000D01*
X1000000Y0D02*
X69000000Y0D01*
X1000000Y-128000000D02*
G75*
G02*
X0Y-127000000I180J1000180D01*
G01*
X4000000Y-34000000D02*
G75*
G02*
X5000000Y-33000000I1000000J0D01*
G01*
X4000000Y-106000000D02*
X4000000Y-34000000D01*
X5000000Y-33000000D02*
X65000000Y-33000000D01*
X5000000Y-107000000D02*
G75*
G02*
X4000000Y-106000000I0J1000000D01*
G01*
X8380000Y-128000000D02*
X1000000Y-128000000D01*
X65000000Y-33000000D02*
G75*
G02*
X66000000Y-34000000I0J-1000000D01*
G01*
X65000000Y-107000000D02*
X5000000Y-107000000D01*
X66000000Y-34000000D02*
X66000000Y-106000000D01*
X66000000Y-106000000D02*
G75*
G02*
X65000000Y-107000000I-1000000J0D01*
G01*
X69000000Y0D02*
G75*
G02*
X70000000Y-1000000I0J-1000000D01*
G01*
X69000000Y-128000000D02*
X17620000Y-128000000D01*
X70000000Y-1000000D02*
X70000000Y-127000000D01*
X70000000Y-127000000D02*
G75*
G02*
X69000000Y-128000000I-1000200J200D01*
G01*
D11*
X8380000Y-128000000D02*
X8380000Y-121800000D01*
X9180000Y-121800000D02*
X16820000Y-121800000D01*
X17620000Y-121800000D02*
X17620000Y-128000000D01*
X8380001Y-121800000D02*
G75*
G02*
X8705000Y-121400000I362501J37499D01*
G01*
X8705000Y-121400000D02*
G75*
G02*
X9030000Y-121680000I22501J-302499D01*
G01*
X9179999Y-121799999D02*
G75*
G02*
X9030000Y-121680000I-14999J135000D01*
G01*
X16969999Y-121679999D02*
G75*
G02*
X16820000Y-121799999I-134999J14999D01*
G01*
X16970002Y-121679999D02*
G75*
G02*
X17295000Y-121400002I302498J-22501D01*
G01*
X17295000Y-121400000D02*
G75*
G02*
X17620000Y-121800000I-37500J-362500D01*
G01*
M02*
