M48
; DRILL file KiCad 10.0.5 date 2026-09-28T14:22:56
; FORMAT={-:-/ absolute / metric / decimal}
; #@! TF.CreationDate,2026-09-28T14:22:56+08:00
; #@! TF.GenerationSoftware,Kicad,Pcbnew,10.0.5
; #@! TF.FileFunction,Plated,1,4,PTH
FMAT,2
METRIC
; #@! TA.AperFunction,Plated,PTH,ViaDrill
T1C0.200
; #@! TA.AperFunction,Plated,PTH,ComponentDrill
T2C0.200
; #@! TA.AperFunction,Plated,PTH,ComponentDrill
T3C0.600
%
G90
G05
T1
X0.725Y-22.95
X0.75Y-107.225
X0.75Y-118.8
X0.85Y-119.4
X0.977Y-22.37
X1.211Y-119.926
X1.45Y-59.4
X1.45Y-120.95
X1.64Y-99.4
X1.7Y-111.35
X1.74Y-106.2
X1.85Y-33.2
X1.9Y-31.675
X2.114Y-27.252
X2.138Y-21.0
X2.15Y-109.8
X2.25Y-121.2
X2.35Y-126.43
X2.4Y-31.045
X2.425Y-112.695
X2.6Y-9.5
X2.6Y-114.225
X2.625Y-94.195
X2.65Y-102.7
X2.65Y-103.775
X2.65Y-107.65
X2.7Y-20.55
X2.7Y-21.45
X2.8Y-110.9
X2.925Y-108.325
X3.05Y-115.0
X3.15Y-121.075
X3.225Y-29.295
X3.275Y-122.35
X3.3Y-118.35
X3.325Y-111.425
X3.45Y-113.5
X3.5Y-22.65
X3.55Y-117.61
X3.661Y-119.926
X3.889Y-21.775
X4.025Y-114.05
X4.12Y-111.92
X4.35Y-125.775
X4.5Y-108.25
X4.75Y-121.939
X4.88Y-20.12
X4.9Y-26.3
X5.0Y-116.05
X5.05Y-20.7
X5.125Y-22.125
X5.65Y-19.15
X5.822Y-3.022
X5.85Y-111.95
X6.1Y-115.96
X6.36Y-114.96
X6.375Y-124.888
X6.4Y-23.12
X6.52Y-22.52
X6.55Y-111.95
X6.825Y-120.425
X7.075Y-110.525
X7.375Y-111.05
X7.424Y-118.664
X7.5Y-117.575
X7.6Y-28.325
X7.675Y-110.475
X7.675Y-116.15
X8.05Y-118.35
X8.25Y-108.775
X8.32Y-25.485
X8.414Y-114.876
X8.575Y-117.825
X8.62Y-21.9
X8.7Y-109.95
X8.8Y-23.15
X8.8Y-115.925
X8.8Y-120.13
X9.025Y-120.7
X9.175Y-111.5
X9.325Y-110.05
X9.4Y-115.975
X9.475Y-120.188
X9.864Y-114.675
X9.882Y-117.331
X9.99Y-115.85
X10.025Y-110.3
X10.059Y-117.949
X10.08Y-30.24
X10.162Y-25.531
X10.34Y-116.15
X10.725Y-117.525
X10.825Y-108.775
X10.937Y-116.239
X11.004Y-24.583
X11.069Y-110.182
X11.19Y-17.363
X11.2Y-111.31
X11.525Y-111.875
X11.53Y-23.525
X11.65Y-119.8
X11.68Y-108.84
X11.812Y-118.402
X12.1Y-115.838
X12.154Y-120.134
X12.5Y-118.435
X12.575Y-109.375
X12.597Y-19.789
X12.75Y-119.68
X12.85Y-10.7
X12.903Y-24.461
X13.054Y-118.941
X13.1Y-114.7
X13.25Y-120.18
X13.368Y-18.719
X13.4Y-16.95
X13.725Y-28.0
X13.875Y-112.55
X13.885Y-119.686
X13.95Y-116.02
X14.0Y-114.662
X14.225Y-12.975
X14.25Y-118.65
X14.4Y-109.225
X14.5Y-112.25
X14.6Y-117.125
X14.782Y-110.231
X14.925Y-28.0
X15.039Y-115.199
X15.1Y-111.75
X15.2Y-14.7
X15.2Y-110.725
X15.4Y-117.125
X15.625Y-119.525
X15.717Y-24.694
X15.787Y-8.283
X16.0Y-109.325
X16.3Y-112.5
X16.35Y-28.259
X16.35Y-118.875
X16.491Y-5.373
X16.7Y-119.6
X16.9Y-112.688
X16.95Y-119.025
X17.25Y-117.05
X17.4Y-119.5
X17.565Y-25.82
X17.7Y-112.2
X17.75Y-2.15
X17.81Y-12.75
X17.81Y-14.0
X17.865Y-21.95
X17.9Y-5.325
X18.2Y-8.3
X18.35Y-109.3
X18.465Y-19.525
X18.65Y-115.775
X18.7Y-114.638
X18.846Y-22.001
X18.847Y-16.789
X18.9Y-109.75
X19.15Y-116.25
X19.156Y-25.176
X19.175Y-7.0
X19.44Y-18.413
X19.45Y-16.95
X19.615Y-17.53
X19.675Y-24.5
X19.675Y-120.925
X19.85Y-119.18
X19.975Y-110.75
X20.214Y-25.739
X20.3Y-114.725
X20.31Y-16.25
X20.515Y-21.325
X20.65Y-12.7
X20.84Y-29.68
X20.85Y-110.0
X20.889Y-118.749
X20.925Y-121.463
X21.0Y-116.25
X21.015Y-21.8
X21.043Y-19.17
X21.1Y-112.95
X21.475Y-109.15
X21.5Y-120.925
X21.575Y-122.2
X21.625Y-109.775
X21.654Y-23.972
X21.682Y-111.581
X21.692Y-16.57
X21.725Y-123.95
X21.793Y-14.62
X21.793Y-17.22
X21.793Y-20.47
X21.8Y-18.4
X21.844Y-10.012
X21.892Y-13.32
X21.95Y-122.75
X21.962Y-119.936
X22.0Y-126.71
X22.1Y-110.15
X22.85Y-122.0
X22.95Y-13.312
X22.965Y-25.975
X23.075Y-108.575
X23.1Y-116.5
X23.119Y-123.908
X23.3Y-29.55
X23.415Y-22.52
X23.482Y-24.71
X24.0Y-22.259
X24.0Y-29.512
X24.182Y-114.731
X24.25Y-122.526
X24.275Y-126.225
X24.28Y-110.14
X24.4Y-5.25
X24.4Y-112.525
X24.5Y-13.45
X24.6Y-19.613
X24.6Y-27.7
X24.615Y-18.8
X24.775Y-123.275
X25.061Y-125.09
X25.35Y-116.46
X25.365Y-25.675
X25.468Y-122.608
X25.492Y-16.62
X25.5Y-11.2
X25.56Y-23.25
X25.665Y-17.6
X25.7Y-126.35
X25.703Y-18.312
X25.75Y-116.0
X25.8Y-4.75
X25.8Y-119.4
X25.843Y-18.907
X26.175Y-120.6
X26.325Y-126.35
X26.392Y-24.27
X26.55Y-122.425
X26.632Y-5.531
X26.79Y-125.918
X26.85Y-117.77
X26.85Y-120.65
X26.951Y-24.607
X27.0Y-22.75
X27.142Y-26.22
X27.225Y-27.0
X27.225Y-116.0
X27.25Y-122.288
X27.567Y-15.27
X27.567Y-15.92
X27.567Y-17.17
X27.6Y-124.35
X27.75Y-116.5
X28.35Y-109.6
X28.425Y-27.0
X28.45Y-125.25
X28.7Y-112.95
X28.958Y-14.604
X28.993Y-13.957
X29.118Y-120.959
X29.45Y-7.4
X29.517Y-21.77
X29.7Y-116.45
X29.7Y-120.7
X29.817Y-18.5
X29.96Y-30.2
X30.017Y-16.57
X30.193Y-5.953
X30.336Y-8.464
X30.4Y-112.95
X30.6Y-120.6
X30.65Y-15.25
X30.9Y-109.55
X31.025Y-117.8
X31.117Y-16.77
X31.2Y-111.576
X31.44Y-20.213
X31.5Y-114.7
X31.55Y-109.2
X31.7Y-18.087
X31.725Y-7.15
X31.725Y-8.95
X31.76Y-26.155
X31.8Y-16.859
X31.95Y-20.609
X32.032Y-113.231
X32.45Y-19.75
X32.45Y-23.8
X32.45Y-116.975
X32.55Y-121.425
X32.6Y-118.95
X32.68Y-115.76
X32.9Y-19.287
X32.951Y-24.607
X32.976Y-20.165
X33.031Y-29.416
X33.058Y-8.574
X33.188Y-14.694
X33.225Y-27.0
X33.275Y-8.075
X33.342Y-18.845
X33.35Y-121.35
X33.718Y-23.17
X33.75Y-109.75
X33.85Y-117.6
X34.167Y-16.25
X34.3Y-114.5
X34.425Y-27.0
X34.75Y-109.75
X35.0Y-114.45
X35.06Y-24.5
X35.1Y-3.9
X35.25Y-115.775
X35.3Y-14.7
X35.3Y-21.688
X35.367Y-23.17
X35.539Y-118.47
X35.841Y-27.558
X35.906Y-20.926
X36.0Y-6.855
X36.0Y-8.975
X36.343Y-12.007
X36.425Y-20.25
X36.5Y-24.3
X36.5Y-114.35
X36.6Y-27.0
X36.639Y-111.039
X36.8Y-17.5
X36.8Y-119.5
X37.033Y-11.806
X37.125Y-8.7
X37.175Y-111.875
X37.2Y-23.2
X37.3Y-108.1
X37.468Y-21.745
X37.625Y-12.975
X37.632Y-12.031
X37.732Y-113.231
X37.75Y-18.35
X37.8Y-6.0
X37.975Y-111.7
X38.05Y-14.175
X38.25Y-17.163
X38.3Y-7.55
X38.5Y-4.6
X38.7Y-8.75
X39.065Y-17.218
X39.1Y-6.05
X39.207Y-15.118
X39.275Y-119.525
X39.35Y-23.0
X39.75Y-111.55
X39.775Y-119.875
X39.8Y-13.6
X39.8Y-15.25
X39.9Y-20.975
X39.995Y-11.0
X40.1Y-19.35
X40.35Y-111.65
X40.45Y-20.7
X40.45Y-109.6
X40.575Y-119.975
X40.6Y-107.75
X40.692Y-15.845
X40.725Y-122.075
X40.89Y-117.65
X41.0Y-18.6
X41.05Y-4.1
X41.3Y-111.5
X41.362Y-2.1
X41.367Y-19.12
X41.45Y-9.8
X41.45Y-21.05
X41.9Y-20.45
X41.9Y-111.6
X41.925Y-108.1
X42.147Y-2.139
X42.225Y-119.95
X42.35Y-5.45
X42.45Y-14.762
X42.55Y-2.9
X43.05Y-4.5
X43.05Y-16.325
X43.132Y-122.031
X43.15Y-3.9
X43.2Y-8.6
X43.25Y-18.1
X43.301Y-119.975
X43.4Y-12.95
X43.575Y-108.1
X43.65Y-19.65
X43.693Y-7.057
X43.72Y-111.56
X44.068Y-7.614
X44.35Y-111.5
X44.56Y-121.5
X44.6Y-115.9
X44.632Y-13.031
X44.7Y-14.075
X44.715Y-24.625
X45.0Y-5.009
X45.1Y-10.05
X45.15Y-10.65
X45.225Y-109.725
X45.225Y-111.5
X45.25Y-6.75
X45.25Y-13.25
X45.3Y-14.77
X45.35Y-17.95
X45.37Y-7.55
X45.5Y-119.6
X45.563Y-3.387
X45.6Y-107.75
X45.9Y-7.0
X45.9Y-111.5
X46.3Y-113.8
X46.377Y-3.888
X46.418Y-2.378
X46.492Y-26.52
X46.5Y-9.575
X46.56Y-119.0
X46.646Y-6.903
X46.65Y-5.25
X46.656Y-11.666
X46.7Y-8.95
X46.75Y-120.775
X47.392Y-18.031
X47.402Y-2.972
X47.64Y-114.8
X47.85Y-8.75
X47.85Y-10.15
X47.9Y-107.975
X47.925Y-113.75
X48.05Y-6.6
X48.05Y-7.6
X48.05Y-121.0
X48.06Y-11.65
X48.15Y-2.95
X48.15Y-14.55
X48.334Y-10.577
X48.55Y-119.76
X48.65Y-13.75
X48.65Y-15.85
X48.65Y-16.65
X48.675Y-115.575
X48.781Y-113.646
X49.0Y-5.4
X49.0Y-7.1
X49.14Y-117.95
X49.25Y-4.4
X49.25Y-119.11
X49.375Y-108.1
X49.489Y-118.47
X50.032Y-120.281
X50.3Y-107.725
X50.582Y-10.628
X51.11Y-20.605
X51.85Y-115.6
X51.85Y-119.41
X51.85Y-124.49
X52.025Y-120.825
X52.05Y-110.87
X52.05Y-111.9
X52.05Y-117.2
X52.127Y-3.388
X52.339Y-116.07
X53.44Y-111.84
X53.5Y-113.5
X54.337Y-5.25
X55.35Y-110.25
X55.45Y-21.85
X55.525Y-29.0
X56.05Y-110.12
X56.085Y-16.601
X56.163Y-5.25
X56.775Y-27.0
X57.013Y-114.329
X57.05Y-27.7
X57.3Y-26.05
X57.954Y-110.236
X58.15Y-25.95
X58.25Y-110.8
X59.64Y-107.88
X61.72Y-110.24
X62.5Y-28.9
X62.8Y-109.6
X63.624Y-110.286
X64.5Y-113.25
X64.8Y-20.55
X64.95Y-28.05
X65.574Y-110.236
X65.75Y-111.95
X66.133Y-120.328
X66.2Y-114.3
X66.2Y-117.25
X66.2Y-117.9
X66.3Y-111.4
X66.85Y-19.25
X67.1Y-23.45
X67.25Y-108.15
X67.369Y-120.875
X67.369Y-122.145
X67.384Y-124.749
X67.384Y-126.019
X67.9Y-26.75
X68.4Y-112.85
X68.452Y-107.65
X68.6Y-109.1
X69.05Y-22.6
X69.05Y-23.6
T2
X59.7Y-118.61
X59.7Y-120.01
X60.4Y-117.91
X60.4Y-119.31
X60.4Y-120.71
X61.1Y-118.61
X61.1Y-120.01
X61.8Y-117.91
X61.8Y-119.31
X61.8Y-120.71
X62.5Y-118.61
X62.5Y-120.01
T3
X7.38Y-122.0G85X7.38Y-122.8
G05
X7.38Y-125.8G85X7.38Y-127.0
G05
X18.62Y-122.0G85X18.62Y-122.8
G05
X18.62Y-125.8G85X18.62Y-127.0
G05
M30
